<svg width="18" height="18" viewBox="0 0 18 18" fill="currentColor" xmlns="http://www.w3.org/2000/svg">
<g clip-path="url(#clip0)">
<path d="M4.09091 16.9644H13.9091C14.5116 16.9644 15 16.476 15 15.8735V8.64543V8.23716V8.09998C15 4.78627 12.3137 2.09998 9 2.09998C5.68629 2.09998 3 4.78627 3 8.09998V8.23716V8.64543V15.8735C3 16.476 3.48842 16.9644 4.09091 16.9644Z" fill="currentColor"/>
<path d="M3.13305 8.46781V15.9335C3.13305 16.5225 3.61055 17 4.19957 17H13.7983C14.3873 17 14.8648 16.5225 14.8648 15.9335V8.46781M3.13305 8.46781H14.8648M3.13305 8.46781C1.955 8.46781 1 9.42281 1 10.6009V14.867M14.8648 8.46781C16.0429 8.46781 16.9979 9.42281 16.9979 10.6009V14.867M5.69982 3.08328L4.19957 1M12.298 3.08328L13.7983 1M14.8648 7.93241C14.8648 4.69277 12.2386 2.06652 8.99893 2.06652C5.7593 2.06652 3.13305 4.69277 3.13305 7.93241V8.46567H14.8648V7.93241ZM6.59925 5.26824C6.74651 5.26824 6.86589 5.38761 6.86589 5.53487C6.86589 5.68213 6.74651 5.8015 6.59925 5.8015C6.452 5.8015 6.33262 5.68213 6.33262 5.53487C6.33262 5.38761 6.452 5.26824 6.59925 5.26824ZM11.3986 5.26824C11.5459 5.26824 11.6652 5.38761 11.6652 5.53487C11.6652 5.68213 11.5459 5.8015 11.3986 5.8015C11.2514 5.8015 11.132 5.68213 11.132 5.53487C11.132 5.38761 11.2514 5.26824 11.3986 5.26824Z" stroke="currentColor" stroke-linecap="round" stroke-linejoin="round" vector-effect="non-scaling-stroke"/>
</g>
<defs>
<clipPath id="clip0">
<path d="M0 0H17.9979V18H0V0Z" fill="currentColor"/>
</clipPath>
</defs>
</svg>
