<svg width="18" height="18" viewBox="0 0 18 18" fill="currentColor" xmlns="http://www.w3.org/2000/svg">
<path d="M6.84031 7.96301C6.90405 8.27305 7.17846 8.49592 7.49716 8.49649H9C9.58684 11.3151 10.9503 12.5596 14 11.9999C14.3759 11.931 15.6196 11.4999 15.6552 11.4999C15.6561 11.495 15.6571 11.4902 15.6581 11.4853C15.6439 11.421 15.5126 11.1607 15.7555 10.9999C15.7237 11.1584 15.6911 11.3206 15.6581 11.4853C15.6602 11.4947 15.6597 11.4999 15.6552 11.4999C15.3223 13.1596 14.9406 15.0652 14.7588 15.9665C14.695 16.2765 14.4206 16.4994 14.1019 16.5H3.411C3.0923 16.4994 2.81789 16.2765 2.75415 15.9665L1.01263 7.2975C0.973943 7.1022 1.02514 6.89996 1.15223 6.74603C1.27932 6.5921 1.46902 6.50259 1.66948 6.50195H5.99675C6.31545 6.50252 6.58986 6.72539 6.6536 7.03543L6.84031 7.96301Z" fill="currentColor"/>
<path d="M15.6552 11.5C15.3223 13.1596 14.9406 15.0652 14.7588 15.9665C14.695 16.2766 14.4206 16.4994 14.1019 16.5H3.411C3.0923 16.4994 2.81789 16.2766 2.75415 15.9665L1.01263 7.29756C0.973943 7.10226 1.02514 6.90002 1.15223 6.74609C1.27932 6.59216 1.46902 6.50265 1.66948 6.50201H5.99675C6.31545 6.50258 6.58986 6.72545 6.6536 7.03549L6.84031 7.96307C6.90405 8.27311 7.17846 8.49598 7.49716 8.49655H9C9.58684 11.3151 10.9503 12.5596 14 12C14.3759 11.931 15.6196 11.5 15.6552 11.5ZM15.6552 11.5C15.6561 11.4951 15.6571 11.4902 15.6581 11.4853M15.6552 11.5C15.6597 11.5 15.6602 11.4948 15.6581 11.4853M15.6581 11.4853C15.6911 11.3207 15.7237 11.1585 15.7555 11C15.5126 11.1607 15.6439 11.4211 15.6581 11.4853ZM3.51865 4.5008L3.53209 2.16684C3.53209 1.79856 3.83278 1.5 4.20371 1.5H12.91C13.2809 1.5 13.5816 1.79856 13.5816 2.16684L13.5875 4.06315M5.54184 3.49518L11.0747 3.50052M14.4294 8.4198L13.001 9.83223M13.001 9.83223L11.5726 8.4198M13.001 9.83223L13.0007 6.44238M17.0001 8.1373C17.0001 10.3215 15.2094 12.0921 13.0005 12.0921C10.7917 12.0921 9.00102 10.3215 9.00102 8.1373C9.00102 5.95312 10.7917 4.1825 13.0005 4.1825C15.2094 4.1825 17.0001 5.95312 17.0001 8.1373Z" stroke="currentColor" stroke-linecap="round" stroke-linejoin="round" vector-effect="non-scaling-stroke"/>
</svg>
