<svg width="18" height="18" viewBox="0 0 18 18" fill="currentColor" xmlns="http://www.w3.org/2000/svg">
<path d="M6.71425 3.85718H3.28568C2.98257 3.85718 2.69188 3.97759 2.47756 4.19191C2.26323 4.40624 2.14282 4.69693 2.14282 5.00003V13H15.8571V5.00003C15.8571 4.69693 15.7367 4.40624 15.5224 4.19191C15.308 3.97759 15.0174 3.85718 14.7143 3.85718H11.2857" fill="currentColor"/>
<path d="M6.71425 3.85715H3.28568C2.98257 3.85715 2.69188 3.97755 2.47756 4.19188C2.26323 4.40621 2.14282 4.6969 2.14282 5V13H15.8571V5C15.8571 4.6969 15.7367 4.40621 15.5224 4.19188C15.308 3.97755 15.0174 3.85715 14.7143 3.85715H11.2857" fill="currentColor"/>
<path d="M10.1429 5H7.85714C7.55404 5 7.26335 4.87959 7.04902 4.66527C6.83469 4.45094 6.71425 4.16025 6.71425 3.85715L6.71429 3.28571C6.71429 3.13416 6.77449 2.98882 6.88165 2.88165C6.98882 2.77449 7.13416 2.71429 7.28571 2.71429H10.7143C10.8658 2.71429 11.0112 2.77449 11.1183 2.88165C11.2255 2.98882 11.2857 3.13416 11.2857 3.28571L11.2857 3.85715C11.2857 4.16025 11.1653 4.45094 10.951 4.66527C10.7367 4.87959 10.446 5 10.1429 5Z" fill="currentColor"/>
<path d="M6.71425 3.85715H3.28568C2.98257 3.85715 2.69188 3.97755 2.47756 4.19188C2.26323 4.40621 2.14282 4.6969 2.14282 5V13H15.8571V5C15.8571 4.6969 15.7367 4.40621 15.5224 4.19188C15.308 3.97755 15.0174 3.85715 14.7143 3.85715H11.2857M6.71425 3.85715C6.71425 4.16025 6.83469 4.45094 7.04902 4.66527C7.26335 4.87959 7.55404 5 7.85714 5H10.1429C10.446 5 10.7367 4.87959 10.951 4.66527C11.1653 4.45094 11.2857 4.16025 11.2857 3.85715M6.71425 3.85715L6.71429 3.28571C6.71429 3.13416 6.77449 2.98882 6.88165 2.88165C6.98882 2.77449 7.13416 2.71429 7.28571 2.71429H10.7143C10.8658 2.71429 11.0112 2.77449 11.1183 2.88165C11.2255 2.98882 11.2857 3.13416 11.2857 3.28571L11.2857 3.85715M1 13H17M9 13V17M6.14286 13L4.42857 17M11.8571 13L13.5714 17M9 1V2.71429" stroke="currentColor" stroke-linecap="round" stroke-linejoin="round" vector-effect="non-scaling-stroke"/>
</svg>
