<svg width="18" height="18" viewBox="0 0 18 18" fill="currentColor" xmlns="http://www.w3.org/2000/svg">
<path fill-rule="evenodd" clip-rule="evenodd" d="M9.00034 2.6001C11.946 2.6001 14.3339 4.988 14.3339 7.93363C14.3339 12.9443 15.4006 13.8005 15.4006 13.8005H2.6001C2.6001 13.8005 3.6668 12.438 3.6668 7.93363C3.6668 4.988 6.05471 2.6001 9.00034 2.6001Z" fill="currentColor"/>
<path d="M7.57804 15.9339C7.76357 16.5659 8.34343 17 9.00209 17C9.66076 17 10.2406 16.5659 10.4261 15.9339M9.00024 2.60006V1M9.00024 2.60006C11.9459 2.60006 14.3339 4.98794 14.3339 7.93357C14.3339 12.9442 15.4006 13.8005 15.4006 13.8005H2.6001C2.6001 13.8005 3.6668 12.4379 3.6668 7.93357C3.6668 4.98794 6.05461 2.60006 9.00024 2.60006Z" stroke="currentColor" stroke-linecap="round" stroke-linejoin="round" vector-effect="non-scaling-stroke"/>
</svg>
