<svg width="18" height="18" viewBox="0 0 18 18" fill="currentColor" xmlns="http://www.w3.org/2000/svg">
<path d="M15.9333 5.23083H2.06667C1.47756 5.23083 1 5.71299 1 6.30776V14.9231C1 15.5179 1.47756 16.0001 2.06667 16.0001H15.9333C16.5224 16.0001 17 15.5179 17 14.9231V6.30776C17 5.71299 16.5224 5.23083 15.9333 5.23083Z" fill="currentColor"/>
<path d="M12.2 5.23077C12.2 4.37392 11.8629 3.55216 11.2627 2.94627C10.6626 2.34038 9.84869 2 9 2C8.15131 2 7.33738 2.34038 6.73726 2.94627C6.13714 3.55216 5.8 4.37392 5.8 5.23077M1 9.53847H7.93333M10.0669 9.53847H17.0002M2.06667 5.23077H15.9333C16.5224 5.23077 17 5.71293 17 6.3077V14.9231C17 15.5178 16.5224 16 15.9333 16H2.06667C1.47756 16 1 15.5178 1 14.9231V6.3077C1 5.71293 1.47756 5.23077 2.06667 5.23077ZM8.99977 11.1531C8.71687 11.1531 8.44556 11.0396 8.24552 10.8377C8.04549 10.6357 7.93311 10.3618 7.93311 10.0762V8.99926C7.93311 8.71364 8.04549 8.43973 8.24552 8.23776C8.44556 8.0358 8.71687 7.92234 8.99977 7.92234C9.28267 7.92234 9.55398 8.0358 9.75402 8.23776C9.95406 8.43973 10.0664 8.71364 10.0664 8.99926V10.0762C10.0664 10.3618 9.95406 10.6357 9.75402 10.8377C9.55398 11.0396 9.28267 11.1531 8.99977 11.1531Z" stroke="currentColor" stroke-linecap="round" stroke-linejoin="round" vector-effect="non-scaling-stroke"/>
</svg>
