<svg width="20" height="18" viewBox="0 0 20 18" fill="currentColor" xmlns="http://www.w3.org/2000/svg">
<path d="M13.3406 9H2.12591C1.78023 9 1.5 9.28259 1.5 9.63117V16.3688C1.5 16.7174 1.78023 17 2.12591 17H13.3406C13.6863 17 13.9666 16.7174 13.9666 16.3688L13.9668 14.9671L17.7347 16.3919C18.0278 16.5026 18.3543 16.3527 18.4641 16.0571C18.4879 15.9931 18.5 15.9254 18.5001 15.857V10.6486C18.4997 10.3335 18.246 10.0783 17.9335 10.0787C17.8656 10.0788 17.7982 10.0912 17.7347 10.1153L13.9668 11.5401L13.9666 9.63117C13.9666 9.28259 13.6863 9 13.3406 9Z" fill="currentColor"/>
<path d="M4.3335 11.2857H10.5668M13.3406 9.00008H2.12591C1.78023 9.00008 1.5 9.28266 1.5 9.63125V16.3689C1.5 16.7175 1.78023 17 2.12591 17H13.3406C13.6863 17 13.9666 16.7175 13.9666 16.3689V9.63125C13.9666 9.28266 13.6863 9.00008 13.3406 9.00008ZM13.9668 14.9672L17.7347 16.392C18.0278 16.5026 18.3543 16.3528 18.4641 16.0572C18.4879 15.9932 18.5 15.9254 18.5001 15.8571V10.6487C18.4997 10.3335 18.246 10.0784 17.9335 10.0788C17.8656 10.0788 17.7982 10.0912 17.7347 10.1154L13.9668 11.5401L13.9668 14.9672ZM4.3333 6.71423C5.8981 6.71423 7.16661 5.43506 7.16661 3.85712C7.16661 2.27917 5.8981 1 4.3333 1C2.76851 1 1.5 2.27917 1.5 3.85712C1.5 5.43506 2.76851 6.71423 4.3333 6.71423ZM11.6998 6.71423C12.9516 6.71423 13.9664 5.69089 13.9664 4.42854C13.9664 3.1662 12.9516 2.14286 11.6998 2.14286C10.4479 2.14286 9.43311 3.1662 9.43311 4.42854C9.43311 5.69089 10.4479 6.71423 11.6998 6.71423Z" stroke="currentColor" stroke-linecap="round" stroke-linejoin="round" vector-effect="non-scaling-stroke"/>
</svg>
