<svg width="18" height="18" viewBox="0 0 18 18" fill="currentColor" xmlns="http://www.w3.org/2000/svg">
<path d="M14.3333 4.73331L13.5618 3.18949C13.4732 3.01229 13.3369 2.86328 13.1684 2.75916C12.9998 2.65504 12.8056 2.59992 12.6075 2.59998H8.59253C8.39441 2.59992 8.20019 2.65504 8.03163 2.75916C7.86307 2.86328 7.72685 3.01229 7.63822 3.18949L6.86667 4.73331H2.06667C1.78377 4.73331 1.51246 4.84569 1.31242 5.04573C1.11238 5.24577 1 5.51708 1 5.79998V14.3333C1 14.6162 1.11238 14.8875 1.31242 15.0876C1.51246 15.2876 1.78377 15.4 2.06667 15.4H15.9333C16.2162 15.4 16.4875 15.2876 16.6876 15.0876C16.8876 14.8875 17 14.6162 17 14.3333V5.79998C17 5.51708 16.8876 5.24577 16.6876 5.04573C16.4875 4.84569 16.2162 4.73331 15.9333 4.73331H14.3333Z" fill="currentColor"/>
<path d="M4.2 4.73331V3.66664M14.3333 4.73331L13.5618 3.18949C13.4732 3.01229 13.3369 2.86328 13.1684 2.75916C12.9998 2.65504 12.8056 2.59992 12.6075 2.59998H8.59253C8.39441 2.59992 8.20019 2.65504 8.03163 2.75916C7.86307 2.86328 7.72685 3.01229 7.63822 3.18949L6.86667 4.73331H2.06667C1.78377 4.73331 1.51246 4.84569 1.31242 5.04573C1.11238 5.24577 1 5.51708 1 5.79998V14.3333C1 14.6162 1.11238 14.8875 1.31242 15.0876C1.51246 15.2876 1.78377 15.4 2.06667 15.4H15.9333C16.2162 15.4 16.4875 15.2876 16.6876 15.0876C16.8876 14.8875 17 14.6162 17 14.3333V5.79998C17 5.51708 16.8876 5.24577 16.6876 5.04573C16.4875 4.84569 16.2162 4.73331 15.9333 4.73331H14.3333ZM10.6 13.2666C12.6619 13.2666 14.3333 11.5952 14.3333 9.53331C14.3333 7.47145 12.6619 5.79998 10.6 5.79998C8.53814 5.79998 6.86667 7.47145 6.86667 9.53331C6.86667 11.5952 8.53814 13.2666 10.6 13.2666ZM3.4 6.86664C3.45274 6.86664 3.5043 6.88228 3.54815 6.91158C3.59201 6.94089 3.62618 6.98253 3.64637 7.03126C3.66655 7.07999 3.67183 7.13361 3.66154 7.18533C3.65125 7.23706 3.62586 7.28458 3.58856 7.32187C3.55127 7.35917 3.50375 7.38456 3.45202 7.39485C3.4003 7.40514 3.34668 7.39986 3.29795 7.37968C3.24922 7.35949 3.20758 7.32531 3.17827 7.28146C3.14897 7.23761 3.13333 7.18605 3.13333 7.13331C3.13333 7.06258 3.16143 6.99476 3.21144 6.94475C3.26145 6.89474 3.32928 6.86664 3.4 6.86664Z" stroke="currentColor" stroke-linecap="round" stroke-linejoin="round" vector-effect="non-scaling-stroke"/>
</svg>
