<svg width="18" height="18" viewBox="0 0 18 18" fill="currentColor" xmlns="http://www.w3.org/2000/svg">
<path fill-rule="evenodd" clip-rule="evenodd" d="M9.48526 15.7203L16.9233 2.84006C17.0811 2.57222 16.9876 2.22969 16.7143 2.075C16.6302 2.02739 16.5351 2.00158 16.438 2H1.5619C1.24638 2.00514 0.994838 2.26001 1.00008 2.56927C1.00169 2.66444 1.02803 2.75764 1.0766 2.84006L8.51465 15.7203C8.66381 15.983 9.00201 16.0774 9.27003 15.9312C9.36042 15.8819 9.43496 15.8088 9.48526 15.7203V15.7203Z" fill="currentColor"/>
<path fill-rule="evenodd" clip-rule="evenodd" d="M9.48526 15.7203L16.9233 2.84006V2.84006C17.0811 2.57222 16.9876 2.22969 16.7143 2.075C16.6302 2.02739 16.5351 2.00158 16.438 2H1.5619V2C1.24638 2.00514 0.994838 2.26001 1.00008 2.56927C1.00169 2.66444 1.02803 2.75764 1.0766 2.84006L8.51465 15.7203V15.7203C8.66381 15.983 9.00201 16.0774 9.27003 15.9312C9.36042 15.8819 9.43496 15.8088 9.48526 15.7203L9.48526 15.7203Z" stroke="currentColor" stroke-linecap="round" stroke-linejoin="round" vector-effect="non-scaling-stroke"/>
</svg>
