<svg width="18" height="18" viewBox="0 0 18 18" fill="currentColor" xmlns="http://www.w3.org/2000/svg">
<path fill-rule="evenodd" clip-rule="evenodd" d="M15.7204 8.51469L2.84007 1.0766C2.75561 1.02683 2.65989 1.00043 2.56236 1.00001C2.46483 0.99958 2.36889 1.02515 2.28402 1.07417C2.19916 1.1232 2.12831 1.19399 2.07849 1.27954C2.02868 1.36508 2.00162 1.46242 2 1.56191V16.4381C2.00162 16.5376 2.02868 16.6349 2.07849 16.7205C2.12831 16.806 2.19916 16.8768 2.28402 16.9258C2.36889 16.9749 2.46483 17.0004 2.56236 17C2.65989 16.9996 2.75561 16.9732 2.84007 16.9234L15.7204 9.48531C15.8051 9.43718 15.8757 9.36681 15.9249 9.28148C15.9741 9.19616 16 9.09898 16 9C16 8.90102 15.9741 8.80384 15.9249 8.71852C15.8757 8.63319 15.8051 8.56282 15.7204 8.51469Z" fill="currentColor"/>
<path fill-rule="evenodd" clip-rule="evenodd" d="M15.7204 8.51469L2.84007 1.0766C2.75561 1.02683 2.65989 1.00043 2.56236 1.00001C2.46483 0.99958 2.36889 1.02515 2.28402 1.07417C2.19916 1.1232 2.12831 1.19399 2.07849 1.27954C2.02868 1.36508 2.00162 1.46242 2 1.56191V16.4381C2.00162 16.5376 2.02868 16.6349 2.07849 16.7205C2.12831 16.806 2.19916 16.8768 2.28402 16.9258C2.36889 16.9749 2.46483 17.0004 2.56236 17C2.65989 16.9996 2.75561 16.9732 2.84007 16.9234L15.7204 9.48531C15.8051 9.43718 15.8757 9.36681 15.9249 9.28148C15.9741 9.19616 16 9.09898 16 9C16 8.90102 15.9741 8.80384 15.9249 8.71852C15.8757 8.63319 15.8051 8.56282 15.7204 8.51469V8.51469Z" stroke="currentColor" stroke-linecap="round" stroke-linejoin="round" vector-effect="non-scaling-stroke"/>
</svg>
