<svg width="18" height="18" viewBox="0 0 18 18" fill="currentColor" xmlns="http://www.w3.org/2000/svg">
<path d="M15 7L9.27793 1.1164C9.24145 1.0795 9.19812 1.05023 9.15043 1.03025C9.10273 1.01028 9.05161 1 8.99998 1C8.94834 1 8.89722 1.01028 8.84952 1.03025C8.80183 1.05023 8.7585 1.0795 8.72202 1.1164L3 7M3 11L8.72202 16.8836C8.7585 16.9205 8.80183 16.9498 8.84952 16.9697C8.89722 16.9897 8.94834 17 8.99998 17C9.05161 17 9.10273 16.9897 9.15043 16.9697C9.19812 16.9498 9.24145 16.9205 9.27793 16.8836L15 11" stroke="currentColor" stroke-linecap="round" stroke-linejoin="round" vector-effect="non-scaling-stroke"/>
</svg>
