<svg width="20" height="20" viewBox="0 0 20 20" fill="currentColor" xmlns="http://www.w3.org/2000/svg">
<path d="M14.1973 13.0002H15.0966C15.708 13.0012 16.311 12.8583 16.857 12.5829C17.4029 12.3075 17.8765 11.9075 18.2394 11.415C18.6022 10.9226 18.8443 10.3516 18.9458 9.74826C19.0474 9.14489 19.0057 8.52607 18.8241 7.94182C18.6425 7.35757 18.3261 6.82428 17.9004 6.38507C17.4748 5.94585 16.9518 5.61303 16.3739 5.41351C15.7959 5.21399 15.1791 5.15337 14.5734 5.23655C13.9677 5.31973 13.3901 5.54438 12.8872 5.89233C12.6864 4.82273 12.1988 3.82791 11.4764 3.0144C10.7541 2.20089 9.82428 1.59933 8.78652 1.27413C7.74876 0.948925 6.64217 0.912335 5.58523 1.16827C4.52829 1.42421 3.56081 1.96304 2.78639 2.72706C2.01197 3.49108 1.45977 4.45151 1.18893 5.50552C0.918083 6.55953 0.938793 7.66742 1.24884 8.71055C1.55888 9.75369 2.14659 10.6928 2.94902 11.4273C3.75146 12.1618 4.7384 12.664 5.80416 12.8802" fill="currentColor"/>
<path d="M14.1973 13.0002H15.0966C15.708 13.0012 16.311 12.8583 16.857 12.5829C17.4029 12.3075 17.8765 11.9075 18.2394 11.415C18.6022 10.9226 18.8443 10.3516 18.9458 9.74826C19.0474 9.14489 19.0057 8.52607 18.8241 7.94182C18.6425 7.35757 18.3261 6.82428 17.9004 6.38507C17.4748 5.94585 16.9518 5.61303 16.3739 5.41351C15.7959 5.21399 15.1791 5.15337 14.5734 5.23655C13.9677 5.31973 13.3901 5.54438 12.8872 5.89233C12.6864 4.82273 12.1988 3.82791 11.4764 3.0144C10.7541 2.20089 9.82427 1.59933 8.78652 1.27413C7.74876 0.948925 6.64217 0.912335 5.58523 1.16827C4.52829 1.42421 3.56081 1.96304 2.78639 2.72706C2.01197 3.49108 1.45977 4.45151 1.18893 5.50552C0.918083 6.55953 0.938793 7.66742 1.24884 8.71055C1.55888 9.75369 2.14659 10.6928 2.94902 11.4273C3.75146 12.1618 4.7384 12.664 5.80416 12.8802M10.001 19V11.8002M10.001 11.8002L7.00342 14.8001M10.001 11.8002L12.9985 14.8001" stroke="currentColor" stroke-linecap="round" stroke-linejoin="round" vector-effect="non-scaling-stroke"/>
</svg>
