<svg width="20" height="18" viewBox="0 0 20 18" fill="currentColor" xmlns="http://www.w3.org/2000/svg">
<path d="M2.63333 16.4001C2.00741 16.4001 1.5 15.8904 1.5 15.2616V2.82584L1.5 2.82586C1.50207 2.14976 2.04716 1.60219 2.72021 1.6001H17.2858C17.9555 1.60218 18.4979 2.14703 18.5 2.81977V15.1744V15.1743C18.4979 15.8504 17.9528 16.398 17.2798 16.4001H2.63333Z" fill="currentColor"/>
<path d="M18.5 5.01553H1.5M13.3997 8.43085L15.6663 10.7078L13.3997 12.9847M6.59997 8.43085L4.3333 10.7078L6.59997 12.9847M11.1332 8.43085L8.86649 12.9847M2.63333 16.4001C2.00741 16.4001 1.5 15.8904 1.5 15.2616V2.82584C1.50207 2.14975 2.04716 1.60219 2.72021 1.6001H17.2858C17.9555 1.60218 18.4979 2.14703 18.5 2.81977V15.1744C18.4979 15.8504 17.9528 16.398 17.2798 16.4001H2.63333Z" stroke="currentColor" stroke-linecap="round" stroke-linejoin="round" vector-effect="non-scaling-stroke"/>
</svg>
