<svg width="18" height="18" viewBox="0 0 18 18" fill="currentColor" xmlns="http://www.w3.org/2000/svg">
<path d="M9.52648 1.00001C8.19692 0.998092 6.89107 1.3523 5.74444 2.02589C4.59781 2.69947 3.65219 3.66789 3.00571 4.83063C2.35923 5.99337 2.03544 7.30808 2.06795 8.63831C2.10046 9.96855 2.48809 11.2658 3.1906 12.3956L1 17L5.60004 14.8076C6.58108 15.4181 7.69037 15.7922 8.84049 15.9005C9.99062 16.0088 11.1502 15.8483 12.2278 15.4317C13.3053 15.0151 14.2716 14.3537 15.0503 13.4998C15.8289 12.6458 16.3988 11.6225 16.7151 10.5105C17.0313 9.39851 17.0851 8.22824 16.8724 7.09187C16.6597 5.95551 16.1863 4.8841 15.4893 3.96206C14.7924 3.04003 13.8911 2.29255 12.8563 1.77854C11.8216 1.26453 10.6817 0.99802 9.52648 1.00001Z" fill="currentColor"/>
<path d="M9.52648 1.00001C8.19692 0.998092 6.89107 1.3523 5.74444 2.02589C4.59781 2.69947 3.65219 3.66789 3.00571 4.83063C2.35923 5.99337 2.03544 7.30808 2.06795 8.63831C2.10046 9.96855 2.48809 11.2658 3.1906 12.3956L1 17L5.60004 14.8076C6.58108 15.4181 7.69037 15.7922 8.84049 15.9005C9.99062 16.0088 11.1502 15.8483 12.2278 15.4317C13.3053 15.0151 14.2716 14.3537 15.0503 13.4998C15.8289 12.6458 16.3988 11.6225 16.7151 10.5105C17.0313 9.39851 17.0851 8.22824 16.8724 7.09187C16.6597 5.95551 16.1863 4.8841 15.4893 3.96206C14.7924 3.04003 13.8911 2.29255 12.8563 1.77854C11.8216 1.26453 10.6817 0.99802 9.52648 1.00001Z" fill="currentColor"/>
<path d="M6.43199 7.09975H13.4111M5.358 10.3234H12.3371M9.38417 4.41332L6.69991 12.4726M12.0685 4.41332L9.38419 12.4726M9.52648 1.00001C8.19692 0.998092 6.89107 1.3523 5.74444 2.02589C4.59781 2.69947 3.65219 3.66789 3.00571 4.83063C2.35923 5.99337 2.03544 7.30808 2.06795 8.63831C2.10046 9.96855 2.48809 11.2658 3.1906 12.3956L1 17L5.60004 14.8076C6.58108 15.4181 7.69037 15.7922 8.84049 15.9005C9.99062 16.0088 11.1502 15.8483 12.2278 15.4317C13.3053 15.0151 14.2716 14.3537 15.0503 13.4998C15.8289 12.6458 16.3988 11.6225 16.7151 10.5105C17.0313 9.39851 17.0851 8.22824 16.8724 7.09187C16.6597 5.95551 16.1863 4.8841 15.4893 3.96206C14.7924 3.04003 13.8911 2.29255 12.8563 1.77854C11.8216 1.26453 10.6817 0.99802 9.52648 1.00001Z" stroke="currentColor" stroke-linecap="round" stroke-linejoin="round" vector-effect="non-scaling-stroke"/>
</svg>
