<svg width="18" height="18" viewBox="0 0 18 18" fill="currentColor" xmlns="http://www.w3.org/2000/svg">
<path d="M13.8001 5.2666H4.20007V16.9999H13.8001V5.2666Z" fill="currentColor"/>
<path d="M4.20007 5.26666H13.8001M4.20007 5.26666V17M4.20007 5.26666H3.1333M13.8001 5.26666V17M13.8001 5.26666H14.8666M13.8001 17H4.20007M13.8001 17L15.9333 17M4.20007 17L2.06689 17M8.46655 3.13333H11.311C11.4053 3.13333 11.4957 3.09587 11.5624 3.02919C11.6291 2.96251 11.6666 2.87208 11.6666 2.77778V1.35556C11.6666 1.26126 11.6291 1.17082 11.5624 1.10414C11.4957 1.03746 11.4053 1 11.311 1H8.46655V3.13333ZM8.46655 3.13333V5.26666M1 9.53333H4.2H2.06689V17M16.9999 9.53333H13.7999H15.9333V17M1 12.7333H17M2.06689 17L1 17M15.9333 17L16.9998 17M7.40015 7.39999V7.93333M7.40015 10.0667V10.6M10.5999 7.39999V7.93333M10.5999 10.0667V10.6M7.40015 14.3333V14.8667M10.5999 14.3333V14.8667" stroke="currentColor" stroke-linecap="round" stroke-linejoin="round" vector-effect="non-scaling-stroke"/>
</svg>
