<svg width="18" height="18" viewBox="0 0 18 18" fill="currentColor" xmlns="http://www.w3.org/2000/svg">
<path d="M6.33325 4.1333H16.9999M6.33325 10.5333H16.9999M6.33325 16.9333H16.9999M1 3.49982L1.51187 4.18215C1.53966 4.2194 1.57591 4.24951 1.61763 4.27C1.65935 4.29049 1.70534 4.30078 1.75181 4.30001C1.79829 4.29924 1.84391 4.28744 1.88493 4.26558C1.92595 4.24372 1.96118 4.21243 1.98773 4.17428L4 1.30005M1 9.89977L1.51187 10.5821C1.53966 10.6194 1.57591 10.6495 1.61763 10.67C1.65935 10.6904 1.70534 10.7007 1.75181 10.7C1.79829 10.6992 1.84391 10.6874 1.88493 10.6655C1.92595 10.6437 1.96118 10.6124 1.98773 10.5742L4 7.7M1 16.2998L1.51187 16.9821C1.53966 17.0194 1.57591 17.0495 1.61763 17.07C1.65935 17.0904 1.70534 17.1007 1.75181 17.1C1.79829 17.0992 1.84391 17.0874 1.88493 17.0655C1.92595 17.0437 1.96118 17.0124 1.98773 16.9742L4 14.1" stroke="currentColor" stroke-linecap="round" stroke-linejoin="round" vector-effect="non-scaling-stroke"/>
</svg>
