<svg width="18" height="18" viewBox="0 0 18 18" fill="currentColor" xmlns="http://www.w3.org/2000/svg">
<path d="M13.8667 16.7054V14.0945V13.8H14.6388C14.8015 13.8 14.9334 13.6681 14.9334 13.5054V10.8945C14.9334 10.7318 14.8015 10.6 14.6388 10.6H11.7333V10.3054V7.6945V7.39995H12.5054C12.6681 7.39995 12.7999 7.26808 12.7999 7.1054V4.4945C12.7999 4.33183 12.6681 4.19995 12.5054 4.19995H4.56115C4.39848 4.19995 4.2666 4.33183 4.2666 4.4945V7.1054V7.39995H3.4945C3.33183 7.39995 3.19995 7.53182 3.19995 7.6945V10.3054C3.19995 10.4681 3.33183 10.5999 3.4945 10.5999H6.40002V10.8945V13.5054V13.8H5.62792C5.46525 13.8 5.33337 13.9318 5.33337 14.0945V16.7054C5.33337 16.8681 5.46525 17 5.62792 17H13.5722C13.7348 17 13.8667 16.8681 13.8667 16.7054Z" fill="currentColor"/>
<path d="M15.9333 5.8V7.93333M14.8667 6.86667H17M2.06667 1V3.13333M1 2.06667H3.13333M13.5055 13.8H5.56122C5.39854 13.8 5.26667 13.9319 5.26667 14.0945V16.7055C5.26667 16.8681 5.39854 17 5.56122 17H13.5055C13.6681 17 13.8 16.8681 13.8 16.7055V14.0945C13.8 13.9319 13.6681 13.8 13.5055 13.8ZM14.5721 10.6H6.62788C6.46521 10.6 6.33333 10.7319 6.33333 10.8945V13.5055C6.33333 13.6681 6.46521 13.8 6.62788 13.8H14.5721C14.7348 13.8 14.8667 13.6681 14.8667 13.5055V10.8945C14.8667 10.7319 14.7348 10.6 14.5721 10.6ZM11.3721 7.4H3.42788C3.26521 7.4 3.13333 7.53187 3.13333 7.69455V10.3055C3.13333 10.4681 3.26521 10.6 3.42788 10.6H11.3721C11.5348 10.6 11.6667 10.4681 11.6667 10.3055V7.69455C11.6667 7.53187 11.5348 7.4 11.3721 7.4ZM12.4388 4.2H4.49455C4.33187 4.2 4.2 4.33187 4.2 4.49455V7.10545C4.2 7.26813 4.33187 7.4 4.49455 7.4H12.4388C12.6015 7.4 12.7333 7.26813 12.7333 7.10545V4.49455C12.7333 4.33187 12.6015 4.2 12.4388 4.2Z" stroke="currentColor" stroke-linecap="round" stroke-linejoin="round" vector-effect="non-scaling-stroke"/>
</svg>
