<svg width="18" height="15" viewBox="0 0 18 15" fill="currentColor" xmlns="http://www.w3.org/2000/svg">
<path d="M2.06668 13.6363H15.9332M16.0556 11.5044L16.9942 4.42746C17.0372 4.13606 16.8359 3.86498 16.5445 3.82198C16.4361 3.80599 16.3255 3.82374 16.2276 3.87279L13.1834 6.19029C12.9546 6.3764 12.6182 6.34178 12.4321 6.11296C12.4227 6.10143 12.4138 6.0895 12.4054 6.07722L9.40103 1.68259C9.20806 1.46108 8.87208 1.43795 8.65058 1.63091C8.63219 1.64693 8.61492 1.6642 8.5989 1.68259L5.59448 6.07722C5.42761 6.32042 5.09518 6.38229 4.85198 6.21542C4.8398 6.20706 4.82798 6.1982 4.81653 6.18887L1.77228 3.87279C1.50895 3.74082 1.1885 3.84731 1.05653 4.11064C1.00747 4.20853 0.98973 4.31914 1.00571 4.42746L1.94437 11.5044L16.0556 11.5044Z" stroke="currentColor" stroke-linecap="round" stroke-linejoin="round" vector-effect="non-scaling-stroke"/>
</svg>
