<svg width="18" height="18" viewBox="0 0 18 18" fill="currentColor" xmlns="http://www.w3.org/2000/svg">
<path d="M1 1V17H17M11.7996 6.56656L14.9947 2.57296M7.30836 5.69974L10.1585 6.96622M1 8.46662L5.41884 5.8156M11.5322 12.215L14.9028 10.3426M6.33318 12.7333H9.53318M6.33318 12.7333C6.33318 13.3224 5.85568 13.8 5.26657 13.8C4.67747 13.8 4.19991 13.3224 4.19991 12.7333C4.19991 12.1442 4.67747 11.6666 5.26657 11.6666C5.85568 11.6666 6.33318 12.1442 6.33318 12.7333ZM9.53318 12.7333C9.53318 13.3224 10.0111 13.8 10.6002 13.8C11.1893 13.8 11.6669 13.3224 11.6669 12.7333C11.6669 12.1442 11.1893 11.6666 10.6002 11.6666C10.0111 11.6666 9.53318 12.1442 9.53318 12.7333ZM1 14.8667L4.31236 13.2105M7.39988 5.26669C7.39988 5.85579 6.92231 6.33336 6.33321 6.33336C5.74411 6.33336 5.26654 5.85579 5.26654 5.26669C5.26654 4.67759 5.74411 4.20002 6.33321 4.20002C6.92231 4.20002 7.39988 4.67759 7.39988 5.26669ZM12.2 7.40002C12.2 7.98912 11.7224 8.46669 11.1333 8.46669C10.5442 8.46669 10.0666 7.98912 10.0666 7.40002C10.0666 6.81092 10.5442 6.33335 11.1333 6.33335C11.7224 6.33335 12.2 6.81092 12.2 7.40002ZM17.0001 2.06667C17.0001 2.65577 16.5225 3.13333 15.9334 3.13333C15.3443 3.13333 14.8667 2.65577 14.8667 2.06667C14.8667 1.47756 15.3443 1 15.9334 1C16.5225 1 17.0001 1.47756 17.0001 2.06667ZM17.0001 10.0667C17.0001 10.6558 16.5225 11.1333 15.9334 11.1333C15.3443 11.1333 14.8667 10.6558 14.8667 10.0667C14.8667 9.47756 15.3443 9 15.9334 9C16.5225 9 17.0001 9.47756 17.0001 10.0667Z" stroke="currentColor" stroke-linecap="round" stroke-linejoin="round" vector-effect="non-scaling-stroke"/>
</svg>
