<svg width="46" height="46" viewBox="0 0 46 46" fill="currentColor" xmlns="http://www.w3.org/2000/svg">
    <path d="M41.8843 8.21936L43.9422 10.2773C44.4869 10.822 44.7895 11.5604 44.7895 12.3352C44.7895 13.1099 44.4869 13.8483 43.9422 14.393L37.5264 20.8088" stroke="currentColor" stroke-miterlimit="10" stroke-linecap="round" stroke-linejoin="round" vector-effect="non-scaling-stroke"/>
    <path d="M34.6938 15.41L41.8843 8.21949C42.4291 7.67475 42.7317 6.93633 42.7317 6.16159C42.7317 5.38686 42.4291 4.64844 41.8843 4.1037L39.8264 2.0458C38.6885 0.907909 36.8485 0.907909 35.7228 2.0458L28.5322 9.23633" stroke="currentColor" stroke-miterlimit="10" stroke-linecap="round" stroke-linejoin="round" vector-effect="non-scaling-stroke"/>
    <path d="M16.209 21.5716L14.1511 29.791L22.3706 27.7332L34.6938 15.41L28.5322 9.24841L16.209 21.5716Z" stroke="currentColor" stroke-miterlimit="10" stroke-linecap="round" stroke-linejoin="round" vector-effect="non-scaling-stroke"/>
    <path d="M38.979 25.9053V31.9579C38.979 32.7327 38.6764 33.4711 38.1316 34.0158L28.2053 43.9422C27.6606 44.4869 26.9222 44.7895 26.1474 44.7895H4.11583C2.50583 44.7895 1.21057 43.4943 1.21057 41.8843V4.11583C1.21057 2.50583 2.50583 1.21057 4.11583 1.21057H25.9053" stroke="currentColor" stroke-miterlimit="10" stroke-linecap="round" stroke-linejoin="round" vector-effect="non-scaling-stroke"/>
    <path d="M24.8024 44.5231V36.0736C24.8024 34.4636 26.0976 33.1683 27.7076 33.1683H36.1571" stroke="currentColor" stroke-miterlimit="10" stroke-linecap="round" stroke-linejoin="round" vector-effect="non-scaling-stroke"/>
</svg>