<svg width="18" height="18" viewBox="0 0 18 18" fill="currentColor" xmlns="http://www.w3.org/2000/svg">
<path d="M14.7143 1H3.28571C2.02335 1 1 2.02335 1 3.28571V14.7143C1 15.9767 2.02335 17 3.28571 17H14.7143C15.9767 17 17 15.9767 17 14.7143V3.28571C17 2.02335 15.9767 1 14.7143 1Z" fill="currentColor"/>
<path d="M7.28561 7.28571L4.42847 10.1428L7.28561 13M4.42847 10.1451H10.1428C11.0521 10.1451 11.9241 9.78392 12.5671 9.14094C13.2101 8.49796 13.5713 7.62589 13.5713 6.71657V5M3.28571 1H14.7143C15.9767 1 17 2.02335 17 3.28571V14.7143C17 15.9767 15.9767 17 14.7143 17H3.28571C2.02335 17 1 15.9767 1 14.7143V3.28571C1 2.02335 2.02335 1 3.28571 1Z" stroke="currentColor" stroke-linecap="round" stroke-linejoin="round" vector-effect="non-scaling-stroke"/>
</svg>
