<svg width="20" height="18" viewBox="0 0 20 18" fill="currentColor" xmlns="http://www.w3.org/2000/svg">
<path d="M18.1772 10.4416C16.2384 12.5752 13.0969 14.7527 9.99915 14.7006L7 13.9999L3.78731 12.2534C3.08218 11.7059 2.425 11.0992 1.82289 10.4401C1.61503 10.2093 1.5 9.90975 1.5 9.59917C1.5 9.28859 1.61503 8.98902 1.82289 8.75825C3.80317 6.58002 6.95303 4.45014 9.99863 4.50076L13.5 5.49988L15.8546 6.6767C16.6967 7.29137 17.4748 7.98924 18.1772 8.75973C18.385 8.9905 18.5 9.29007 18.5 9.60065C18.5 9.91123 18.385 10.2108 18.1772 10.4416Z" fill="currentColor"/>
<path d="M3.03472 15.7997L17.2012 2.19995M7.70527 14.3272C8.44783 14.5578 9.22158 14.6722 9.9991 14.6664C13.0968 14.7185 16.2384 12.5411 18.1771 10.4074C18.385 10.1766 18.5 9.87706 18.5 9.56648C18.5 9.2559 18.385 8.95632 18.1771 8.72556C17.4748 7.95506 16.6967 7.2572 15.8546 6.64252M11.8218 4.67967C11.2256 4.53132 10.6129 4.45972 9.99863 4.46661C6.95303 4.41599 3.80317 6.54587 1.82289 8.7241C1.61503 8.95487 1.5 9.25444 1.5 9.56502C1.5 9.8756 1.61503 10.1752 1.82289 10.4059C2.425 11.0651 3.08218 11.6717 3.78731 12.2192M7.16572 9.5665C7.16562 9.1944 7.23884 8.82593 7.38119 8.48213C7.52354 8.13834 7.73224 7.82596 7.99535 7.56284C8.25847 7.29973 8.57085 7.09103 8.91464 6.94868C9.25844 6.80633 9.62691 6.73311 9.99901 6.73321M12.8323 9.56577C12.8324 9.93791 12.7592 10.3064 12.6169 10.6503C12.4745 10.9941 12.2659 11.3065 12.0027 11.5697C11.7396 11.8329 11.4273 12.0416 11.0835 12.1841C10.7397 12.3265 10.3712 12.3998 9.99904 12.3998" stroke="currentColor" stroke-linecap="round" stroke-linejoin="round" vector-effect="non-scaling-stroke"/>
</svg>
