<svg width="20" height="18" viewBox="0 0 20 18" fill="currentColor" xmlns="http://www.w3.org/2000/svg">
<path d="M9.99887 3.90094C6.95318 3.84956 3.80324 5.97798 1.8229 8.15779C1.61503 8.38856 1.5 8.68814 1.5 8.99873C1.5 9.30932 1.61503 9.6089 1.8229 9.83968C3.76017 11.9734 6.90105 14.1509 9.99887 14.0988C13.0967 14.1509 16.2383 11.9734 18.1771 9.83968C18.385 9.6089 18.5 9.30932 18.5 8.99873C18.5 8.68814 18.385 8.38856 18.1771 8.15779C16.1945 5.97798 13.0445 3.84956 9.99887 3.90094Z" fill="currentColor"/>
<path d="M9.99887 3.90094C6.95318 3.84956 3.80324 5.97798 1.8229 8.15779C1.61503 8.38856 1.5 8.68814 1.5 8.99873C1.5 9.30932 1.61503 9.6089 1.8229 9.83968C3.76017 11.9734 6.90105 14.1509 9.99887 14.0988C13.0967 14.1509 16.2383 11.9734 18.1771 9.83968C18.385 9.6089 18.5 9.30932 18.5 8.99873C18.5 8.68814 18.385 8.38856 18.1771 8.15779C16.1945 5.97798 13.0445 3.84956 9.99887 3.90094Z" stroke="currentColor" stroke-linecap="round" stroke-linejoin="round" vector-effect="non-scaling-stroke"/>
<path d="M12.8323 9.00023C12.8321 9.56059 12.6658 10.1083 12.3544 10.5742C12.043 11.04 11.6004 11.403 11.0827 11.6174C10.5649 11.8317 9.99524 11.8877 9.44567 11.7783C8.8961 11.6689 8.39131 11.399 7.99514 11.0027C7.59896 10.6064 7.32918 10.1016 7.21992 9.55196C7.11065 9.00236 7.1668 8.4327 7.38128 7.91502C7.59575 7.39733 7.95891 6.95486 8.42484 6.64356C8.89077 6.33226 9.43854 6.16611 9.9989 6.16611C10.3711 6.16601 10.7396 6.23925 11.0835 6.38165C11.4273 6.52406 11.7397 6.73283 12.0029 6.99603C12.266 7.25923 12.4747 7.57171 12.617 7.9156C12.7593 8.25949 12.8325 8.62806 12.8323 9.00023Z" stroke="currentColor" stroke-linecap="round" stroke-linejoin="round" vector-effect="non-scaling-stroke"/>
</svg>
