<svg width="18" height="18" viewBox="0 0 18 18" fill="currentColor" xmlns="http://www.w3.org/2000/svg">
<path d="M12.7349 17C15.0905 17 17.0001 15.0897 17.0001 12.7332C17.0001 10.3767 15.0905 8.46643 12.7349 8.46643C10.3793 8.46643 8.46973 10.3767 8.46973 12.7332C8.46973 15.0897 10.3793 17 12.7349 17Z" fill="currentColor"/>
<path d="M6.31228 12.1999L2.18145 7.88686C1.58283 7.28814 1.18772 6.51616 1.0521 5.6803C0.916478 4.84443 1.04722 3.98707 1.4258 3.22967C1.71156 2.65794 2.12906 2.16234 2.64388 1.78372C3.1587 1.4051 3.7561 1.1543 4.38684 1.05199C5.01758 0.949691 5.66359 0.998814 6.27163 1.19531C6.87966 1.39181 7.43231 1.73006 7.88401 2.18218L9.00006 3.2951L10.1133 2.18218C10.565 1.73006 11.1176 1.39181 11.7257 1.19531C12.3337 0.998814 12.9797 0.949691 13.6104 1.05199C14.2412 1.1543 14.8386 1.4051 15.3534 1.78372C15.8682 2.16234 16.2857 2.65794 16.5715 3.22967C16.8534 3.79484 16.9989 4.41834 16.996 5.04998C16.9932 5.68162 16.8422 6.30378 16.5551 6.86639M12.7348 10.5998V14.8666M10.6025 12.7332H14.8677M17.0001 12.7332C17.0001 15.0897 15.0905 17 12.7349 17C10.3793 17 8.46973 15.0897 8.46973 12.7332C8.46973 10.3768 10.3793 8.46646 12.7349 8.46646C15.0905 8.46646 17.0001 10.3768 17.0001 12.7332Z" stroke="currentColor" stroke-linecap="round" stroke-linejoin="round" vector-effect="non-scaling-stroke"/>
</svg>
