<svg width="18" height="18" viewBox="0 0 18 18" fill="currentColor" xmlns="http://www.w3.org/2000/svg">
<g clip-path="url(#clip0)">
<path d="M1.69995 16.2999H14.9053C14.9053 15.6632 14.6523 15.0526 14.2021 14.6024C13.7518 14.1523 13.1411 13.8993 12.5043 13.8993H9.5031C9.5031 13.2627 9.25015 12.6521 8.79988 12.2019C8.34961 11.7517 7.73891 11.4988 7.10213 11.4988H1.69995" fill="currentColor"/>
<path d="M1.69995 16.2999H14.9053C14.9053 15.6632 14.6523 15.0526 14.2021 14.6024C13.7518 14.1522 13.1411 13.8993 12.5043 13.8993H9.5031M9.5031 13.8993C9.5031 13.2626 9.25015 12.652 8.79988 12.2018C8.34961 11.7516 7.73891 11.4987 7.10213 11.4987H1.69995M9.5031 13.8993L6.50142 13.8993M1.69995 10.2984V17.5M7.59995 9.19857L15.4 1.3999M14.2 9.19857C14.8627 9.19857 15.4 8.6614 15.4 7.99877C15.4 7.33614 14.8627 6.79898 14.2 6.79898C13.5372 6.79898 13 7.33614 13 7.99877C13 8.6614 13.5372 9.19857 14.2 9.19857ZM9.99995 2.5997C9.99995 3.26233 9.46269 3.79949 8.79995 3.79949C8.13721 3.79949 7.59995 3.26233 7.59995 2.5997C7.59995 1.93707 8.13721 1.3999 8.79995 1.3999C9.46269 1.3999 9.99995 1.93707 9.99995 2.5997Z" stroke="currentColor" stroke-linecap="round" stroke-linejoin="round" vector-effect="non-scaling-stroke"/>
</g>
<defs>
<clipPath id="clip0">
<path d="M0 0H18V18H0V0Z" fill="currentColor"/>
</clipPath>
</defs>
</svg>
