<svg width="18" height="20" viewBox="0 0 18 20" fill="currentColor" xmlns="http://www.w3.org/2000/svg">
<path d="M17 17.3667C17 17.6672 16.8796 17.9555 16.6653 18.1681C16.4509 18.3806 16.1602 18.5 15.8571 18.5H2.14286C1.83975 18.5 1.54906 18.3806 1.33474 18.1681C1.12041 17.9555 1 17.6672 1 17.3667V2.63333C1 2.33275 1.12041 2.04449 1.33474 1.83195C1.54906 1.6194 1.83975 1.5 2.14286 1.5H13.6057C13.904 1.49983 14.1906 1.61535 14.4042 1.82187L16.6549 4.00013C16.7641 4.10571 16.8509 4.2319 16.9102 4.37126C16.9694 4.51063 17 4.66035 17 4.8116V17.3667Z" fill="currentColor"/>
<path d="M4.46259 7.16669H13.6054M4.46259 10.5667H13.6054M4.46259 13.9667H9.03401M17 17.3667C17 17.6672 16.8796 17.9555 16.6653 18.1681C16.4509 18.3806 16.1602 18.5 15.8571 18.5H2.14286C1.83975 18.5 1.54906 18.3806 1.33474 18.1681C1.12041 17.9555 1 17.6672 1 17.3667V2.63333C1 2.33275 1.12041 2.04449 1.33474 1.83195C1.54906 1.6194 1.83975 1.5 2.14286 1.5H13.6057C13.904 1.49983 14.1906 1.61535 14.4042 1.82187L16.6549 4.00013C16.7641 4.10571 16.8509 4.2319 16.9102 4.37126C16.9694 4.51063 17 4.66035 17 4.8116V17.3667Z" stroke="currentColor" stroke-linecap="round" stroke-linejoin="round" vector-effect="non-scaling-stroke"/>
</svg>
