<svg width="18" height="18" viewBox="0 0 18 18" fill="currentColor" xmlns="http://www.w3.org/2000/svg">
<path d="M3.86559 5.86368H11.4321M3.86559 8.64546H9.27586M3.86559 11.4273H7.64884M10.9311 13.4361L11.59 14.3045C11.6258 14.3519 11.6725 14.3902 11.7262 14.4163C11.7799 14.4424 11.8391 14.4555 11.8989 14.4545C11.9588 14.4535 12.0175 14.4385 12.0703 14.4107C12.1231 14.3829 12.1685 14.3431 12.2026 14.2945L14.7931 10.6364M14.2414 6.54548V3.93679C14.2414 3.81303 14.2161 3.69053 14.167 3.57651C14.118 3.46248 14.0461 3.35924 13.9557 3.27286L12.0931 1.49064C11.9164 1.32167 11.6792 1.22716 11.4323 1.2273H1.94581C1.69497 1.2273 1.4544 1.32499 1.27702 1.49889C1.09965 1.67278 1 1.90864 1 2.15457V14.2091C1 14.455 1.09965 14.6909 1.27702 14.8648C1.4544 15.0387 1.69497 15.1364 1.94581 15.1364H7.2069M17 12.2727C17 14.6827 15.0239 16.6364 12.5862 16.6364C10.1485 16.6364 8.17241 14.6827 8.17241 12.2727C8.17241 9.86278 10.1485 7.90911 12.5862 7.90911C15.0239 7.90911 17 9.86278 17 12.2727Z" stroke="currentColor" stroke-linecap="round" stroke-linejoin="round" vector-effect="non-scaling-stroke"/>
</svg>
