<svg width="18" height="18" viewBox="0 0 18 18" fill="currentColor" xmlns="http://www.w3.org/2000/svg">
<path d="M15.9333 1H2.06667C1.47756 1 1 1.47756 1 2.06667V15.9333C1 16.5224 1.47756 17 2.06667 17H15.9333C16.5224 17 17 16.5224 17 15.9333V2.06667C17 1.47756 16.5224 1 15.9333 1Z" fill="currentColor"/>
<path d="M9.53333 11.6667H13.8M9.53333 11.6667C9.53333 11.9831 9.43951 12.2924 9.26373 12.5555C9.08796 12.8186 8.83811 13.0237 8.54579 13.1448C8.25347 13.2659 7.9318 13.2977 7.62145 13.236C7.3111 13.1743 7.02601 13.022 6.80221 12.7983C6.57842 12.5746 6.42598 12.2896 6.36416 11.9792C6.30235 11.6689 6.33393 11.3472 6.45492 11.0549C6.57591 10.7625 6.78088 10.5126 7.0439 10.3367C7.30693 10.1608 7.6162 10.0668 7.93262 10.0667C8.1428 10.0666 8.35093 10.1079 8.54514 10.1883C8.73934 10.2686 8.91581 10.3865 9.06445 10.535C9.2131 10.6836 9.33102 10.86 9.41147 11.0542C9.49193 11.2484 9.53333 11.4565 9.53333 11.6667ZM4.2 11.6667H6.33333M10.6 6.33333H4.2M2.06667 1H15.9333C16.5224 1 17 1.47756 17 2.06667V15.9333C17 16.5224 16.5224 17 15.9333 17H2.06667C1.47756 17 1 16.5224 1 15.9333V2.06667C1 1.47756 1.47756 1 2.06667 1ZM13.8 6.33333C13.8 6.01691 13.7062 5.7076 13.5304 5.4445C13.3546 5.18139 13.1048 4.97632 12.8125 4.85519C12.5201 4.73407 12.1985 4.70235 11.8881 4.76403C11.5778 4.8257 11.2927 4.97802 11.0689 5.20171C10.8451 5.4254 10.6926 5.71043 10.6308 6.02075C10.569 6.33108 10.6006 6.65276 10.7216 6.94513C10.8426 7.23751 11.0475 7.48744 11.3106 7.66334C11.5736 7.83923 11.8829 7.93319 12.1993 7.93333C12.6237 7.93333 13.0307 7.76479 13.3309 7.46475C13.6311 7.16471 13.7998 6.75775 13.8 6.33333Z" stroke="currentColor" stroke-linecap="round" stroke-linejoin="round" vector-effect="non-scaling-stroke"/>
</svg>
