<svg width="18" height="18" viewBox="0 0 18 18" fill="currentColor" xmlns="http://www.w3.org/2000/svg">
<path d="M13.2178 17H4.78261L3.68607 12.0443C3.66194 11.9368 3.65997 11.8256 3.68026 11.7174C3.70056 11.6092 3.7427 11.5063 3.80412 11.4149C3.85983 11.3294 3.9356 11.2588 4.02483 11.2092C4.11406 11.1596 4.21406 11.1326 4.31612 11.1305H13.6843C13.7864 11.1326 13.8863 11.1596 13.9756 11.2092C14.0648 11.2588 14.1406 11.3294 14.1963 11.4149C14.2577 11.5063 14.2999 11.6092 14.3201 11.7174C14.3404 11.8256 14.3385 11.9368 14.3143 12.0443L13.2178 17Z" fill="currentColor"/>
<path d="M1 17H17M6.47248 2.44428C6.9268 2.91531 7.4714 3.28995 8.07375 3.54579C8.67609 3.80164 9.32383 3.93345 9.97826 3.93335C10.6417 3.93381 11.2981 3.79878 11.9075 3.53655M12.5556 9.53335C12.1101 9.02985 11.5628 8.6267 10.9498 8.35059C10.3369 8.07448 9.67228 7.9317 9.00001 7.9317C8.32774 7.9317 7.66313 8.07448 7.05018 8.35059C6.43723 8.6267 5.88991 9.02985 5.44445 9.53335M13.2178 17H4.78261L3.68607 12.0443C3.66194 11.9368 3.65997 11.8256 3.68026 11.7174C3.70056 11.6092 3.7427 11.5063 3.80412 11.4149C3.85983 11.3294 3.9356 11.2588 4.02483 11.2092C4.11406 11.1596 4.21406 11.1326 4.31612 11.1305H13.6843C13.7864 11.1326 13.8863 11.1596 13.9756 11.2092C14.0648 11.2588 14.1406 11.3294 14.1963 11.4149C14.2577 11.5063 14.2999 11.6092 14.3201 11.7174C14.3404 11.8256 14.3385 11.9368 14.3143 12.0443L13.2178 17ZM9.00003 14.8667C9.58913 14.8667 10.0667 14.3891 10.0667 13.8C10.0667 13.2109 9.58913 12.7334 9.00003 12.7334C8.41093 12.7334 7.93336 13.2109 7.93336 13.8C7.93336 14.3891 8.41093 14.8667 9.00003 14.8667ZM11.9334 3.93333C11.9334 5.55337 10.6201 6.86667 9.00003 6.86667C7.37999 6.86667 6.06669 5.55337 6.06669 3.93333C6.06669 2.3133 7.37999 1 9.00003 1C10.6201 1 11.9334 2.3133 11.9334 3.93333Z" stroke="currentColor" stroke-linecap="round" stroke-linejoin="round" vector-effect="non-scaling-stroke"/>
</svg>
