<svg width="18" height="18" viewBox="0 0 18 18" fill="currentColor" xmlns="http://www.w3.org/2000/svg">
<path d="M12.7333 4.19995H5.26662C4.67751 4.19995 4.19995 4.67751 4.19995 5.26662V12.7333C4.19995 13.3224 4.67751 13.8 5.26662 13.8H12.7333C13.3224 13.8 13.8 13.3224 13.8 12.7333V5.26662C13.8 4.67751 13.3224 4.19995 12.7333 4.19995Z" fill="currentColor"/>
<path d="M1 6.33333V2.06667C1 1.78377 1.11238 1.51246 1.31242 1.31242C1.51246 1.11238 1.78377 1 2.06667 1H6.33333M17.0002 6.33333V2.06667C17.0002 1.78377 16.8878 1.51246 16.6877 1.31242C16.4877 1.11238 16.2164 1 15.9335 1H11.6668M1 11.6667V15.9333C1 16.2162 1.11238 16.4875 1.31242 16.6876C1.51246 16.8876 1.78377 17 2.06667 17H6.33333M17.0002 11.6667V15.9333C17.0002 16.2162 16.8878 16.4875 16.6877 16.6876C16.4877 16.8876 16.2164 17 15.9335 17H11.6668M5.26656 4.20001H12.7332C13.3223 4.20001 13.7999 4.67757 13.7999 5.26668V12.7333C13.7999 13.3224 13.3223 13.8 12.7332 13.8H5.26656C4.67745 13.8 4.19989 13.3224 4.19989 12.7333V5.26668C4.19989 4.67757 4.67745 4.20001 5.26656 4.20001Z" stroke="currentColor" stroke-linecap="round" stroke-linejoin="round" vector-effect="non-scaling-stroke"/>
</svg>
