<svg width="18" height="18" viewBox="0 0 18 18" fill="currentColor" xmlns="http://www.w3.org/2000/svg">
<path d="M13.4735 10.8453C13.2241 11.7365 12.6648 12.5171 11.8898 13.0553C11.1149 13.5936 10.1718 13.8566 9.21976 13.8C8.42236 13.8 7.6368 13.6132 6.93029 13.2553C6.22377 12.8974 5.61733 12.3792 5.16283 11.745C4.70833 11.1108 4.41929 10.3795 4.32045 9.61363C4.22161 8.84774 4.31591 8.07008 4.59527 7.34715C4.87463 6.62423 5.33075 5.97756 5.92461 5.46246C6.51846 4.94737 7.23238 4.57917 8.0053 4.38937C8.77822 4.19957 9.58713 4.19382 10.3629 4.3726C11.1386 4.55138 11.858 4.90938 12.4596 5.41597L14.884 3.13331C13.8963 2.24699 12.6998 1.60774 11.3986 1.27118C10.0974 0.934627 8.73098 0.910969 7.41819 1.20227C6.1054 1.49356 4.88605 2.09099 3.86624 2.94255C2.84644 3.79411 2.05709 4.87401 1.56688 6.08826C1.07667 7.30252 0.900466 8.61433 1.05359 9.90954C1.20672 11.2048 1.68454 12.4441 2.44547 13.5198C3.20641 14.5955 4.22739 15.4748 5.41958 16.0814C6.61177 16.6879 7.93904 17.0033 9.28588 17C14.3661 17 16.9998 13.128 16.9998 8.99997C17.0022 8.64339 16.9801 8.28705 16.9337 7.93331H9.60546V10.8026H13.4735" fill="currentColor"/>
<path d="M13.4735 10.8453C13.2241 11.7365 12.6648 12.5171 11.8898 13.0553C11.1149 13.5936 10.1718 13.8566 9.21976 13.8C8.42236 13.8 7.6368 13.6132 6.93029 13.2553C6.22377 12.8974 5.61733 12.3792 5.16283 11.745C4.70833 11.1108 4.41929 10.3795 4.32045 9.61363C4.22161 8.84774 4.31591 8.07008 4.59527 7.34715C4.87463 6.62423 5.33075 5.97756 5.92461 5.46246C6.51846 4.94737 7.23238 4.57917 8.0053 4.38937C8.77822 4.19957 9.58713 4.19382 10.3629 4.3726C11.1386 4.55138 11.858 4.90938 12.4596 5.41597L14.884 3.13331C13.8963 2.24699 12.6998 1.60774 11.3986 1.27118C10.0974 0.934627 8.73098 0.910969 7.41819 1.20227C6.1054 1.49356 4.88605 2.09099 3.86624 2.94255C2.84644 3.79411 2.05709 4.87401 1.56688 6.08826C1.07667 7.30252 0.900466 8.61433 1.05359 9.90955C1.20672 11.2048 1.68454 12.4441 2.44547 13.5198C3.20641 14.5955 4.22739 15.4748 5.41958 16.0814C6.61177 16.6879 7.93904 17.0033 9.28588 17C14.3661 17 16.9998 13.128 16.9998 8.99997C17.0022 8.64339 16.9801 8.28705 16.9337 7.93331H9.60546V10.8026H13.4735" stroke="currentColor" stroke-linecap="round" stroke-linejoin="round" vector-effect="non-scaling-stroke"/>
</svg>
