<svg width="18" height="18" viewBox="0 0 18 18" fill="currentColor" xmlns="http://www.w3.org/2000/svg">
<path d="M6.333 1H2.067C1.477 1 1 1.478 1 2.067V6.333C1 6.923 1.478 7.4 2.067 7.4H6.333C6.923 7.4 7.4 6.922 7.4 6.333V2.067C7.4 1.477 6.922 1 6.333 1ZM6.333 10.6H2.067C1.477 10.6 1 11.078 1 11.667V15.933C1 16.523 1.478 17 2.067 17H6.333C6.923 17 7.4 16.523 7.4 15.933V11.667C7.4 11.077 6.922 10.6 6.333 10.6ZM15.933 1H11.666C11.077 1 10.6 1.478 10.6 2.067V6.333C10.6 6.923 11.077 7.4 11.666 7.4H15.933C16.523 7.4 17 6.922 17 6.333V2.067C17 1.477 16.522 1 15.933 1ZM15.933 10.6H11.666C11.077 10.6 10.6 11.078 10.6 11.667V15.933C10.6 16.523 11.077 17 11.666 17H15.933C16.523 17 17 16.523 17 15.933V11.667C17 11.077 16.522 10.6 15.933 10.6Z" fill="currentColor"/>
<path d="M6.333 1H2.067C1.477 1 1 1.478 1 2.067V6.333C1 6.923 1.478 7.4 2.067 7.4H6.333C6.923 7.4 7.4 6.922 7.4 6.333V2.067C7.4 1.477 6.922 1 6.333 1ZM6.333 10.6H2.067C1.477 10.6 1 11.078 1 11.667V15.933C1 16.523 1.478 17 2.067 17H6.333C6.923 17 7.4 16.523 7.4 15.933V11.667C7.4 11.077 6.922 10.6 6.333 10.6ZM15.933 1H11.666C11.077 1 10.6 1.478 10.6 2.067V6.333C10.6 6.923 11.077 7.4 11.666 7.4H15.933C16.523 7.4 17 6.922 17 6.333V2.067C17 1.477 16.522 1 15.933 1ZM15.933 10.6H11.666C11.077 10.6 10.6 11.078 10.6 11.667V15.933C10.6 16.523 11.077 17 11.666 17H15.933C16.523 17 17 16.523 17 15.933V11.667C17 11.077 16.522 10.6 15.933 10.6Z" stroke="currentColor" stroke-linecap="round" stroke-linejoin="round" vector-effect="non-scaling-stroke"/>
</svg>
