<svg width="18" height="20" viewBox="0 0 18 20" fill="currentColor" xmlns="http://www.w3.org/2000/svg">
<path d="M8.99996 4.90015L2.43006 10.4658C2.25931 10.623 2.1564 10.8396 2.14282 11.0703V17.761C2.14343 17.9568 2.22212 18.1444 2.36174 18.2829C2.50135 18.4214 2.69053 18.4994 2.88797 18.5H7.28568V13.2033C7.28588 13.1053 7.32517 13.0114 7.39498 12.942C7.46478 12.8726 7.55943 12.8335 7.65825 12.8331H10.3417C10.4405 12.8335 10.5351 12.8726 10.605 12.942C10.6748 13.0114 10.714 13.1053 10.7143 13.2033V18.5H15.112C15.3093 18.4994 15.4983 18.4215 15.6379 18.2832C15.7775 18.1449 15.8563 17.9575 15.8571 17.7618V11.071C15.8435 10.8404 15.7406 10.6238 15.5699 10.4666L8.99996 4.90015Z" fill="currentColor"/>
<path d="M1 8.3003L9 1.5L17 8.3003M8.99992 4.90015L2.43001 10.4658C2.25926 10.623 2.15635 10.8396 2.14277 11.0703V17.761C2.14338 17.9568 2.22208 18.1444 2.36169 18.2829C2.5013 18.4214 2.69048 18.4994 2.88792 18.5H7.28563V13.2033C7.28583 13.1053 7.32512 13.0114 7.39493 12.942C7.46474 12.8726 7.55938 12.8335 7.6582 12.8331H10.3416C10.4404 12.8335 10.5351 12.8726 10.6049 12.942C10.6747 13.0114 10.714 13.1053 10.7142 13.2033V18.5H15.1119C15.3092 18.4994 15.4983 18.4215 15.6379 18.2832C15.7775 18.1449 15.8563 17.9575 15.8571 17.7618V11.071C15.8435 10.8404 15.7406 10.6238 15.5698 10.4666L8.99992 4.90015Z" stroke="currentColor" stroke-linecap="round" stroke-linejoin="round" vector-effect="non-scaling-stroke"/>
</svg>
