<svg width="20" height="18" viewBox="0 0 20 18" fill="currentColor" xmlns="http://www.w3.org/2000/svg">
<path d="M4.9 9.00005C4.9 8.06115 4.1389 7.30005 3.2 7.30005C2.2611 7.30005 1.5 8.06115 1.5 9.00005C1.5 9.93895 2.2611 10.7 3.2 10.7C4.1389 10.7 4.9 9.93895 4.9 9.00005ZM11.6998 9.00005C11.6998 8.06115 10.9387 7.30005 9.9998 7.30005C9.0609 7.30005 8.2998 8.06115 8.2998 9.00005C8.2998 9.93895 9.0609 10.7 9.9998 10.7C10.9387 10.7 11.6998 9.93895 11.6998 9.00005ZM18.5001 9.00005C18.5001 8.06115 17.739 7.30005 16.8001 7.30005C15.8612 7.30005 15.1001 8.06115 15.1001 9.00005C15.1001 9.93895 15.8612 10.7 16.8001 10.7C17.739 10.7 18.5001 9.93895 18.5001 9.00005Z" fill="currentColor"/>
<path d="M4.9 9.00005C4.9 8.06115 4.1389 7.30005 3.2 7.30005C2.2611 7.30005 1.5 8.06115 1.5 9.00005C1.5 9.93895 2.2611 10.7 3.2 10.7C4.1389 10.7 4.9 9.93895 4.9 9.00005ZM11.6998 9.00005C11.6998 8.06115 10.9387 7.30005 9.9998 7.30005C9.0609 7.30005 8.2998 8.06115 8.2998 9.00005C8.2998 9.93895 9.0609 10.7 9.9998 10.7C10.9387 10.7 11.6998 9.93895 11.6998 9.00005ZM18.5001 9.00005C18.5001 8.06115 17.739 7.30005 16.8001 7.30005C15.8612 7.30005 15.1001 8.06115 15.1001 9.00005C15.1001 9.93895 15.8612 10.7 16.8001 10.7C17.739 10.7 18.5001 9.93895 18.5001 9.00005Z" stroke="currentColor" stroke-linecap="round" stroke-linejoin="round" vector-effect="non-scaling-stroke"/>
</svg>
