<svg width="18" height="18" viewBox="0 0 18 18" fill="currentColor" xmlns="http://www.w3.org/2000/svg">
<path d="M1.14128 2.70222C1.02556 2.48915 0.979099 2.24357 1.00868 2.00139C1.03827 1.7592 1.14234 1.5331 1.3057 1.35613C1.46906 1.17916 1.68315 1.06059 1.91666 1.01775C2.15017 0.974921 2.39088 1.01007 2.6036 1.11805L16.6961 8.48516C16.7876 8.53302 16.8643 8.60599 16.918 8.69598C16.9716 8.78597 17 8.88948 17 8.99504C17 9.10061 16.9716 9.20412 16.918 9.29411C16.8643 9.3841 16.7876 9.45706 16.6961 9.50492L2.6036 16.8819C2.39088 16.9899 2.15017 17.0251 1.91666 16.9822C1.68315 16.9394 1.46906 16.8208 1.3057 16.6439C1.14234 16.4669 1.03827 16.2408 1.00868 15.9986C0.979099 15.7564 1.02556 15.5109 1.14128 15.2978L4.89009 8.99466L1.14128 2.70222Z" fill="currentColor"/>
<path d="M17 8.99504C17 8.88948 16.9716 8.78597 16.918 8.69598C16.8643 8.60599 16.7876 8.53302 16.6961 8.48516L2.6036 1.11805C2.39088 1.01007 2.15017 0.974921 1.91666 1.01775C1.68315 1.06059 1.46906 1.17916 1.3057 1.35613C1.14234 1.5331 1.03827 1.7592 1.00868 2.00139C0.979099 2.24357 1.02556 2.48915 1.14128 2.70222L4.89009 8.99466L1.14128 15.2978C1.02556 15.5109 0.979099 15.7564 1.00868 15.9986C1.03827 16.2408 1.14234 16.4669 1.3057 16.6439C1.46906 16.8208 1.68315 16.9394 1.91666 16.9822C2.15017 17.0251 2.39088 16.9899 2.6036 16.8819L16.6961 9.50492C16.7876 9.45706 16.8643 9.3841 16.918 9.29411C16.9716 9.20412 17 9.10061 17 8.99504ZM17 8.99504L4.88623 8.99464" stroke="currentColor" stroke-linecap="round" stroke-linejoin="round" vector-effect="non-scaling-stroke"/>
</svg>
