<svg width="20" height="18" viewBox="0 0 20 18" fill="currentColor" xmlns="http://www.w3.org/2000/svg">
<path d="M17.6903 9.47058H7.97603C7.52894 9.47058 7.1665 9.80768 7.1665 10.2235V16.2471C7.1665 16.6629 7.52894 17 7.97603 17H17.6903C18.1374 17 18.4998 16.6629 18.4998 16.2471V10.2235C18.4998 9.80768 18.1374 9.47058 17.6903 9.47058Z" fill="currentColor"/>
<path d="M6.69443 14.0317H2.37179C2.14058 14.0317 1.91884 13.9401 1.75534 13.7772C1.59185 13.6143 1.5 13.3933 1.5 13.1629V1.86878C1.5 1.63836 1.59185 1.41739 1.75534 1.25446C1.91884 1.09153 2.14058 1 2.37179 1H8.54932C8.78037 1.00005 9.00195 1.0915 9.16538 1.25426L12.5782 4.65524C12.7415 4.8181 12.8333 5.03892 12.8333 5.26918V9M12.8333 5.34389H9.34615C9.11493 5.34389 8.89319 5.25236 8.7297 5.08943C8.5662 4.9265 8.47436 4.70553 8.47436 4.47511V1M3.79544 7.2807C3.92131 7.44544 4.08517 7.57753 4.27315 7.66575C4.46113 7.75397 4.66768 7.79572 4.8753 7.78749C5.53728 7.78749 6.0743 7.38611 6.0743 6.89149C6.0743 6.39686 5.53902 5.99607 4.87762 5.99607C4.21622 5.99607 3.6792 5.59469 3.6792 5.09949C3.6792 4.60428 4.21622 4.20349 4.87762 4.20349M4.87762 4.20349C5.08526 4.1951 5.29186 4.23679 5.47986 4.32503C5.66787 4.41326 5.83172 4.54542 5.95748 4.71027M4.87762 4.20349L4.87793 3.60634M4.87793 7.78747V8.38398M18 10L13.9925 13.6052C13.708 13.8612 13.359 14 13 14C12.641 14 12.292 13.8612 12.0075 13.6052L8 10M7.97603 9.47059H17.6903C18.1374 9.47059 18.4998 9.80769 18.4998 10.2235V16.2471C18.4998 16.6629 18.1374 17 17.6903 17H7.97603C7.52894 17 7.1665 16.6629 7.1665 16.2471V10.2235C7.1665 9.80769 7.52894 9.47059 7.97603 9.47059Z" stroke="currentColor" stroke-linecap="round" stroke-linejoin="round" vector-effect="non-scaling-stroke"/>
</svg>
