<svg width="20" height="18" viewBox="0 0 20 18" fill="currentColor" xmlns="http://www.w3.org/2000/svg">
<path d="M14.9393 8.70077L13.2006 6.9729L14.8202 5.36123L16.5589 7.09062C16.7749 7.29814 17.0642 7.41298 17.3646 7.41038C17.6649 7.40778 17.9522 7.28797 18.1645 7.07674C18.3769 6.86551 18.4973 6.57977 18.5 6.28106C18.5026 5.98235 18.3871 5.69457 18.1785 5.47971L16.4405 3.74955L17.2499 2.94752C17.4652 2.734 17.5864 2.44416 17.5868 2.14177C17.5873 1.83938 17.4669 1.54921 17.2522 1.33509C17.0376 1.12096 16.7462 1.00043 16.4421 1C16.1381 0.999574 15.8464 1.11929 15.6311 1.33281L7.41327 9.50585C6.56625 9.05069 5.58281 8.91399 4.64279 9.12072C3.70276 9.32746 2.86895 9.86383 2.29382 10.6318C1.71869 11.3997 1.44067 12.3479 1.51059 13.3029C1.58051 14.2579 1.99371 15.156 2.67463 15.833C3.35554 16.5099 4.25868 16.9205 5.2189 16.9896C6.17913 17.0587 7.13227 16.7817 7.90407 16.2093C8.67586 15.6369 9.21472 14.8073 9.42213 13.8722C9.62954 12.9371 9.49164 11.959 9.03363 11.1168L11.584 8.58305L13.3197 10.3147C13.4261 10.4205 13.5524 10.5044 13.6914 10.5616C13.8304 10.6188 13.9793 10.6483 14.1298 10.6482C14.2802 10.6482 14.4291 10.6187 14.5681 10.5614C14.7071 10.5041 14.8333 10.4202 14.9397 10.3143C15.046 10.2085 15.1304 10.0829 15.1879 9.94465C15.2454 9.8064 15.275 9.65824 15.275 9.50862C15.275 9.35899 15.2453 9.21085 15.1877 9.07263C15.1301 8.93441 15.0457 8.80882 14.9393 8.70305V8.70077Z" fill="currentColor"/>
<path d="M14.9393 8.70077L13.2006 6.9729L14.8202 5.36123L16.5589 7.09062C16.7749 7.29814 17.0642 7.41298 17.3646 7.41038C17.6649 7.40778 17.9522 7.28797 18.1645 7.07674C18.3769 6.86551 18.4973 6.57977 18.5 6.28106C18.5026 5.98235 18.3871 5.69457 18.1785 5.47971L16.4405 3.74955L17.2499 2.94752C17.4652 2.734 17.5864 2.44416 17.5868 2.14177C17.5873 1.83938 17.4669 1.54921 17.2522 1.33509C17.0376 1.12096 16.7462 1.00043 16.4421 1C16.1381 0.999574 15.8464 1.11929 15.6311 1.33281L7.41327 9.50585C6.56625 9.05069 5.58281 8.91399 4.64279 9.12072C3.70276 9.32746 2.86895 9.86383 2.29382 10.6318C1.71869 11.3997 1.44067 12.3479 1.51059 13.3029C1.58051 14.2579 1.99371 15.156 2.67463 15.833C3.35554 16.5099 4.25868 16.9205 5.2189 16.9896C6.17913 17.0587 7.13227 16.7817 7.90407 16.2093C8.67586 15.6369 9.21472 14.8073 9.42213 13.8722C9.62954 12.9371 9.49163 11.959 9.03363 11.1168L11.584 8.58305L13.3197 10.3147C13.4261 10.4205 13.5524 10.5044 13.6914 10.5616C13.8304 10.6188 13.9793 10.6483 14.1298 10.6482C14.2802 10.6482 14.4291 10.6187 14.5681 10.5614C14.7071 10.5041 14.8333 10.4202 14.9397 10.3143C15.046 10.2085 15.1304 10.0829 15.1879 9.94465C15.2454 9.8064 15.275 9.65824 15.275 9.50862C15.275 9.359 15.2453 9.21085 15.1877 9.07263C15.1301 8.93441 15.0457 8.80882 14.9393 8.70305V8.70077Z" stroke="currentColor" stroke-linecap="round" stroke-linejoin="round" vector-effect="non-scaling-stroke"/>
<path d="M5.51524 14.4297C6.30597 14.4297 6.94699 13.7922 6.94699 13.0057C6.94699 12.2192 6.30597 11.5816 5.51524 11.5816C4.72451 11.5816 4.0835 12.2192 4.0835 13.0057C4.0835 13.7922 4.72451 14.4297 5.51524 14.4297Z" stroke="currentColor" stroke-linecap="round" stroke-linejoin="round" vector-effect="non-scaling-stroke"/>
</svg>
