<svg width="20" height="18" viewBox="0 0 20 18" fill="currentColor" xmlns="http://www.w3.org/2000/svg">
<path d="M5.20813 17H1.53776V6.51153H5.20813V17ZM12.8283 9.92988C12.3997 9.92988 11.9886 10.0996 11.6855 10.4018C11.3824 10.704 11.2121 11.1138 11.2121 11.5412V17H7.35295V6.51153H11.2121V7.70871C12.1167 6.94526 13.2594 6.51935 14.4445 6.504C16.8385 6.504 18.5 8.27341 18.5 11.6315V17H14.4445V11.5412C14.4455 11.3289 14.4044 11.1186 14.3236 10.9222C14.2428 10.7259 14.124 10.5474 13.9738 10.3969C13.8236 10.2465 13.6451 10.1272 13.4485 10.0457C13.252 9.96428 13.0412 9.92235 12.8283 9.92235V9.92988ZM5.2761 2.88235C5.2761 3.25465 5.16537 3.61858 4.95791 3.92813C4.75044 4.23768 4.45557 4.47895 4.11058 4.62142C3.76558 4.76389 3.38596 4.80117 3.01971 4.72854C2.65346 4.65591 2.31705 4.47663 2.053 4.21338C1.78895 3.95013 1.60913 3.61472 1.53628 3.24958C1.46343 2.88444 1.50082 2.50596 1.64372 2.16201C1.78662 1.81805 2.02862 1.52407 2.33911 1.31723C2.64959 1.1104 3.01463 1 3.38805 1C3.88617 1.00397 4.36253 1.20404 4.71335 1.55662C5.06417 1.9092 5.26101 2.38572 5.261 2.88235H5.2761Z" fill="currentColor"/>
<path d="M5.20813 17H1.53776V6.51153H5.20813V17ZM12.8283 9.92988C12.3997 9.92988 11.9886 10.0996 11.6855 10.4018C11.3824 10.704 11.2121 11.1138 11.2121 11.5412V17H7.35295V6.51153H11.2121V7.70871C12.1167 6.94526 13.2594 6.51935 14.4445 6.504C16.8385 6.504 18.5 8.27341 18.5 11.6315V17H14.4445V11.5412C14.4455 11.3289 14.4044 11.1186 14.3236 10.9222C14.2428 10.7259 14.124 10.5474 13.9738 10.3969C13.8236 10.2465 13.6451 10.1272 13.4485 10.0457C13.252 9.96428 13.0412 9.92235 12.8283 9.92235V9.92988ZM5.2761 2.88235C5.2761 3.25465 5.16537 3.61858 4.95791 3.92813C4.75044 4.23768 4.45557 4.47895 4.11058 4.62142C3.76558 4.76389 3.38596 4.80117 3.01971 4.72854C2.65346 4.65591 2.31705 4.47663 2.053 4.21338C1.78895 3.95013 1.60913 3.61472 1.53628 3.24958C1.46343 2.88444 1.50082 2.50596 1.64372 2.16201C1.78662 1.81805 2.02862 1.52407 2.33911 1.31723C2.64959 1.1104 3.01463 1 3.38805 1C3.88617 1.00397 4.36253 1.20404 4.71335 1.55662C5.06417 1.9092 5.26101 2.38572 5.261 2.88235H5.2761Z" stroke="currentColor" stroke-linecap="round" stroke-linejoin="round" vector-effect="non-scaling-stroke"/>
</svg>
