<svg width="18" height="18" viewBox="0 0 18 18" fill="currentColor" xmlns="http://www.w3.org/2000/svg">
    <path fill-rule="evenodd" clip-rule="evenodd" d="M14.8571 6.33321C14.8571 3.38776 12.4267 1 9.42857 1C6.43045 1 4 3.38776 4 6.33321C4 8.75591 7.67261 14.8308 8.97619 16.7614C9.01627 16.8208 9.06806 16.8717 9.12849 16.9111C9.37834 17.0739 9.71523 17.0069 9.88095 16.7614C11.1845 14.8308 14.8571 8.75591 14.8571 6.33321ZM12.1285 6.16661C12.1285 7.63933 10.9133 8.83321 9.41424 8.83321C7.91518 8.83321 6.69995 7.63933 6.69995 6.16661C6.69995 4.69388 7.91518 3.5 9.41424 3.5C10.9133 3.5 12.1285 4.69388 12.1285 6.16661Z" fill="currentColor"/>
    <path d="M9.42857 1C12.4267 1 14.8571 3.38776 14.8571 6.33321C14.8571 8.75591 11.1845 14.8308 9.88095 16.7614C9.71523 17.0069 9.37834 17.0739 9.12849 16.9111C9.06806 16.8717 9.01627 16.8208 8.97619 16.7614C7.67261 14.8308 4 8.75591 4 6.33321C4 3.38776 6.43045 1 9.42857 1Z" stroke="currentColor" stroke-linecap="round" stroke-linejoin="round" vector-effect="non-scaling-stroke"/>
    <path d="M9.4282 8.99981C10.9273 8.99981 12.1425 7.80593 12.1425 6.3332C12.1425 4.86048 10.9273 3.6666 9.4282 3.6666C7.92914 3.6666 6.71391 4.86048 6.71391 6.3332C6.71391 7.80593 7.92914 8.99981 9.4282 8.99981Z" stroke="currentColor" stroke-linecap="round" stroke-linejoin="round" vector-effect="non-scaling-stroke"/>
</svg>
