<svg width="20" height="18" viewBox="0 0 20 18" fill="currentColor" xmlns="http://www.w3.org/2000/svg">
<path d="M5.77618 3.80005C4.33287 3.80005 3.16284 4.9753 3.16284 6.42505C3.16284 7.60332 3.9357 8.60027 5 8.93233V10.0752C3.00888 10.442 1.5 12.194 1.5 14.3L10.0527 14.3C10.0527 12.194 8.54386 10.442 6.55274 10.0752L6.55236 8.93233C7.61666 8.60027 8.38952 7.60332 8.38952 6.42505C8.38952 4.9753 7.21949 3.80005 5.77618 3.80005Z" fill="currentColor"/>
<path d="M1.5 14.25C1.5 11.8777 3.41461 9.95455 5.7764 9.95455C8.13818 9.95455 10.0528 11.8777 10.0528 14.25L9.99554 13.5454M3.17127 6.58181L3.16367 7.07691C3.1885 7.80944 2.99931 8.53326 2.61946 9.15909M8.38847 6.44564V7.082C8.36383 7.8146 8.55324 8.53843 8.93331 9.16418M18.5001 14.25C18.5001 11.8777 16.5855 9.95455 14.2237 9.95455C12.6898 9.95455 11.5003 10.4467 10.7393 11.4891M5.7764 9C7.21972 9 8.38976 7.82475 8.38976 6.375C8.38976 4.92525 7.21972 3.75 5.7764 3.75C4.33309 3.75 3.16305 4.92525 3.16305 6.375C3.16305 7.82475 4.33309 9 5.7764 9ZM14.2237 9C15.667 9 16.8371 7.82475 16.8371 6.375C16.8371 4.92525 15.667 3.75 14.2237 3.75C12.7804 3.75 11.6104 4.92525 11.6104 6.375C11.6104 7.82475 12.7804 9 14.2237 9Z" stroke="currentColor" stroke-linecap="round" stroke-linejoin="round" vector-effect="non-scaling-stroke"/>
</svg>
