<svg width="20" height="20" viewBox="0 0 20 20" fill="currentColor" xmlns="http://www.w3.org/2000/svg">
<path d="M18.1352 12.0752L2.95756 16.9339L1.86401 15.171L11.9392 2.08765L18.1352 12.0752Z" fill="currentColor"/>
<path d="M6.2373 15.8836L7.20104 17.3988C7.36039 17.6661 7.57146 17.8973 7.82128 18.0781C8.0711 18.259 8.35441 18.3856 8.65381 18.4503C8.9532 18.5151 9.26237 18.5165 9.56232 18.4545C9.86228 18.3926 10.1467 18.2685 10.3981 18.09C10.9121 17.7115 11.2652 17.1464 11.3853 16.5102C11.5053 15.8739 11.3832 15.2149 11.0439 14.6678L10.8646 14.4021M11.2074 8.49516H9.68019C9.59322 8.48806 9.50579 8.50036 9.42392 8.53121C9.34205 8.56206 9.2677 8.61073 9.20601 8.67385C9.14432 8.73698 9.09676 8.81305 9.06661 8.89683C9.03646 8.9806 9.02444 9.07007 9.03138 9.15906C9.03138 9.88678 11.2074 10.4434 11.2074 11.1711C11.209 11.2588 11.1933 11.3458 11.1612 11.4271C11.1292 11.5084 11.0814 11.5822 11.0209 11.6442C10.9603 11.7061 10.8881 11.755 10.8087 11.7878C10.7293 11.8206 10.6442 11.8366 10.5586 11.835H9.03138M10.119 8.49516V7.6602M10.119 12.67V11.8351M1.5 14.5834L3.32186 17.5204M11.5759 1.5L18.5002 12.6629M18.1352 12.0752L2.95755 16.9339L1.864 15.171L11.9392 2.08766L18.1352 12.0752Z" stroke="currentColor" stroke-linecap="round" stroke-linejoin="round" vector-effect="non-scaling-stroke"/>
</svg>
