<svg width="29" height="30" viewBox="0 0 29 30" fill="currentColor" xmlns="http://www.w3.org/2000/svg">
<path d="M22.517 16.341L27.25 22.125L22.875 23L21.125 28.25L16.524 20.949M5.733 16.341L1 22.125L5.375 23L7.125 28.25L11.726 20.949L5.733 16.341Z" stroke="currentColor" stroke-linecap="round" stroke-linejoin="round" vector-effect="non-scaling-stroke" />
<path d="M14.125 20.25C19.4407 20.25 23.75 15.9407 23.75 10.625C23.75 5.30926 19.4407 1 14.125 1C8.80926 1 4.5 5.30926 4.5 10.625C4.5 15.9407 8.80926 20.25 14.125 20.25Z" stroke="currentColor" stroke-linecap="round" stroke-linejoin="round" vector-effect="non-scaling-stroke" />
<path fill-rule="evenodd" clip-rule="evenodd" d="M8.875 14.3V9.4H9.575C11.508 9.4 13.075 7.833 13.075 5.9C13.075 5.127 13.702 4.5 14.475 4.5C15.525 4.5 16.375 5.35 16.375 6.4V7.3C16.375 7.687 16.689 8 17.075 8H17.275C17.868 8 18.434 8.251 18.832 8.69C19.23 9.13 19.423 9.719 19.364 10.309L19.148 12.479C19.004 13.91 17.8 15 16.361 15H13.467C13.207 15 12.948 14.964 12.698 14.893L11.002 14.407C10.752 14.336 10.493 14.3 10.233 14.3H8.875Z" stroke="currentColor" stroke-linecap="round" stroke-linejoin="round" vector-effect="non-scaling-stroke" />
</svg>
