<svg width="18" height="18" viewBox="0 0 18 18" fill="currentColor" xmlns="http://www.w3.org/2000/svg">
<path d="M15.9333 13.8H8.46667L4.2 17V13.8H2.06667V13.8C1.47756 13.8 1 13.3224 1 12.7333V2.06667V2.06667C1 1.47756 1.47756 1 2.06667 1H15.9333V1C16.5224 1 17 1.47756 17 2.06667V2.06667V12.7333V12.7333C17 13.3224 16.5224 13.8 15.9333 13.8C15.9333 13.8 15.9333 13.8 15.9333 13.8V13.8Z" fill="currentColor"/>
<path d="M15.9333 13.8H8.46667L4.2 17V13.8H2.06667C1.47756 13.8 1 13.3224 1 12.7333V2.06667C1 1.47756 1.47756 1 2.06667 1H15.9333C16.5224 1 17 1.47756 17 2.06667V12.7333C17 13.3224 16.5224 13.8 15.9333 13.8ZM15.9333 13.8C15.9333 13.8 15.9333 13.8 15.9333 13.8ZM4.2 5.8H13.8M4.2 9H11.6667" stroke="currentColor" stroke-linecap="round" stroke-linejoin="round" vector-effect="non-scaling-stroke"/>
</svg>
