<svg width="18" height="18" viewBox="0 0 18 18" fill="currentColor" xmlns="http://www.w3.org/2000/svg">
<path d="M9 17C13.4183 17 17 13.4183 17 9C17 4.58172 13.4183 1 9 1C4.58172 1 1 4.58172 1 9C1 13.4183 4.58172 17 9 17Z" fill="currentColor"/>
<path d="M6.60001 6.925C6.60001 5.47526 7.77526 4.3 9.22501 4.3C10.6748 4.3 11.85 5.47526 11.85 6.925C11.85 8.37475 10.1 9.55 8.78751 9.9875V11.3M8.80005 13.4V13.4313M17 9C17 13.4183 13.4183 17 9 17C4.58172 17 1 13.4183 1 9C1 4.58172 4.58172 1 9 1C13.4183 1 17 4.58172 17 9Z" stroke="currentColor" stroke-linecap="round" stroke-linejoin="round" vector-effect="non-scaling-stroke"/>
</svg>
