<svg width="18" height="18" viewBox="0 0 18 18" fill="currentColor" xmlns="http://www.w3.org/2000/svg">
<path d="M13.2858 5.26667C13.2858 2.91025 11.367 1 9.00007 1C6.63313 1 4.71436 2.91025 4.71436 5.26667V14.8667H13.2858V5.26667Z" fill="currentColor"/>
<path d="M4.71448 14.8667V5.26667C4.71448 2.91025 6.63326 1 9.00019 1C11.3671 1 13.2859 2.91025 13.2859 5.26667V14.8667M4.71448 14.8667H13.2859M4.71448 14.8667L1.50012 14.8667M13.2859 14.8667L16.5002 14.8667M4.7146 6.33334H13.286M4.7146 6.33334C2.9394 6.33334 1.50012 7.76602 1.50012 9.53333V17H4.71441L4.7146 6.33334ZM13.286 6.33334C15.0612 6.33334 16.5002 7.76603 16.5002 9.53334V17H13.2859L13.286 6.33334ZM6.85694 8.46667H11.1427M9.00025 3.39999C9.14819 3.39999 9.26811 3.51938 9.26811 3.66666C9.26811 3.81394 9.14825 3.93332 9.00032 3.93332C8.85238 3.93332 8.73246 3.81394 8.73246 3.66666C8.73246 3.51938 8.85232 3.39999 9.00025 3.39999ZM8.99979 11.6667C8.99979 12.2558 8.5201 12.7333 7.92837 12.7333C7.33663 12.7333 6.85694 12.2558 6.85694 11.6667C6.85694 11.0776 7.33663 10.6 7.92837 10.6C8.5201 10.6 8.99979 11.0776 8.99979 11.6667ZM11.1427 17H6.85694L7.39265 14.8667H10.6069L11.1427 17Z" stroke="currentColor" stroke-linecap="round" stroke-linejoin="round" vector-effect="non-scaling-stroke"/>
</svg>
