<svg width="18" height="18" viewBox="0 0 18 18" fill="currentColor" xmlns="http://www.w3.org/2000/svg">
<path d="M6.33333 12.7667H2.06667C1.47756 12.7667 1 13.2442 1 13.8333V17.0333H6.33333H11.6667H17.0001V13.8333C17.0001 13.2442 16.5225 12.7667 15.9334 12.7667H11.6667L11.6666 9.56667C11.6666 8.97756 11.189 8.5 10.5999 8.5H7.39992C6.81081 8.5 6.33325 8.97756 6.33325 9.56667L6.33333 12.7667Z" fill="currentColor"/>
<path d="M6.33333 17H1V13.8C1 13.2109 1.47756 12.7333 2.06667 12.7333H6.33333V17ZM6.33333 17L6.33333 9.53333C6.33333 8.94423 6.81089 8.46667 7.4 8.46667H10.6C11.1891 8.46667 11.6667 8.94423 11.6667 9.53333L11.6667 17M6.33333 17H11.6667M11.6667 17V12.7333H15.9333C16.5224 12.7333 17 13.2109 17 13.8V17H11.6667ZM11.3102 6.33335C10.2231 5.05695 8.30711 4.9035 7.03071 5.9906C6.90751 6.09553 6.79289 6.21014 6.68796 6.33335M17 11.1333C16.2155 10.211 14.9571 9.84435 13.8 10.2011M1 11.1333C1.57792 10.4577 2.42204 10.0681 3.31111 10.0667C3.61123 10.0669 3.90964 10.1119 4.19644 10.2004M10.8667 2.86667C10.8667 3.8976 10.0309 4.73333 9 4.73333C7.96907 4.73333 7.13333 3.8976 7.13333 2.86667C7.13333 1.83574 7.96907 1 9 1C10.0309 1 10.8667 1.83574 10.8667 2.86667ZM16.5565 7.66667C16.5565 8.6976 15.7207 9.53333 14.6898 9.53333C13.6589 9.53333 12.8231 8.6976 12.8231 7.66667C12.8231 6.63574 13.6589 5.8 14.6898 5.8C15.7207 5.8 16.5565 6.63574 16.5565 7.66667ZM5.17685 7.66667C5.17685 8.6976 4.34112 9.53333 3.31019 9.53333C2.27925 9.53333 1.44352 8.6976 1.44352 7.66667C1.44352 6.63574 2.27925 5.8 3.31019 5.8C4.34112 5.8 5.17685 6.63574 5.17685 7.66667Z" stroke="currentColor" stroke-linecap="round" stroke-linejoin="round" vector-effect="non-scaling-stroke"/>
</svg>
