<svg width="20" height="20" viewBox="0 0 20 20" fill="currentColor" xmlns="http://www.w3.org/2000/svg">
    <path d="M13.9798 18.5229C16.4899 18.5229 18.5276 16.4852 18.5276 13.9751C18.5276 11.4651 16.4899 9.42743 13.9798 9.42743C11.4698 9.42743 9.43211 11.4603 9.43211 13.9751C9.43211 16.49 11.4698 18.5229 13.9798 18.5229Z" stroke="currentColor" stroke-miterlimit="10" stroke-linecap="round" stroke-linejoin="round" vector-effect="non-scaling-stroke"/>
    <path d="M15.1156 11.7036H13.5742C13.0875 11.7036 12.6676 12.0472 12.5769 12.5292C12.4862 13.0064 12.7439 13.4836 13.1972 13.6649L14.7625 14.29C15.2158 14.4714 15.4735 14.9486 15.3828 15.4258C15.2922 15.903 14.8722 16.2513 14.3855 16.2513H12.8489" stroke="currentColor" stroke-miterlimit="10" stroke-linecap="round" stroke-linejoin="round" vector-effect="non-scaling-stroke"/>
    <path d="M13.9799 11.7036V11.1357" stroke="currentColor" stroke-miterlimit="10" stroke-linecap="round" stroke-linejoin="round" vector-effect="non-scaling-stroke"/>
    <path d="M13.9799 16.8192V16.2513" stroke="currentColor" stroke-miterlimit="10" stroke-linecap="round" stroke-linejoin="round" vector-effect="non-scaling-stroke"/>
    <path d="M3.74867 6.0249H11.7036" stroke="currentColor" stroke-miterlimit="10" stroke-linecap="round" stroke-linejoin="round" vector-effect="non-scaling-stroke"/>
    <path d="M3.74867 9.43219H8.29639" stroke="currentColor" stroke-miterlimit="10" stroke-linecap="round" stroke-linejoin="round" vector-effect="non-scaling-stroke"/>
    <path d="M3.74867 12.8441H6.58801" stroke="currentColor" stroke-miterlimit="10" stroke-linecap="round" stroke-linejoin="round" vector-effect="non-scaling-stroke"/>
    <path d="M6.59279 16.2513H2.61294C1.98781 16.2513 1.4772 15.7407 1.4772 15.1156V2.61291C1.4772 1.98778 1.98781 1.47717 2.61294 1.47717H10.6681C10.9687 1.47717 11.2598 1.59647 11.4698 1.81121L13.6458 3.98725C13.8606 4.20199 13.9799 4.48831 13.9799 4.78894V7.16063" stroke="currentColor" stroke-miterlimit="10" stroke-linecap="round" stroke-linejoin="round" vector-effect="non-scaling-stroke"/>
</svg>
