<svg width="18" height="18" viewBox="0 0 18 18" fill="currentColor" xmlns="http://www.w3.org/2000/svg">
<g clip-path="url(#clip0)">
<path d="M16.9999 7.53365V7.53423C16.9999 12.2189 13.6186 16.2195 8.9994 17V17C4.3804 16.219 0.999644 12.2182 1 7.53366V2.06666V2.06666C1 1.47756 1.47756 1 2.06666 1H15.9333V1C16.5224 1 16.9999 1.47756 16.9999 2.06666V2.06666V7.53365Z" fill="currentColor"/>
<path d="M1 4.19999H16.9999M9.23677 6.15555V12.3185M6.1553 9.23702H12.3182M16.9999 7.53365C16.9999 12.2184 13.6186 16.2195 8.9994 17C4.3804 16.219 0.999644 12.2182 1 7.53366V2.06666C1 1.47756 1.47756 1 2.06666 1H15.9333C16.5224 1 16.9999 1.47756 16.9999 2.06666V7.53365Z" stroke="currentColor" stroke-linecap="round" stroke-linejoin="round" vector-effect="non-scaling-stroke"/>
</g>
<defs>
<clipPath id="clip0">
<path d="M0 0H17.9999V18H0V0Z" fill="currentColor"/>
</clipPath>
</defs>
</svg>
