<svg width="20" height="19" viewBox="0 0 20 19" fill="currentColor" xmlns="http://www.w3.org/2000/svg">
<path d="M11.5 14.5L18.5 8.5L11.5 2.5V5.50267H7.5C5.9087 5.50267 4.38258 6.13481 3.25736 7.26003C2.13214 8.38524 1.5 9.91137 1.5 11.5027V15.5027C1.5 14.4418 1.92143 13.4244 2.67157 12.6742C3.42172 11.9241 4.43913 11.5027 5.5 11.5027H11.5V14.5Z" fill="currentColor"/>
<path d="M11.5 14.5L18.5 8.5L11.5 2.5V5.50267H7.5C5.9087 5.50267 4.38258 6.13481 3.25736 7.26003C2.13214 8.38524 1.5 9.91137 1.5 11.5027V15.5027C1.5 14.4418 1.92143 13.4244 2.67157 12.6742C3.42172 11.9241 4.43913 11.5027 5.5 11.5027H11.5V14.5Z" stroke="currentColor" stroke-linecap="round" stroke-linejoin="round" vector-effect="non-scaling-stroke"/>
</svg>
