<svg width="18" height="18" viewBox="0 0 18 18" fill="currentColor" xmlns="http://www.w3.org/2000/svg">
<path d="M2.06667 8.99997C2.65577 8.99997 3.13333 8.52241 3.13333 7.9333C3.13333 7.85719 3.12536 7.78294 3.11021 7.71133L5.12957 6.60796C5.42284 6.94265 5.85344 7.15398 6.3334 7.15398C7.21705 7.15398 7.9334 6.43763 7.9334 5.55398C7.9334 5.27994 7.86451 5.022 7.7431 4.79652L9.4063 3.66543C9.69931 3.99348 10.1255 4.2 10.6 4.2C11.4837 4.2 12.2 3.48366 12.2 2.6C12.2 1.71634 11.4837 1 10.6 1C9.71634 1 9 1.71634 9 2.6C9 2.84751 9.0562 3.0819 9.15654 3.29109L7.43398 4.39263C7.14719 4.12075 6.75977 3.95398 6.3334 3.95398C5.85344 3.95398 5.42284 4.16531 5.12957 4.5L3 2.58347C3.08495 2.43037 3.13333 2.25417 3.13333 2.06667C3.13333 1.47756 2.65577 1 2.06667 1C1.47756 1 1 1.47756 1 2.06667C1 2.65577 1.47756 3.13333 2.06667 3.13333C2.33773 3.13333 2.58517 3.03223 2.77334 2.86567L4.87967 4.88471C4.78578 5.08833 4.7334 5.31504 4.7334 5.55398C4.7334 5.77136 4.77675 5.97861 4.85528 6.16757L3 7.4165C2.81804 7.08858 2.46827 6.86664 2.06667 6.86664C1.47756 6.86664 1 7.3442 1 7.9333C1 8.52241 1.47756 8.99997 2.06667 8.99997Z" fill="currentColor"/>
<path d="M17 17L14.8667 13.8V10.0667C14.8667 8.64444 12.1644 7.12338 11.1333 6.33333M12.5058 10.9868L9.91163 8.90756C9.54973 8.54565 8.96296 8.54565 8.60106 8.90756C8.23915 9.26946 8.23915 9.85623 8.60106 10.2181L11.1141 13.0533V14.8311C11.1141 15.6709 12.3138 16.9964 12.3138 16.9964M11.1333 5.8V9.88889M4.73333 1H7.93333M11.1141 14.3163C10.9499 15.2507 10.1386 15.9325 9.18987 15.9333H4.54347C3.47051 15.9337 2.60039 15.0642 2.6 13.9913C2.6 13.9908 2.6 13.9903 2.6 13.9899V11.1333M2.6 12.7333H6.86667M2.93426 2.68533L4.96804 4.71911M9.27031 3.48889L7.61342 4.59111M3.07639 7.58488L5.02483 6.47555M3.13333 7.93333C3.13333 8.52244 2.65577 9 2.06667 9C1.47756 9 1 8.52244 1 7.93333C1 7.34423 1.47756 6.86667 2.06667 6.86667C2.65577 6.86667 3.13333 7.34423 3.13333 7.93333ZM3.13333 2.06667C3.13333 2.65577 2.65577 3.13333 2.06667 3.13333C1.47756 3.13333 1 2.65577 1 2.06667C1 1.47756 1.47756 1 2.06667 1C2.65577 1 3.13333 1.47756 3.13333 2.06667ZM12.2 2.6C12.2 3.48366 11.4837 4.2 10.6 4.2C9.71634 4.2 9 3.48366 9 2.6C9 1.71634 9.71634 1 10.6 1C11.4837 1 12.2 1.71634 12.2 2.6ZM7.93333 5.55395C7.93333 6.4376 7.21699 7.15395 6.33333 7.15395C5.44968 7.15395 4.73333 6.4376 4.73333 5.55395C4.73333 4.67029 5.44968 3.95395 6.33333 3.95395C7.21699 3.95395 7.93333 4.67029 7.93333 5.55395Z" stroke="currentColor" stroke-linecap="round" stroke-linejoin="round" vector-effect="non-scaling-stroke"/>
</svg>
