<svg width="18" height="18" viewBox="0 0 18 18" fill="currentColor" xmlns="http://www.w3.org/2000/svg">
<path d="M8.75744 1.14L5.03844 7.5836C5.01973 7.61548 5.00758 7.65077 5.0027 7.68742C4.99783 7.72406 5.00034 7.7613 5.01008 7.79696C5.01981 7.83262 5.03658 7.86597 5.0594 7.89505C5.08222 7.92413 5.11062 7.94836 5.14294 7.9663C5.18512 7.99013 5.2326 8.00302 5.28104 8.0038H12.719C12.8768 8.0013 13.0026 7.8738 13 7.719C12.9992 7.67131 12.986 7.62466 12.9617 7.5836L9.24274 1.14C9.16814 1.0085 8.99904 0.9613 8.86504 1.0344C8.82004 1.05889 8.78277 1.09546 8.75744 1.14V1.14ZM9.24264 16.8601L12.9617 10.4164C12.9805 10.3845 12.9926 10.3492 12.9975 10.3126C13.0023 10.2759 12.9998 10.2387 12.9901 10.203C12.9803 10.1674 12.9635 10.134 12.9407 10.1049C12.9179 10.0759 12.8895 10.0516 12.8571 10.0337C12.815 10.0098 12.7675 9.99695 12.719 9.9962H5.28104C5.12324 9.9988 4.99744 10.1263 5.00004 10.281C5.00088 10.3287 5.01408 10.3753 5.03834 10.4164L8.75734 16.8601C8.83194 16.9915 9.00104 17.0387 9.13504 16.9656C9.18002 16.9411 9.21728 16.9046 9.24264 16.8601V16.8601Z" fill="currentColor"/>
<path d="M8.75744 1.14L5.03844 7.5836C5.01973 7.61548 5.00758 7.65077 5.0027 7.68742C4.99783 7.72406 5.00034 7.7613 5.01008 7.79696C5.01981 7.83262 5.03658 7.86597 5.0594 7.89505C5.08222 7.92413 5.11062 7.94836 5.14294 7.9663C5.18512 7.99013 5.2326 8.00302 5.28104 8.0038H12.719C12.8768 8.0013 13.0026 7.8738 13 7.719C12.9992 7.67131 12.986 7.62466 12.9617 7.5836L9.24274 1.14C9.16814 1.0085 8.99904 0.9613 8.86504 1.0344C8.82004 1.05889 8.78277 1.09546 8.75744 1.14V1.14ZM9.24264 16.8601L12.9617 10.4164C12.9805 10.3845 12.9926 10.3492 12.9975 10.3126C13.0023 10.2759 12.9998 10.2387 12.9901 10.203C12.9803 10.1674 12.9635 10.134 12.9407 10.1049C12.9179 10.0759 12.8895 10.0516 12.8571 10.0337C12.815 10.0098 12.7675 9.99695 12.719 9.9962H5.28104C5.12324 9.9988 4.99744 10.1263 5.00004 10.281C5.00088 10.3287 5.01408 10.3753 5.03834 10.4164L8.75734 16.8601C8.83194 16.9915 9.00104 17.0387 9.13504 16.9656C9.18002 16.9411 9.21728 16.9046 9.24264 16.8601V16.8601Z" stroke="currentColor" stroke-linecap="round" stroke-linejoin="round" vector-effect="non-scaling-stroke"/>
</svg>
