<svg width="19" height="18" viewBox="0 0 19 18" fill="currentColor" xmlns="http://www.w3.org/2000/svg">
<path d="M9.51738 1.3171L11.8968 6.03115L16.4764 6.48484C16.7915 6.51103 17.0257 6.78767 16.9995 7.10274C16.9882 7.2386 16.9288 7.36597 16.832 7.46193L13.063 11.1975L14.4604 16.2735C14.5424 16.5821 14.3586 16.8987 14.05 16.9806C13.9134 17.0169 13.7682 17.0019 13.6419 16.9384L8.99897 14.6393L4.36244 16.9355C4.07717 17.079 3.72963 16.964 3.58619 16.6787C3.52268 16.5524 3.50765 16.4073 3.54393 16.2706L4.94129 11.1946L1.16949 7.45908C0.944929 7.23653 0.943305 6.87408 1.16586 6.64952C1.26182 6.55269 1.38919 6.49329 1.52505 6.482L6.10469 6.0283L8.48056 1.3171C8.62715 1.03079 8.97809 0.917531 9.2644 1.06412C9.37318 1.11982 9.46168 1.20832 9.51738 1.3171Z" fill="currentColor" stroke="currentColor" stroke-linecap="round" stroke-linejoin="round" vector-effect="non-scaling-stroke"/>
</svg>
