<svg width="18" height="18" viewBox="0 0 18 18" fill="currentColor" xmlns="http://www.w3.org/2000/svg">
<g clip-path="url(#clip0)">
<path d="M8.01116 15.2001L5.317 12.9767H5.317C4.96159 12.689 4.80441 12.2185 4.91455 11.7719V11.7719C5.0706 11.141 5.70297 10.7575 6.327 10.9153C6.40926 10.9361 6.48903 10.9659 6.56489 11.0042L7.39966 11.4262V6.57399V6.57399C7.39966 5.97848 7.87718 5.49573 8.46623 5.49573V5.49573C9.05528 5.49573 9.5328 5.97848 9.5328 6.57399V9.80877L10.9499 10.0481V10.0481C11.9785 10.2214 12.7324 11.121 12.7325 12.1752V15.2001" fill="currentColor"/>
<path d="M8.01116 15.2L5.317 12.9767C4.96159 12.689 4.80441 12.2185 4.91455 11.7719C5.0706 11.141 5.70297 10.7575 6.327 10.9153C6.40926 10.9361 6.48903 10.9659 6.56489 11.0042L7.39966 11.4261V6.57396C7.39966 5.97846 7.87718 5.4957 8.46623 5.4957C9.05528 5.4957 9.5328 5.97846 9.5328 6.57396V9.80874L10.9499 10.0481C11.9785 10.2214 12.7324 11.121 12.7325 12.1752V15.2M1.00146 5.49716H4.73447M3.66643 2.80005L1 5.4957L3.66643 8.19135M11.667 5.49716H16.9999M14.3321 2.80005L16.9986 5.4957L14.3321 8.19135" stroke="currentColor" stroke-linecap="round" stroke-linejoin="round" vector-effect="non-scaling-stroke"/>
</g>
<defs>
<clipPath id="clip0">
<path d="M0 0H17.9999V18H0V0Z" fill="currentColor"/>
</clipPath>
</defs>
</svg>
