<svg width="18" height="18" viewBox="0 0 18 18" fill="currentColor" xmlns="http://www.w3.org/2000/svg">
<path d="M8.85213 4C7.70666 4 6.77808 4.927 6.77808 6.07051C6.77808 6.95928 7.33903 7.71727 8.12678 8.01087L8.24264 9.07617C6.40481 9.36768 5 11.0833 5 13H13C13 11.0969 11.3187 9.39022 9.5 9.08257L9.64987 7.98232C10.3994 7.67029 10.9262 6.93182 10.9262 6.07051C10.9262 4.927 9.9976 4 8.85213 4Z" fill="currentColor"/>
<path d="M16.9877 9.44326C17.2327 5.03936 13.855 1.27109 9.44359 1.02657C7.17123 0.900627 4.95271 1.74682 3.34341 3.35331L2.87231 3.82361M2.87231 3.82361L5.70072 3.82358M2.87231 3.82361V1M1.01252 8.55765C0.767594 12.9616 4.14522 16.7298 8.55666 16.9743C10.829 17.1003 13.0475 16.2541 14.6568 14.6476L15.1279 14.1764M15.1279 14.1764L12.2996 14.1765M15.1279 14.1764L15.128 17M5 12.8736C5 10.7499 6.72451 9.02837 8.85181 9.02837C10.9791 9.02837 12.7036 10.7499 12.7036 12.8736M10.9261 6.07051C10.9261 7.21402 9.99754 8.14102 8.85207 8.14102C7.7066 8.14102 6.77802 7.21402 6.77802 6.07051C6.77802 4.927 7.7066 4 8.85207 4C9.99754 4 10.9261 4.927 10.9261 6.07051Z" stroke="currentColor" stroke-linecap="round" stroke-linejoin="round" vector-effect="non-scaling-stroke"/>
</svg>
