<svg width="18" height="18" viewBox="0 0 18 18" fill="currentColor" xmlns="http://www.w3.org/2000/svg">
<path d="M4.74686 7.6001H2V16.0001H4.74686V7.6001Z" fill="currentColor"/>
<path d="M5.01252 15.0673C5.33432 15.0722 5.65408 15.1203 5.96354 15.2104L8.18179 15.8563C8.50873 15.9515 8.8471 15.9999 9.18714 16H12.169C14.0499 16 15.6251 14.5477 15.8132 12.64L15.9963 9.46667C16.0631 8.13084 15.1937 6.9334 13.9209 6.60818L13.0327 6.41031C12.6243 6.30707 12.3375 5.93332 12.3375 5.50436V3.4C12.3375 2.6268 11.7226 2 10.964 2C10.2055 2 9.59062 2.6268 9.59062 3.4V4.36693C9.59062 6.94426 7.54094 9.0336 5.01252 9.0336V15.0673Z" stroke="currentColor" stroke-linecap="round" stroke-linejoin="round" vector-effect="non-scaling-stroke"/>
<path d="M4.74686 7.59996H2V16H4.74686V7.59996Z" stroke="currentColor" stroke-linecap="round" stroke-linejoin="round" vector-effect="non-scaling-stroke"/>
</svg>
