<svg width="18" height="18" viewBox="0 0 18 18" fill="currentColor" xmlns="http://www.w3.org/2000/svg">
<path d="M9 17C13.4183 17 17 13.4183 17 9C17 4.58172 13.4183 1 9 1C4.58172 1 1 4.58172 1 9C1 13.4183 4.58172 17 9 17Z" fill="currentColor"/>
<path d="M9 17C13.4183 17 17 13.4183 17 9C17 4.58172 13.4183 1 9 1C4.58172 1 1 4.58172 1 9C1 13.4183 4.58172 17 9 17Z" stroke="currentColor" stroke-linecap="round" stroke-linejoin="round" vector-effect="non-scaling-stroke"/>
<path d="M7.797 4.19995H11.3369V4.19995C11.6315 4.19996 11.8702 4.43875 11.8702 4.7333C11.8702 4.81598 11.851 4.89753 11.8141 4.97151L10.6002 7.39995H12.7335L7.4002 14.8666L7.93353 9.53328H6.517V9.53328C6.22245 9.5332 5.98374 9.29434 5.98383 8.99979C5.98384 8.94782 5.99145 8.89612 6.00642 8.84635L7.28642 4.57968V4.57968C7.354 4.35418 7.56159 4.19979 7.797 4.19995H7.797Z" fill="currentColor" stroke="currentColor" stroke-linecap="round" stroke-linejoin="round" vector-effect="non-scaling-stroke"/>
</svg>
