<svg width="18" height="18" viewBox="0 0 18 18" fill="currentColor" xmlns="http://www.w3.org/2000/svg">
<path d="M13.3081 16.4H4.69268V16.4C4.01295 16.4 3.46191 15.8478 3.46191 15.1667V4.06665H14.5388V15.1667C14.5388 15.8478 13.9878 16.4 13.3081 16.4V16.4Z" fill="currentColor"/>
<path d="M7.15381 12.7001V7.76676M10.8462 12.7001V7.76676M1 4.06674H17M13.3081 16.4001H4.69268C4.01295 16.4001 3.46191 15.8479 3.46191 15.1667V4.06674H14.5388V15.1667C14.5388 15.8479 13.9878 16.4001 13.3081 16.4001ZM10.846 1.6001H7.15369C6.47396 1.6001 5.92292 2.15228 5.92292 2.83343V4.06676H12.0768V2.83343C12.0768 2.15228 11.5257 1.6001 10.846 1.6001Z" stroke="currentColor" stroke-linecap="round" stroke-linejoin="round" vector-effect="non-scaling-stroke"/>
</svg>
