<svg width="18" height="18" viewBox="0 0 18 18" fill="currentColor" xmlns="http://www.w3.org/2000/svg">
<path d="M8.9002 1C6.84825 1 5.18481 2.67147 5.18481 4.73333C5.18481 6.50488 6.41279 7.98823 8.0601 8.37083L8.62297 8.41002V9.26361L8.5 10L8.2132 10.1006C4.72487 10.447 2 13.4037 2 17L15.8 17C15.8 13.4037 13.0751 10.447 9.5868 10.1006L8.85479 10L8.9002 9.26361L8.85479 8.41002H9.54852C9.65415 8.39135 9.75824 8.36818 9.86059 8.34074C11.447 7.91538 12.6156 6.46148 12.6156 4.73333C12.6156 2.67147 10.9521 1 8.9002 1Z" fill="currentColor"/>
<path d="M2.09998 17C2.09998 13.1708 5.18921 10.0667 8.99998 10.0667C12.8107 10.0667 15.9 13.1708 15.9 17M9.00017 8.46667C11.0521 8.46667 12.7156 6.7952 12.7156 4.73333C12.7156 2.67147 11.0521 1 9.00017 1C6.94822 1 5.28479 2.67147 5.28479 4.73333C5.28479 6.7952 6.94822 8.46667 9.00017 8.46667Z" stroke="currentColor" stroke-linecap="round" stroke-linejoin="round" vector-effect="non-scaling-stroke"/>
</svg>
