<svg width="19" height="18" viewBox="0 0 19 18" fill="currentColor" xmlns="http://www.w3.org/2000/svg">
<path d="M12.7364 17.0001C15.0935 17.0001 17.0042 15.0893 17.0042 12.7323C17.0042 10.3752 15.0935 8.46448 12.7364 8.46448C10.3794 8.46448 8.46863 10.3752 8.46863 12.7323C8.46863 15.0893 10.3794 17.0001 12.7364 17.0001Z" fill="currentColor"/>
<path d="M8.13577 7.94444C7.34438 7.24543 6.32369 6.86165 5.26781 6.86611C3.10429 6.84915 1.27038 8.45382 1 10.6004M14.9772 6.86609C14.0929 5.33539 12.1352 4.81139 10.6045 5.69571C10.3001 5.87156 10.0267 6.09635 9.7954 6.36106M14.6385 11.4895L12.5722 14.2451C12.3949 14.4809 12.06 14.5284 11.8242 14.3511C11.8042 14.3361 11.7853 14.3197 11.7677 14.302L10.7007 13.2351M5.2678 5.80128C6.59364 5.80128 7.66845 4.72648 7.66845 3.40064C7.66845 2.0748 6.59364 1 5.2678 1C3.94197 1 2.86716 2.0748 2.86716 3.40064C2.86716 4.72648 3.94197 5.80128 5.2678 5.80128ZM12.203 4.73433C13.2342 4.73433 14.0702 3.89837 14.0702 2.86716C14.0702 1.83596 13.2342 1 12.203 1C11.1718 1 10.3358 1.83596 10.3358 2.86716C10.3358 3.89837 11.1718 4.73433 12.203 4.73433ZM12.7365 17C15.0935 17 17.0043 15.0893 17.0043 12.7322C17.0043 10.3752 15.0935 8.4644 12.7365 8.4644C10.3794 8.4644 8.46866 10.3752 8.46866 12.7322C8.46866 15.0893 10.3794 17 12.7365 17Z" stroke="currentColor" stroke-linecap="round" stroke-linejoin="round" vector-effect="non-scaling-stroke"/>
</svg>
