<svg width="18" height="18" viewBox="0 0 18 18" fill="currentColor" xmlns="http://www.w3.org/2000/svg">
<path d="M16.4109 8.46667H9.05577C8.73042 8.46667 8.46667 8.73042 8.46667 9.05577V16.4109C8.46667 16.7363 8.73042 17 9.05577 17H16.4109C16.7363 17 17 16.7363 17 16.4109V9.05577C17 8.73042 16.7363 8.46667 16.4109 8.46667Z" fill="currentColor"/>
<path d="M1.00006 12.7333C1.00006 10.0824 3.1491 7.93333 5.80006 7.93333C5.97824 7.93336 6.15628 7.94309 6.33339 7.96249M17.0001 15.4L15.2998 12.8492C15.1363 12.6042 14.8052 12.5381 14.5602 12.7015C14.5048 12.7384 14.4568 12.7854 14.4187 12.84L12.9965 14.8674L12.1169 14.1641C11.8874 13.98 11.5522 14.0168 11.3681 14.2463C11.3583 14.2585 11.349 14.2712 11.3403 14.2843L9.53339 17M5.80006 6.86667C7.4201 6.86667 8.73339 5.55337 8.73339 3.93333C8.73339 2.3133 7.4201 1 5.80006 1C4.18003 1 2.86673 2.3133 2.86673 3.93333C2.86673 5.55337 4.18003 6.86667 5.80006 6.86667ZM16.411 8.46667H9.05583C8.73048 8.46667 8.46673 8.73041 8.46673 9.05577V16.4109C8.46673 16.7363 8.73048 17 9.05583 17H16.411C16.7363 17 17.0001 16.7363 17.0001 16.4109V9.05577C17.0001 8.73041 16.7363 8.46667 16.411 8.46667ZM11.4001 10.6C11.5473 10.6 11.6667 10.7194 11.6667 10.8667C11.6667 11.0139 11.5473 11.1333 11.4001 11.1333C11.2528 11.1333 11.1334 11.0139 11.1334 10.8667C11.1334 10.7194 11.2528 10.6 11.4001 10.6Z" stroke="currentColor" stroke-linecap="round" stroke-linejoin="round" vector-effect="non-scaling-stroke"/>
</svg>
