<svg width="18" height="18" viewBox="0 0 18 18" fill="currentColor" xmlns="http://www.w3.org/2000/svg">
<path d="M12.7333 17C15.0898 17 17 15.0898 17 12.7333C17 10.3769 15.0898 8.46667 12.7333 8.46667C10.3769 8.46667 8.46667 10.3769 8.46667 12.7333C8.46667 15.0898 10.3769 17 12.7333 17Z" fill="currentColor"/>
<path d="M12.7334 10.6V14.8667M10.6001 12.7333H14.8667M8.13393 7.94258C7.34244 7.24453 6.32205 6.86163 5.26673 6.86667C3.10379 6.84971 1.27037 8.45396 1.00006 10.6M14.9736 6.86666C14.0895 5.33637 12.1322 4.81251 10.602 5.69659C10.2976 5.8724 10.0244 6.09714 9.79312 6.36177M17.0001 12.7333C17.0001 15.0898 15.0898 17 12.7334 17C10.377 17 8.46674 15.0898 8.46674 12.7333C8.46674 10.3769 10.377 8.46667 12.7334 8.46667C15.0898 8.46667 17.0001 10.3769 17.0001 12.7333ZM5.26673 5.8C6.59221 5.8 7.66673 4.72548 7.66673 3.4C7.66673 2.07452 6.59221 1 5.26673 1C3.94124 1 2.86673 2.07452 2.86673 3.4C2.86673 4.72548 3.94124 5.8 5.26673 5.8ZM12.2001 4.73333C13.231 4.73333 14.0667 3.8976 14.0667 2.86667C14.0667 1.83574 13.231 1 12.2001 1C11.1691 1 10.3334 1.83574 10.3334 2.86667C10.3334 3.8976 11.1691 4.73333 12.2001 4.73333Z" stroke="currentColor" stroke-linecap="round" stroke-linejoin="round" vector-effect="non-scaling-stroke"/>
</svg>
