<svg width="18" height="18" viewBox="0 0 18 18" fill="currentColor" xmlns="http://www.w3.org/2000/svg">
<path d="M5.80019 3.5C4.31327 3.5 3.10789 4.71121 3.10789 6.20531C3.10789 7.48904 3.99772 8.56393 5.19142 8.84118L5.5993 8.86958V9.48812L5.51019 10.0217L5.30237 10.0946C2.77459 10.3456 0.800049 12.4882 0.800049 15.0942L10.8 15.0942C10.8 12.4882 8.82551 10.3456 6.29773 10.0946L5.76729 10.0217L5.80019 9.48812L5.76729 8.86958H6.26999C6.34653 8.85605 6.42196 8.83926 6.49613 8.81938C7.64572 8.51115 8.4925 7.4576 8.4925 6.20531C8.4925 4.71121 7.28711 3.5 5.80019 3.5Z" fill="currentColor"/>
<path d="M1.00012 14.9C1.00012 12.234 3.14916 10.0729 5.80012 10.0729C8.45109 10.0729 10.6001 12.234 10.6001 14.9M10.6006 3.57663C11.9591 2.68897 13.7759 3.07684 14.6586 4.44297C15.5412 5.8091 15.1555 7.63616 13.7971 8.52382C12.8236 9.15991 11.5687 9.15882 10.5964 8.52103M11.1334 10.1923C13.7215 9.60264 16.2949 11.2346 16.8813 13.8373C16.9599 14.186 16.9997 14.5424 17 14.9M5.80012 9.00015C7.42016 9.00015 8.73345 7.67944 8.73345 6.05025C8.73345 4.42106 7.42016 3.10034 5.80012 3.10034C4.18009 3.10034 2.86679 4.42106 2.86679 6.05025C2.86679 7.67944 4.18009 9.00015 5.80012 9.00015Z" stroke="currentColor" stroke-linecap="round" stroke-linejoin="round" vector-effect="non-scaling-stroke"/>
</svg>
