<svg width="18" height="18" viewBox="0 0 18 18" fill="currentColor" xmlns="http://www.w3.org/2000/svg">
<path d="M12.7338 17C15.0904 17 17.0007 15.0897 17.0007 12.7332C17.0007 10.3766 15.0904 8.46631 12.7338 8.46631C10.3773 8.46631 8.46698 10.3766 8.46698 12.7332C8.46698 15.0897 10.3773 17 12.7338 17Z" fill="currentColor" stroke="currentColor" stroke-linecap="round" stroke-linejoin="round" vector-effect="non-scaling-stroke"/>
<path d="M10.6005 12.7339H14.8673M8.13424 7.94359C7.34279 7.2453 6.32237 6.86214 5.26692 6.86692C3.10388 6.84996 1.27038 8.45428 1.00006 10.6004M14.9742 6.86692C14.0901 5.33657 12.1327 4.81268 10.6024 5.6968C10.2981 5.87262 10.0248 6.09736 9.79351 6.36201M17.0008 12.7331C17.0008 15.0897 15.0905 17 12.734 17C10.3774 17 8.4671 15.0897 8.4671 12.7331C8.4671 10.3766 10.3774 8.46628 12.734 8.46628C15.0905 8.46628 17.0008 10.3766 17.0008 12.7331ZM5.26692 5.80021C6.59246 5.80021 7.66702 4.72565 7.66702 3.40011C7.66702 2.07456 6.59246 1 5.26692 1C3.94138 1 2.86681 2.07456 2.86681 3.40011C2.86681 4.72565 3.94138 5.80021 5.26692 5.80021ZM12.2006 4.7335C13.2315 4.7335 14.0673 3.89773 14.0673 2.86675C14.0673 1.83577 13.2315 1 12.2006 1C11.1696 1 10.3338 1.83577 10.3338 2.86675C10.3338 3.89773 11.1696 4.7335 12.2006 4.7335Z" stroke="currentColor" stroke-linecap="round" stroke-linejoin="round" vector-effect="non-scaling-stroke"/>
</svg>
