<svg width="18" height="18" viewBox="0 0 18 18" fill="currentColor" xmlns="http://www.w3.org/2000/svg">
<g clip-path="url(#clip0)">
<path d="M13.3001 7.90002C12.1998 7.90002 11.3078 8.79632 11.3078 9.90196C11.3078 10.8519 11.9663 11.6473 12.8496 11.8525L13.1514 11.8735V12.3312L13.0855 12.7261L12.9317 12.78C11.0611 12.9658 9.59998 14.5513 9.59998 16.4797L17 16.4797C17 14.5513 15.5388 12.9658 13.6683 12.78L13.2757 12.7261L13.3001 12.3312L13.2757 11.8735H13.6477C13.7044 11.8635 13.7602 11.8511 13.8151 11.8364C14.6658 11.6083 15.2924 10.8286 15.2924 9.90196C15.2924 8.79632 14.4004 7.90002 13.3001 7.90002Z" fill="currentColor"/>
<path d="M16.6953 6.59014C17.1008 6.14042 17.1008 5.45695 16.6953 5.00722C14.8279 2.95568 11.8655 0.952503 8.99688 1.00086C6.13255 0.952503 3.16582 2.95568 1.30415 5.00722C0.898618 5.45694 0.898618 6.14042 1.30415 6.59014C3.12671 8.5983 6.08135 10.6477 8.99688 10.5986M8.99669 8.46677C7.52394 8.46677 6.33004 7.27288 6.33004 5.80013C6.33004 4.32738 7.52394 3.13349 8.99669 3.13349C10.4694 3.13349 11.6633 4.32738 11.6633 5.80013M13.2656 11.6667C14.2966 11.6667 15.1323 10.831 15.1323 9.8001C15.1323 8.76918 14.2966 7.93345 13.2656 7.93345C12.2347 7.93345 11.399 8.76918 11.399 9.8001C11.399 10.831 12.2347 11.6667 13.2656 11.6667ZM13.2633 12.2001C11.2015 12.2001 9.53003 13.8715 9.53003 15.9334V17H16.9966V15.9334C16.9966 13.8717 15.325 12.2009 13.2633 12.2001Z" stroke="currentColor" stroke-linecap="round" stroke-linejoin="round" vector-effect="non-scaling-stroke"/>
</g>
<defs>
<clipPath id="clip0">
<path d="M0 0H17.9994V18H0V0Z" fill="currentColor"/>
</clipPath>
</defs>
</svg>
