<svg width="18" height="18" viewBox="0 0 18 18" fill="currentColor" xmlns="http://www.w3.org/2000/svg">
<path d="M8.99893 3.70088C6.13258 3.64789 3.1681 5.86078 1.30437 8.12383H1.30437C0.898544 8.63646 0.898544 9.35847 1.30437 9.8711C3.1297 12.0889 6.08352 14.352 8.99893 14.299C11.9144 14.3534 14.871 12.0903 16.6956 9.87322V9.87322C17.1015 9.36059 17.1015 8.63858 16.6956 8.12595C14.8298 5.86148 11.8674 3.6486 8.99893 3.70088V3.70088Z" fill="currentColor"/>
<path d="M6.86784 9.56726L8.46776 11.1672L11.6676 6.90072M8.99899 3.70088C6.13264 3.64789 3.16816 5.86078 1.30443 8.12383C0.898605 8.63646 0.898605 9.35847 1.30443 9.8711C3.12976 12.0889 6.08358 14.352 8.99899 14.299C11.9144 14.3534 14.8711 12.0903 16.6957 9.87322C17.1015 9.36059 17.1015 8.63858 16.6957 8.12595C14.8298 5.86148 11.8675 3.6486 8.99899 3.70088Z" stroke="currentColor" stroke-linecap="round" stroke-linejoin="round" vector-effect="non-scaling-stroke"/>
</svg>
