<svg width="18" height="18" viewBox="0 0 18 18" fill="currentColor" xmlns="http://www.w3.org/2000/svg">
<path d="M9 17C13.4183 17 17 13.4183 17 9C17 4.58172 13.4183 1 9 1C4.58172 1 1 4.58172 1 9C1 13.4183 4.58172 17 9 17Z" fill="currentColor"/>
<path d="M9 4.3V10.3M9 12.5V12.5312M17 9C17 13.4183 13.4183 17 9 17C4.58172 17 1 13.4183 1 9C1 4.58172 4.58172 1 9 1C13.4183 1 17 4.58172 17 9ZM9.2 12.75C9.2 12.8881 9.08807 13 8.95 13C8.81192 13 8.7 12.8881 8.7 12.75C8.7 12.6119 8.81192 12.5 8.95 12.5C9.08807 12.5 9.2 12.6119 9.2 12.75Z" stroke="currentColor" stroke-linecap="round" stroke-linejoin="round" vector-effect="non-scaling-stroke"/>
</svg>
