<svg width="18" height="18" viewBox="0 0 18 18" fill="currentColor" xmlns="http://www.w3.org/2000/svg">
<path d="M6.86676 11.6786V7.92862L8.51298 3.96076C8.63293 3.69054 8.94825 3.56915 9.21727 3.68963C9.33747 3.74346 9.43361 3.84003 9.48721 3.96076L11.1334 7.92862V11.6786" fill="currentColor"/>
<path d="M6.86688 11.6786V7.92856M6.86688 7.92856L8.5131 3.9607C8.63305 3.69048 8.94837 3.56909 9.2174 3.68957C9.3376 3.7434 9.43374 3.83997 9.48733 3.9607L11.1335 7.92856M6.86688 7.92856L11.1335 7.92856M11.1335 7.92856V11.6786M6.33368 16.5H11.667M9.00018 14.3571V16.5M1.00018 11.6786H17.0002M1.39292 1.5H16.6075C16.8244 1.5 17.0002 1.67662 17.0002 1.89449V13.9627C17.0002 14.1805 16.8244 14.3571 16.6075 14.3571H1.39292C1.17602 14.3571 1.00018 14.1805 1.00018 13.9627V1.89449C1.00018 1.67662 1.17602 1.5 1.39292 1.5Z" stroke="currentColor" stroke-linecap="round" stroke-linejoin="round" vector-effect="non-scaling-stroke"/>
</svg>
