<svg width="18" height="18" viewBox="0 0 18 18" fill="currentColor" xmlns="http://www.w3.org/2000/svg">
<path d="M17 5.75105C17 4.3974 15.9048 3.30005 14.5538 3.30005H3.44622V3.30005C2.09521 3.30005 1 4.3974 1 5.75105V5.75105V12.249V12.249C1 13.6027 2.09521 14.7 3.44622 14.7H14.5538V14.7C15.9048 14.7 17 13.6027 17 12.249V12.249V5.75105ZM7.22222 11.8073V5.63705L12.0364 8.72217L7.22222 11.8073Z" fill="currentColor"/>
<path d="M17 5.75105C17 4.3974 15.9048 3.30005 14.5538 3.30005H3.44622C2.09521 3.30005 1 4.3974 1 5.75105V12.249C1 13.6027 2.09521 14.7 3.44622 14.7H14.5538C15.9048 14.7 17 13.6027 17 12.249V5.75105ZM7.22222 11.8073V5.63705L12.0364 8.72217L7.22222 11.8073Z" stroke="currentColor" stroke-linecap="round" stroke-linejoin="round" vector-effect="non-scaling-stroke"/>
</svg>
