<svg width="18" height="18" viewBox="0 0 18 18" fill="currentColor" xmlns="http://www.w3.org/2000/svg">
<path fill-rule="evenodd" clip-rule="evenodd" d="M16.9906 9.31153C17.0316 9.10309 16.9773 8.88724 16.8425 8.72302C16.7078 8.55881 16.5067 8.46342 16.2942 8.46295H7.88098C7.54346 8.46234 7.25284 8.22461 7.18533 7.89391L6.98759 6.90449C6.92009 6.57378 6.62946 6.33606 6.29194 6.33545H1.70903C1.49673 6.33613 1.29582 6.43161 1.16122 6.5958C1.02662 6.75998 0.972404 6.97571 1.01338 7.18403L2.85778 16.4309C2.92529 16.7616 3.21591 16.9994 3.55343 17H14.8759C15.2134 16.9994 15.5041 16.7616 15.5716 16.4309C15.8639 14.9713 16.6442 11.0428 16.9906 9.31153Z" fill="currentColor"/>
<path d="M3.66728 4.20085L3.68151 1.7113C3.68151 1.31846 3.99997 1 4.39281 1H13.6134C14.0062 1 14.3247 1.31846 14.3247 1.7113L14.3389 6.33475M5.80974 3.1282L11.6694 3.13389M9.00184 5.26782H11.6692M16.9906 9.31156C17.0316 9.10312 16.9773 8.88727 16.8425 8.72305C16.7078 8.55884 16.5067 8.46345 16.2942 8.46298H7.88098C7.54346 8.46237 7.25284 8.22464 7.18533 7.89394L6.98759 6.90452C6.92009 6.57381 6.62946 6.33609 6.29194 6.33548H1.70903C1.49673 6.33616 1.29582 6.43164 1.16122 6.59583C1.02662 6.76002 0.972404 6.97575 1.01338 7.18406L2.85778 16.431C2.92529 16.7617 3.21591 16.9994 3.55343 17H14.8759C15.2134 16.9994 15.5041 16.7617 15.5716 16.431C15.8639 14.9714 16.6442 11.0429 16.9906 9.31156Z" stroke="currentColor" stroke-linecap="round" stroke-linejoin="round" vector-effect="non-scaling-stroke"/>
</svg>
