<svg width="18" height="18" viewBox="0 0 18 18" fill="currentColor" xmlns="http://www.w3.org/2000/svg">
<path d="M10.0639 5.11672C10.0653 5.29923 10.1391 5.47373 10.269 5.60192C10.3991 5.72996 10.5747 5.80117 10.7572 5.79992H16.3039C16.4865 5.80103 16.6621 5.72963 16.7921 5.60138C16.9221 5.47313 16.9959 5.29852 16.9972 5.11592V1.68402C16.9956 1.50122 16.9216 1.32653 16.7913 1.19829C16.661 1.07005 16.4852 0.998738 16.3024 1.00002L10.7558 1.00932C10.5734 1.00833 10.398 1.07983 10.2683 1.20809C10.1385 1.33635 10.065 1.51088 10.0639 1.69332V5.11682V5.11672ZM10.7579 17C10.5735 16.9996 10.3968 16.9259 10.2666 16.7953C10.2021 16.7306 10.151 16.6539 10.1162 16.5694C10.0814 16.4849 10.0637 16.3945 10.0639 16.3031V8.63092C10.0634 8.49335 10.1037 8.35873 10.1798 8.2441C10.2559 8.12948 10.3642 8.04 10.4912 7.98702C10.5755 7.95183 10.6659 7.93359 10.7572 7.93332H16.3039C16.4414 7.93378 16.5758 7.975 16.6899 8.05177C16.804 8.12853 16.8928 8.2374 16.9451 8.36462C16.9798 8.4491 16.9975 8.53959 16.9972 8.63092V16.2931C16.9976 16.4774 16.925 16.6543 16.7951 16.7851C16.6653 16.9159 16.4889 16.9898 16.3046 16.9907L10.7579 17ZM7.9333 12.8833C7.93226 12.7472 7.89091 12.6144 7.81446 12.5018C7.73802 12.3892 7.62992 12.3017 7.5038 12.2505C7.42005 12.2165 7.3304 12.1993 7.24 12.2H1.6933C1.51069 12.1989 1.33509 12.2703 1.20509 12.3985C1.07509 12.5268 1.00133 12.7014 1 12.884V16.316C1.00159 16.4988 1.07564 16.6735 1.20591 16.8017C1.33618 16.93 1.51201 17.0013 1.6948 17L7.2414 16.9908C7.42383 16.9918 7.59918 16.9203 7.72892 16.792C7.85865 16.6638 7.93217 16.4892 7.9333 16.3068V12.8833V12.8833ZM7.2393 1.00002C7.42372 1.00047 7.60042 1.07409 7.7306 1.20472C7.7951 1.2694 7.8462 1.34617 7.88098 1.43063C7.91576 1.51509 7.93354 1.60558 7.9333 1.69692V9.36912C7.9338 9.50668 7.89346 9.64131 7.8174 9.75593C7.74133 9.87056 7.63296 9.96003 7.506 10.013C7.42172 10.0482 7.33133 10.0664 7.24 10.0667H1.6933C1.50889 10.0661 1.33227 9.99225 1.2022 9.86152C1.13782 9.79674 1.08682 9.71992 1.05212 9.63543C1.01743 9.55094 0.99972 9.46045 1 9.36912V1.70702C0.999578 1.52274 1.07225 1.34581 1.20209 1.21504C1.33192 1.08426 1.50832 1.01032 1.6926 1.00942L7.2393 1.00002Z" fill="currentColor"/>
<path d="M10.0639 5.11672C10.0653 5.29923 10.1391 5.47373 10.269 5.60192C10.3991 5.72996 10.5747 5.80117 10.7572 5.79992H16.3039C16.4865 5.80103 16.6621 5.72963 16.7921 5.60138C16.9221 5.47313 16.9959 5.29852 16.9972 5.11592V1.68402C16.9956 1.50122 16.9216 1.32653 16.7913 1.19829C16.661 1.07005 16.4852 0.998738 16.3024 1.00002L10.7558 1.00932C10.5734 1.00833 10.398 1.07983 10.2683 1.20809C10.1385 1.33635 10.065 1.51088 10.0639 1.69332V5.11682V5.11672ZM10.7579 17C10.5735 16.9996 10.3968 16.9259 10.2666 16.7953C10.2021 16.7306 10.151 16.6539 10.1162 16.5694C10.0814 16.4849 10.0637 16.3945 10.0639 16.3031V8.63092C10.0634 8.49335 10.1037 8.35873 10.1798 8.2441C10.2559 8.12948 10.3642 8.04 10.4912 7.98702C10.5755 7.95183 10.6659 7.93359 10.7572 7.93332H16.3039C16.4414 7.93378 16.5758 7.975 16.6899 8.05177C16.804 8.12853 16.8928 8.2374 16.9451 8.36462C16.9798 8.4491 16.9975 8.53959 16.9972 8.63092V16.2931C16.9976 16.4774 16.925 16.6543 16.7951 16.7851C16.6653 16.9159 16.4889 16.9898 16.3046 16.9907L10.7579 17ZM7.9333 12.8833C7.93226 12.7472 7.89091 12.6144 7.81446 12.5018C7.73802 12.3892 7.62992 12.3017 7.5038 12.2505C7.42005 12.2165 7.3304 12.1993 7.24 12.2H1.6933C1.51069 12.1989 1.33509 12.2703 1.20509 12.3985C1.07509 12.5268 1.00133 12.7014 1 12.884V16.316C1.00159 16.4988 1.07564 16.6735 1.20591 16.8017C1.33618 16.93 1.51201 17.0013 1.6948 17L7.2414 16.9908C7.42383 16.9918 7.59918 16.9203 7.72892 16.792C7.85865 16.6638 7.93217 16.4892 7.9333 16.3068V12.8833V12.8833ZM7.2393 1.00002C7.42372 1.00047 7.60042 1.07409 7.7306 1.20472C7.7951 1.2694 7.8462 1.34617 7.88098 1.43063C7.91576 1.51509 7.93354 1.60558 7.9333 1.69692V9.36912C7.9338 9.50668 7.89346 9.64131 7.8174 9.75593C7.74133 9.87056 7.63296 9.96003 7.506 10.013C7.42172 10.0482 7.33133 10.0664 7.24 10.0667H1.6933C1.50889 10.0661 1.33227 9.99225 1.2022 9.86152C1.13782 9.79674 1.08682 9.71992 1.05212 9.63543C1.01743 9.55094 0.99972 9.46045 1 9.36912V1.70702C0.999578 1.52274 1.07225 1.34581 1.20209 1.21504C1.33192 1.08426 1.50832 1.01032 1.6926 1.00942L7.2393 1.00002Z" stroke="currentColor" stroke-linecap="round" stroke-linejoin="round" vector-effect="non-scaling-stroke"/>
</svg>
