<svg width="18" height="18" viewBox="0 0 18 18" fill="currentColor" xmlns="http://www.w3.org/2000/svg">
<path d="M15.9333 3.1333H2.06667C1.47756 3.1333 1 3.61086 1 4.19997V15.9333C1 16.5224 1.47756 17 2.06667 17H15.9333C16.5224 17 17 16.5224 17 15.9333V4.19997C17 3.61086 16.5224 3.1333 15.9333 3.1333Z" fill="currentColor"/>
<path d="M1 7.4H17M5.26667 4.73333V1M12.7333 4.73333V1M2.06667 3.13333H15.9333C16.5224 3.13333 17 3.61089 17 4.2V15.9333C17 16.5224 16.5224 17 15.9333 17H2.06667C1.47756 17 1 16.5224 1 15.9333V4.2C1 3.61089 1.47756 3.13333 2.06667 3.13333Z" stroke="currentColor" stroke-linecap="round" stroke-linejoin="round" vector-effect="non-scaling-stroke"/>
</svg>
