<svg width="18" height="18" viewBox="0 0 18 18" fill="currentColor" xmlns="http://www.w3.org/2000/svg">
<path fill-rule="evenodd" clip-rule="evenodd" d="M8.51474 2.27975L1.07669 15.1599C0.918863 15.4278 1.01245 15.7703 1.28571 15.925C1.36981 15.9726 1.4649 15.9984 1.562 16H16.4381C16.7536 15.9949 17.0052 15.74 16.9999 15.4307C16.9983 15.3356 16.972 15.2424 16.9234 15.1599L9.48535 2.27974C9.33619 2.01704 8.99799 1.9226 8.72997 2.0688C8.63958 2.1181 8.56504 2.19116 8.51474 2.27974V2.27975Z" fill="currentColor"/>
<path fill-rule="evenodd" clip-rule="evenodd" d="M8.51474 2.27975L1.07669 15.1599V15.1599C0.918863 15.4278 1.01245 15.7703 1.28571 15.925C1.36981 15.9726 1.4649 15.9984 1.562 16H16.4381V16C16.7536 15.9949 17.0052 15.74 16.9999 15.4307C16.9983 15.3356 16.972 15.2424 16.9234 15.1599L9.48535 2.27974V2.27974C9.33619 2.01704 8.99799 1.9226 8.72997 2.0688C8.63958 2.1181 8.56504 2.19116 8.51474 2.27974V2.27975Z" stroke="currentColor" stroke-linecap="round" stroke-linejoin="round" vector-effect="non-scaling-stroke"/>
</svg>
