<svg width="18" height="18" viewBox="0 0 18 18" fill="currentColor" xmlns="http://www.w3.org/2000/svg">
<path fill-rule="evenodd" clip-rule="evenodd" d="M2.27973 9.48523L15.1592 16.9229C15.4268 17.0811 15.7695 16.9881 15.9246 16.7151C15.9725 16.6307 15.9985 16.5351 16 16.4376V1.56231V1.56231C15.9951 1.24679 15.7404 0.995073 15.4312 1.00007C15.3356 1.00162 15.242 1.02811 15.1592 1.07703L2.27973 8.51467C2.01704 8.66383 1.9226 9.00201 2.06879 9.27002C2.11809 9.3604 2.19115 9.43493 2.27973 9.48523H2.27973Z" fill="currentColor"/>
<path fill-rule="evenodd" clip-rule="evenodd" d="M2.27973 9.48523L15.1592 16.9229V16.9229C15.4268 17.0811 15.7695 16.9881 15.9246 16.7151C15.9725 16.6307 15.9985 16.5351 16 16.4376V1.56231V1.56231C15.9951 1.24679 15.7404 0.995073 15.4312 1.00007C15.3356 1.00162 15.242 1.02811 15.1592 1.07703L2.27973 8.51467V8.51467C2.01704 8.66383 1.9226 9.00201 2.06879 9.27002C2.11809 9.3604 2.19115 9.43493 2.27973 9.48523H2.27973Z" stroke="currentColor" stroke-linecap="round" stroke-linejoin="round" vector-effect="non-scaling-stroke"/>
</svg>
