<svg width="46" height="46" viewBox="0 0 46 46" fill="currentColor" xmlns="http://www.w3.org/2000/svg">
    <path d="M9.94596 33.1574C13.1535 33.1574 15.7519 30.559 15.7519 27.3514C15.7519 24.1438 13.1535 21.5455 9.94596 21.5455C6.73839 21.5455 4.14001 24.1438 4.14001 27.3514C4.14001 30.559 6.73839 33.1574 9.94596 33.1574Z" stroke="currentColor" stroke-miterlimit="10" stroke-linecap="round" stroke-linejoin="round" vector-effect="non-scaling-stroke"/>
    <path d="M1.24329 44.7568C1.24329 39.9454 5.13464 36.0541 9.94599 36.0541C14.7573 36.0541 18.6487 39.9454 18.6487 44.7568" stroke="currentColor" stroke-miterlimit="10" stroke-linecap="round" stroke-linejoin="round" vector-effect="non-scaling-stroke"/>
    <path d="M41.0768 24.4545C42.2952 26.568 42.059 29.2161 40.4925 31.081C38.926 32.9459 36.3525 33.6297 34.0649 32.7967C31.7774 31.9637 30.2482 29.788 30.2482 27.3513" stroke="currentColor" stroke-miterlimit="10" stroke-linecap="round" stroke-linejoin="round" vector-effect="non-scaling-stroke"/>
    <path d="M27.3513 44.7568C27.3513 39.9454 31.2427 36.0541 36.054 36.0541C40.8654 36.0541 44.7567 39.9454 44.7567 44.7568" stroke="currentColor" stroke-miterlimit="10" stroke-linecap="round" stroke-linejoin="round" vector-effect="non-scaling-stroke"/>
    <path d="M15.7518 18.6486H21.5578V27.3513L30.2605 18.6486H38.9632V1.24323H15.7518V18.6486Z" stroke="currentColor" stroke-miterlimit="10" stroke-linecap="round" stroke-linejoin="round" vector-effect="non-scaling-stroke"/>
    <path d="M21.5454 7.04913H33.1449" stroke="currentColor" stroke-miterlimit="10" stroke-linecap="round" stroke-linejoin="round" vector-effect="non-scaling-stroke"/>
    <path d="M21.5454 12.8428H33.1449" stroke="currentColor" stroke-miterlimit="10" stroke-linecap="round" stroke-linejoin="round" vector-effect="non-scaling-stroke"/>
</svg>