<svg width="18" height="18" viewBox="0 0 18 18" fill="currentColor" xmlns="http://www.w3.org/2000/svg">
<path d="M11.5823 5.67996C11.2449 7.8003 11.3067 10.8485 12.2732 12.7866C13.9205 13.4711 14.7338 15.3509 14.944 15.9085C14.9811 16.0055 15.0001 16.1085 15 16.2124C15 16.4637 14.9004 16.7048 14.7231 16.8825C14.5458 17.0602 14.3053 17.16 14.0545 17.16H3.94546C3.69471 17.16 3.45422 17.0602 3.27692 16.8825C3.09961 16.7048 3 16.4637 3 16.2124C2.99992 16.1085 3.01891 16.0055 3.056 15.9085C3.26618 15.3509 4.08027 13.4711 5.72754 12.7866C6.69481 10.8485 6.7559 7.79886 6.41845 5.6778L5.54537 5.68002C5.1596 5.68002 4.78963 5.52644 4.51685 5.25305C4.24407 4.97966 4.09082 4.60887 4.09082 4.22225V2.40002H13.909V4.22225C13.909 4.60887 13.7558 4.97966 13.483 5.25305C13.2102 5.52644 12.8402 5.68002 12.4545 5.68002L11.5823 5.67996Z" fill="currentColor"/>
<path d="M13.9091 2.44005V0.800049M13.9091 2.44005L4.09082 2.4401M13.9091 2.44005L13.909 4.26232C13.909 4.64895 13.7558 5.01974 13.483 5.29312C13.2102 5.56651 12.8402 5.7201 12.4545 5.7201H5.54537C5.1596 5.7201 4.78963 5.56651 4.51685 5.29312C4.24407 5.01974 4.09082 4.64895 4.09082 4.26232V2.4401M12.2732 12.8267C11.3067 10.8886 11.2449 7.84038 11.5823 5.72004M12.2732 12.8267C13.9205 13.5111 14.7338 15.391 14.944 15.9486C14.9811 16.0456 15.0001 16.1486 15 16.2525C15 16.5038 14.9004 16.7448 14.7231 16.9225C14.5458 17.1002 14.3053 17.2001 14.0545 17.2001H3.94545C3.6947 17.2001 3.45422 17.1002 3.27692 16.9225C3.09961 16.7448 3 16.5038 3 16.2525C2.99992 16.1486 3.01891 16.0456 3.056 15.9486C3.26618 15.391 4.08027 13.5111 5.72754 12.8267M12.2732 12.8267L5.72754 12.8267M5.72754 12.8267C6.69481 10.8886 6.7559 7.83893 6.41845 5.71787M4.09082 2.4401L4.09101 0.800049M9.00029 2.44005V0.800049" stroke="currentColor" stroke-linecap="round" stroke-linejoin="round" vector-effect="non-scaling-stroke"/>
</svg>
