<svg width="18" height="18" viewBox="0 0 18 18" fill="currentColor" xmlns="http://www.w3.org/2000/svg">
<path d="M12.7331 16.9999C15.0895 16.9999 16.9998 15.0896 16.9998 12.7332C16.9998 10.3768 15.0895 8.46655 12.7331 8.46655C10.3767 8.46655 8.46643 10.3768 8.46643 12.7332C8.46643 15.0896 10.3767 16.9999 12.7331 16.9999Z" fill="currentColor"/>
<path d="M12.7335 10.6V14.8667M10.5997 12.7333H14.8664M1 12.7333C1.00054 11.9398 1.19772 11.1588 1.57391 10.4601C1.9501 9.76138 2.49357 9.16679 3.15573 8.72949C3.81789 8.29218 4.5781 8.02578 5.36839 7.9541C6.15868 7.88243 6.95442 8.00771 7.68445 8.31876M16.9998 12.7333C16.9998 15.0898 15.0895 17 12.7331 17C10.3767 17 8.46643 15.0898 8.46643 12.7333C8.46643 10.3769 10.3767 8.46667 12.7331 8.46667C15.0895 8.46667 16.9998 10.3769 16.9998 12.7333ZM5.80006 6.86667C7.4201 6.86667 8.7334 5.55337 8.7334 3.93334C8.7334 2.3133 7.4201 1 5.80006 1C4.18003 1 2.86673 2.3133 2.86673 3.93334C2.86673 5.55337 4.18003 6.86667 5.80006 6.86667Z" stroke="currentColor" stroke-linecap="round" stroke-linejoin="round" vector-effect="non-scaling-stroke"/>
</svg>
