<svg width="20" height="18" viewBox="0 0 20 18" fill="currentColor" xmlns="http://www.w3.org/2000/svg">
<path d="M17.3667 2.75H2.63333C2.00741 2.75 1.5 3.25877 1.5 3.88636V14.1136C1.5 14.7412 2.00741 15.25 2.63333 15.25H17.3667C17.9926 15.25 18.5 14.7412 18.5 14.1136V3.88636C18.5 3.25877 17.9926 2.75 17.3667 2.75Z" fill="currentColor"/>
<path d="M1.5 6.15912H18.5M4.8999 9.56818H11.1332M4.8999 11.8409H8.86657M2.63333 2.75H17.3667C17.9926 2.75 18.5 3.25877 18.5 3.88636V14.1136C18.5 14.7412 17.9926 15.25 17.3667 15.25H2.63333C2.00741 15.25 1.5 14.7412 1.5 14.1136V3.88636C1.5 3.25877 2.00741 2.75 2.63333 2.75Z" stroke="currentColor" stroke-linecap="round" stroke-linejoin="round" vector-effect="non-scaling-stroke"/>
</svg>
