<svg width="18" height="18" viewBox="0 0 18 18" fill="currentColor" xmlns="http://www.w3.org/2000/svg">
<path d="M15.9333 6H2.06667C1.47756 6 1 6.4701 1 7.05V15.45C1 16.0299 1.47756 16.5 2.06667 16.5H15.9333C16.5224 16.5 17 16.0299 17 15.45V7.05C17 6.4701 16.5224 6 15.9333 6Z" fill="currentColor"/>
<path d="M11.6216 9.8325L14.333 12.3M6.37846 9.8325L3.66699 12.3M16.7365 6.3598L9.97167 10.9518C9.6859 11.146 9.34685 11.25 8.99959 11.25C8.65232 11.25 8.31327 11.146 8.0275 10.9518L1.2627 6.3598M2.06667 6H15.9333C16.5224 6 17 6.4701 17 7.05V15.45C17 16.0299 16.5224 16.5 15.9333 16.5H2.06667C1.47756 16.5 1 16.0299 1 15.45V7.05C1 6.4701 1.47756 6 2.06667 6Z" stroke="currentColor" stroke-linecap="round" stroke-linejoin="round" vector-effect="non-scaling-stroke"/>
</svg>
