<svg width="44" height="44" viewBox="0 0 44 44" fill="currentColor" xmlns="http://www.w3.org/2000/svg">
    <path d="M31.5407 42.4444C37.5627 42.4444 42.4444 37.5627 42.4444 31.5407C42.4444 25.5188 37.5627 20.637 31.5407 20.637C25.5188 20.637 20.637 25.5188 20.637 31.5407C20.637 37.5627 25.5188 42.4444 31.5407 42.4444Z" stroke="currentColor" stroke-linecap="round" stroke-linejoin="round" vector-effect="non-scaling-stroke"/>
    <path d="M26.0912 31.537H36.9949" stroke="currentColor" stroke-linecap="round" stroke-linejoin="round" vector-effect="non-scaling-stroke"/>
    <path d="M36.995 31.537L32.9061 35.6259" stroke="currentColor" stroke-linecap="round" stroke-linejoin="round" vector-effect="non-scaling-stroke"/>
    <path d="M36.995 31.537L32.9061 27.4481" stroke="currentColor" stroke-linecap="round" stroke-linejoin="round" vector-effect="non-scaling-stroke"/>
    <path d="M15.1852 28.8148H4.28147H4.28147C2.77598 28.8148 1.55554 27.5944 1.55554 26.0889V26.0889V4.28147V4.28147C1.55554 2.77598 2.77598 1.55554 4.28147 1.55554H36.9926V1.55554C38.4981 1.55554 39.7185 2.77598 39.7185 4.28147V16.5445" stroke="currentColor" stroke-linecap="round" stroke-linejoin="round" vector-effect="non-scaling-stroke"/>
    <path d="M39.101 2.55145L24.301 13.9386V13.9386C22.1407 15.6006 19.1322 15.6006 16.9719 13.9386L2.17194 2.55145" stroke="currentColor" stroke-linecap="round" stroke-linejoin="round" vector-effect="non-scaling-stroke"/>
</svg>