<svg width="18" height="20" viewBox="0 0 18 20" fill="currentColor" xmlns="http://www.w3.org/2000/svg">
<path d="M13.6 6.79409H10.4033V5.35162C10.3928 5.24629 10.4044 5.1399 10.4373 5.03937C10.4703 4.93884 10.5239 4.84641 10.5947 4.76807C10.6654 4.68974 10.7518 4.62725 10.8481 4.58467C10.9444 4.54208 11.0485 4.52035 11.1537 4.52088H13.4049V1.5H10.1557C7.20655 1.5 6.65125 3.76566 6.65125 5.17037V6.79409H4.40002V9.81497H6.65125V18.5H10.4033V9.81497H13.2924L13.6 6.79409Z" fill="currentColor"/>
<path d="M13.6 6.79409H10.4033V5.35162C10.3928 5.24629 10.4044 5.1399 10.4373 5.03937C10.4703 4.93884 10.5239 4.84641 10.5947 4.76807C10.6654 4.68974 10.7518 4.62725 10.8481 4.58467C10.9444 4.54208 11.0485 4.52035 11.1537 4.52088H13.4049V1.5H10.1557C7.20655 1.5 6.65125 3.76566 6.65125 5.17037V6.79409H4.40002V9.81497H6.65125V18.5H10.4033V9.81497H13.2924L13.6 6.79409Z" stroke="currentColor" stroke-linecap="round" stroke-linejoin="round" vector-effect="non-scaling-stroke"/>
</svg>
