<svg viewBox="0 0 18 20" fill="currentColor" xmlns="http://www.w3.org/2000/svg">
<path d="M16.6877 5.13498C16.8875 5.34744 16.9998 5.6355 16.9998 5.93587V16.8008C16.9996 17.2514 16.8311 17.6835 16.5312 18.0021C16.2313 18.3207 15.8247 18.4998 15.4006 18.5H2.60069C2.39058 18.5001 2.18251 18.4562 1.98835 18.3709C1.7942 18.2855 1.61777 18.1604 1.46913 18.0026C1.32049 17.8448 1.20256 17.6575 1.12206 17.4513C1.04157 17.245 1.00009 17.024 1 16.8008V3.20076C0.999907 2.97738 1.04125 2.75618 1.12166 2.54979C1.20206 2.3434 1.31997 2.15587 1.46862 1.99792C1.61728 1.83997 1.79378 1.7147 1.98802 1.62926C2.18227 1.54382 2.39046 1.4999 2.60069 1.5H12.8249C12.965 1.49993 13.1038 1.52919 13.2332 1.5861C13.3627 1.64301 13.4803 1.72647 13.5794 1.83169L16.6877 5.13498Z" fill="currentColor"/>
<path d="M12.7333 1.5V4.9C12.7333 5.20058 12.8457 5.48885 13.0457 5.70139C13.2458 5.91393 13.5171 6.03333 13.8 6.03333H17M16.6877 5.13498C16.8875 5.34744 16.9998 5.6355 16.9998 5.93587V16.8008C16.9996 17.2514 16.8311 17.6835 16.5312 18.0021C16.2313 18.3207 15.8247 18.4998 15.4006 18.5H2.60069C2.39058 18.5001 2.18251 18.4562 1.98835 18.3709C1.7942 18.2855 1.61777 18.1604 1.46913 18.0026C1.32049 17.8448 1.20256 17.6575 1.12206 17.4513C1.04157 17.245 1.00009 17.024 1 16.8008V3.20076C0.999907 2.97738 1.04125 2.75618 1.12166 2.54979C1.20206 2.3434 1.31997 2.15587 1.46862 1.99792C1.61728 1.83997 1.79378 1.7147 1.98802 1.62926C2.18227 1.54382 2.39046 1.4999 2.60069 1.5H12.8249C12.965 1.49993 13.1038 1.52919 13.2332 1.5861C13.3627 1.64301 13.4803 1.72647 13.5794 1.83169L16.6877 5.13498ZM6.52204 6.01371C6.47134 5.62297 6.34833 5.24678 6.16009 4.90682C6.06422 4.73785 5.93019 4.59698 5.77013 4.49698C5.61007 4.39697 5.42905 4.34099 5.24348 4.33411C5.00714 4.36115 4.78608 4.47129 4.61538 4.64704C4.44468 4.8228 4.33413 5.05411 4.30126 5.30424C4.24836 5.80994 4.37155 6.31872 4.64757 6.73451C5.5172 7.79938 6.45221 8.80193 7.44647 9.73557C8.55948 10.6938 9.81882 11.4424 11.1698 11.9486C11.5401 12.1319 11.9447 12.2234 12.3531 12.2161C12.557 12.2073 12.7532 12.1312 12.9144 11.9983C13.0757 11.8655 13.1939 11.6825 13.2526 11.4749C13.2747 11.3043 13.2546 11.1306 13.1943 10.9708C13.1339 10.811 13.0354 10.6707 12.9085 10.5637C12.6513 10.3535 12.349 10.2146 12.0288 10.1594C10.7539 9.96165 9.45262 10.1082 8.24504 10.5856C7.09163 10.9634 3.721 12.1473 3.87602 15.1582C3.87586 15.2583 3.89753 15.3571 3.93931 15.4468C4.00089 15.533 4.08421 15.599 4.17961 15.637C4.27501 15.6749 4.37858 15.6834 4.47833 15.6614C4.72816 15.6096 4.96514 15.5032 5.17423 15.3489C5.38331 15.1947 5.55993 14.9959 5.69289 14.7653C6.47013 13.5995 6.5512 12.1133 6.65288 10.7374C6.80288 9.16352 6.7589 7.57553 6.52204 6.01371Z" stroke="currentColor" stroke-linecap="round" stroke-linejoin="round" vector-effect="non-scaling-stroke"/>
</svg>
