<svg width="18" height="18" viewBox="0 0 18 18" fill="currentColor" xmlns="http://www.w3.org/2000/svg">
<path d="M1 13.059L3.24284 12.3692C4.17192 12.0832 5.15133 11.9986 6.11567 12.1213C7.08002 12.2439 8.0071 12.5708 8.83502 13.0803C9.64296 13.5783 10.5457 13.9026 11.4859 14.0326C12.426 14.1626 13.3829 14.0955 14.2956 13.8355L16.4197 13.2282C16.5869 13.1804 16.734 13.0795 16.8387 12.9407C16.9434 12.8018 17 12.6327 17 12.4588V4.11958C16.9999 3.9958 16.9711 3.87372 16.9158 3.76295C16.8606 3.65217 16.7804 3.55572 16.6816 3.48116C16.5828 3.4066 16.468 3.35597 16.3463 3.33324C16.2246 3.31051 16.0993 3.3163 15.9803 3.35016L14.2956 3.83158C13.3832 4.09221 12.4264 4.16005 11.4863 4.03076C10.5462 3.90148 9.64327 3.57791 8.83502 3.08065C8.0071 2.57119 7.08002 2.24424 6.11567 2.12161C5.15133 1.99898 4.17192 2.08351 3.24284 2.36954L1 3.05861" fill="currentColor"/>
<path d="M1 13.059L3.24284 12.3692C4.17192 12.0832 5.15133 11.9986 6.11567 12.1213C7.08002 12.2439 8.0071 12.5709 8.83502 13.0803C9.64296 13.5783 10.5457 13.9026 11.4859 14.0326C12.426 14.1626 13.3829 14.0955 14.2956 13.8355L16.4197 13.2282C16.5869 13.1805 16.734 13.0795 16.8387 12.9407C16.9434 12.8019 17 12.6327 17 12.4588V4.11961C16.9999 3.99582 16.9711 3.87374 16.9158 3.76297C16.8606 3.6522 16.7804 3.55574 16.6816 3.48118C16.5828 3.40662 16.468 3.35599 16.3463 3.33326C16.2246 3.31053 16.0993 3.31632 15.9803 3.35018L14.2956 3.83161C13.3832 4.09224 12.4264 4.16007 11.4863 4.03079C10.5462 3.9015 9.64327 3.57793 8.83502 3.08067C8.0071 2.57122 7.08002 2.24426 6.11567 2.12163C5.15133 1.999 4.17192 2.08353 3.24284 2.36956L1 3.05863M1 17V1" stroke="currentColor" stroke-linecap="round" stroke-linejoin="round" vector-effect="non-scaling-stroke"/>
</svg>
