<svg width="18" height="18" viewBox="0 0 18 18" fill="currentColor" xmlns="http://www.w3.org/2000/svg">
<path d="M3.6556 9.53705H5.07783C5.17213 9.53705 5.26256 9.59324 5.32924 9.69326C5.39592 9.79328 5.43338 9.92893 5.43338 10.0704V14.7306V16.7667H6.65646H7.56714V15.9V3.43336C7.56714 3.29191 7.62333 3.15625 7.72335 3.05623C7.82337 2.95621 7.95902 2.90002 8.10047 2.90002H10.2338C10.3753 2.90002 10.5109 2.95621 10.6109 3.05623C10.7109 3.15625 10.7671 3.29191 10.7671 3.43336V15.9V16.4H12.7817V6.69264C12.7817 6.55119 12.8379 6.41553 12.9379 6.31551C13.038 6.21549 13.1736 6.1593 13.3151 6.1593H15.4484C15.5899 6.1593 15.7255 6.21549 15.8255 6.31551C15.9255 6.41553 15.9817 6.55119 15.9817 6.69264V16.826L9.30005 16.9L3.30005 17.0037V10.0704C3.30005 9.92893 3.33751 9.79328 3.40419 9.69326C3.47087 9.59324 3.56131 9.53705 3.6556 9.53705Z" fill="currentColor"/>
<path d="M1 1V17H17M5.0889 9.53335H3.66668C3.57238 9.53335 3.48194 9.58954 3.41526 9.68956C3.34858 9.78958 3.31112 9.92523 3.31112 10.0667V17H5.44445V10.0667C5.44445 9.92523 5.40699 9.78958 5.34031 9.68956C5.27363 9.58954 5.1832 9.53335 5.0889 9.53335ZM10.2448 2.89631H8.11146C7.97001 2.89631 7.83435 2.9525 7.73433 3.05252C7.63432 3.15254 7.57812 3.2882 7.57812 3.42965V16.763H10.7781V3.42965C10.7781 3.2882 10.7219 3.15254 10.6219 3.05252C10.5219 2.9525 10.3862 2.89631 10.2448 2.89631ZM15.4594 6.15556H13.3261C13.1846 6.15556 13.049 6.21175 12.9489 6.31177C12.8489 6.41179 12.7927 6.54744 12.7927 6.68889V16.8222H15.9927V6.68889C15.9927 6.54744 15.9365 6.41179 15.8365 6.31177C15.7365 6.21175 15.6009 6.15556 15.4594 6.15556Z" stroke="currentColor" stroke-linecap="round" stroke-linejoin="round" vector-effect="non-scaling-stroke"/>
</svg>
