<svg width="18" height="12" viewBox="0 0 18 12" fill="currentColor" xmlns="http://www.w3.org/2000/svg">
<path d="M15.2175 7.75511L11.3475 8.49761M10.812 3.35859L8.211 4.21809C7.79434 4.35525 7.34105 4.15813 7.15725 3.75984C6.95831 3.33294 7.13387 2.82519 7.554 2.61234L10.0732 1.34559C10.5073 1.1267 11.0126 1.09738 11.469 1.26459L15.1987 2.62884M2.76374 7.76106H4.59749L7.23149 10.7131C7.59465 11.1339 8.23022 11.1807 8.65106 10.8175C8.87246 10.6264 8.99982 10.3485 8.99999 10.0561V9.59481L9.13124 9.64731C9.76812 9.90205 10.4909 9.59227 10.7457 8.95539C10.8043 8.80882 10.8344 8.65242 10.8345 8.49456H11.2012C11.8093 8.49415 12.3019 8.00088 12.3015 7.39281C12.3013 7.1551 12.2242 6.92383 12.0817 6.73356L9.72749 3.71706M7.93725 2.41883L7.66875 2.19758C7.39819 1.99834 7.071 1.89086 6.735 1.89083C6.53479 1.89075 6.33643 1.9292 6.15075 2.00408L2.8125 3.33908M0.5625 2.06261H2.0625C2.459 2.04608 2.79426 2.35318 2.8125 2.74961V7.56236C2.79426 7.95889 2.45913 8.26621 2.0625 8.25011H0.5625M17.4375 8.25011H15.9375C15.5409 8.26621 15.2057 7.95889 15.1875 7.56236V2.74961C15.2057 2.35318 15.541 2.04608 15.9375 2.06261H17.4375M9 9.59256L8.265 8.85756M10.8375 8.49761L9.735 7.39511" stroke="currentColor" stroke-linecap="round" stroke-linejoin="round" vector-effect="non-scaling-stroke"/>
</svg>
