<svg width="18" height="18" viewBox="0 0 18 18" fill="currentColor" xmlns="http://www.w3.org/2000/svg">
<path d="M16.4375 13.2857C16.4375 15.0609 15.0104 16.5 13.25 16.5H3.6875C1.92709 16.5 0.5 15.0609 0.5 13.2857C0.5 11.5105 1.92709 10.0714 3.6875 10.0714H13.25C15.0104 10.0714 16.4375 11.5105 16.4375 13.2857Z" fill="currentColor"/>
<path d="M16.8531 12.5521L14.6657 3.15357C14.4405 2.18507 13.5839 1.50025 12.5974 1.5H5.34052C4.35377 1.49992 3.49678 2.18481 3.27148 3.15357L1.08414 12.5521M4.18741 13.2857H6.84366M16.9375 13.2857C16.9375 15.0609 15.5104 16.5 13.75 16.5H4.1875C2.42709 16.5 1 15.0609 1 13.2857C1 11.5105 2.42709 10.0714 4.1875 10.0714H13.75C15.5104 10.0714 16.9375 11.5105 16.9375 13.2857ZM13.4843 13.0178C13.3376 13.0178 13.2186 13.1377 13.2186 13.2857C13.2186 13.4336 13.3376 13.5535 13.4843 13.5535C13.631 13.5535 13.7499 13.4336 13.7499 13.2857C13.7499 13.1377 13.631 13.0178 13.4843 13.0178ZM11.0938 13.0178C10.9471 13.0178 10.8282 13.1377 10.8282 13.2857C10.8282 13.4336 10.9471 13.5535 11.0938 13.5535C11.2405 13.5535 11.3594 13.4336 11.3594 13.2857C11.3594 13.1377 11.2405 13.0178 11.0938 13.0178Z" stroke="currentColor" stroke-linecap="round" stroke-linejoin="round" vector-effect="non-scaling-stroke"/>
</svg>
