<svg width="20" height="18" viewBox="0 0 20 18" fill="currentColor" xmlns="http://www.w3.org/2000/svg">
<path d="M10.0003 16.5L2.75635 8.88051C2.11969 8.23895 1.69949 7.41152 1.55533 6.51557C1.41118 5.61963 1.55039 4.70066 1.95322 3.88899C2.25698 3.27648 2.70071 2.74552 3.24785 2.33986C3.79499 1.93421 4.42987 1.66547 5.10018 1.55579C5.7705 1.44611 6.45706 1.49863 7.1033 1.70902C7.74955 1.91941 8.33697 2.28164 8.81718 2.76588L10.0003 3.95833L11.1835 2.76588C11.6637 2.28164 12.2511 1.91941 12.8974 1.70902C13.5436 1.49863 14.2302 1.44611 14.9005 1.55579C15.5708 1.66547 16.2057 1.93421 16.7528 2.33986C17.3 2.74552 17.7437 3.27648 18.0474 3.88899C18.4497 4.70034 18.5887 5.61877 18.4447 6.5142C18.3007 7.40964 17.881 8.23668 17.2451 8.87822L10.0003 16.5Z" fill="currentColor"/>
<path d="M10.0003 16.5L2.75635 8.88051C2.11969 8.23895 1.69949 7.41152 1.55533 6.51557C1.41118 5.61963 1.55039 4.70066 1.95322 3.88899C2.25698 3.27648 2.70071 2.74552 3.24785 2.33986C3.79499 1.93421 4.42987 1.66547 5.10018 1.55579C5.7705 1.44611 6.45706 1.49863 7.1033 1.70902C7.74955 1.91941 8.33697 2.28164 8.81718 2.76588L10.0003 3.95833M10.0003 16.5L17.2451 8.87822C17.881 8.23668 18.3007 7.40964 18.4447 6.5142C18.5887 5.61877 18.4497 4.70034 18.0474 3.88899C17.7437 3.27648 17.3 2.74552 16.7528 2.33986C16.2057 1.93421 15.5708 1.66547 14.9005 1.55579C14.2302 1.44611 13.5436 1.49863 12.8974 1.70902C12.2511 1.91941 11.6637 2.28164 11.1835 2.76588L10.0003 3.95833M10.0003 16.5L11.5443 11.8247C11.5874 11.6942 11.5825 11.5524 11.5303 11.4253C11.4781 11.2982 11.3822 11.1944 11.2602 11.1328L8.29478 9.64016C8.19717 9.59073 8.11578 9.51394 8.06038 9.419C8.00498 9.32407 7.97793 9.21502 7.98248 9.10496C7.98703 8.9949 8.02298 8.88851 8.08601 8.79855C8.14905 8.70859 8.2365 8.63889 8.33785 8.59782L12.0309 7.10516C12.1181 7.06982 12.1953 7.01317 12.2554 6.94031C12.3156 6.86744 12.3568 6.78065 12.3755 6.68772C12.3941 6.59479 12.3896 6.49865 12.3623 6.40792C12.335 6.3172 12.2857 6.23475 12.219 6.16797L10.0003 3.95833" stroke="currentColor" stroke-linecap="round" stroke-linejoin="round" vector-effect="non-scaling-stroke"/>
</svg>
