<svg width="20" height="18" viewBox="0 0 20 18" fill="currentColor" xmlns="http://www.w3.org/2000/svg">
<path d="M10.0003 16.5L2.75635 8.88052C2.11969 8.23896 1.69949 7.41153 1.55533 6.51558C1.41118 5.61964 1.55039 4.70066 1.95322 3.88899C2.25698 3.27648 2.70071 2.74552 3.24785 2.33987C3.79499 1.93421 4.42987 1.66547 5.10018 1.55579C5.7705 1.44611 6.45706 1.49863 7.1033 1.70902C7.74955 1.91941 8.33697 2.28164 8.81718 2.76588L10.0003 3.95833L11.1835 2.76588C11.6637 2.28164 12.2511 1.91941 12.8974 1.70902C13.5436 1.49863 14.2302 1.44611 14.9005 1.55579C15.5708 1.66547 16.2057 1.93421 16.7528 2.33987C17.3 2.74552 17.7437 3.27648 18.0474 3.88899C18.4497 4.70035 18.5887 5.61878 18.4447 6.51421C18.3007 7.40964 17.881 8.23669 17.2451 8.87823L10.0003 16.5Z" fill="currentColor" stroke="currentColor" stroke-linecap="round" stroke-linejoin="round" vector-effect="non-scaling-stroke"/>
</svg>
