<svg width="18" height="18" viewBox="0 0 18 18" fill="currentColor" xmlns="http://www.w3.org/2000/svg">
<path d="M8.99989 12.5554C10.9636 12.5554 12.5554 10.9636 12.5554 8.99989C12.5554 7.03621 10.9636 5.44434 8.99989 5.44434C7.03621 5.44434 5.44434 7.03621 5.44434 8.99989C5.44434 10.9636 7.03621 12.5554 8.99989 12.5554Z" fill="currentColor"/>
<path d="M12.7333 1H5.26667C2.91025 1 1 2.91025 1 5.26667V12.7333C1 15.0897 2.91025 17 5.26667 17H12.7333C15.0897 17 17 15.0897 17 12.7333V5.26667C17 2.91025 15.0897 1 12.7333 1Z" stroke="currentColor" stroke-linecap="round" stroke-linejoin="round" vector-effect="non-scaling-stroke"/>
<path d="M8.99995 12.5556C10.9636 12.5556 12.5555 10.9637 12.5555 9.00001C12.5555 7.03633 10.9636 5.44445 8.99995 5.44445C7.03627 5.44445 5.44439 7.03633 5.44439 9.00001C5.44439 10.9637 7.03627 12.5556 8.99995 12.5556Z" stroke="currentColor" stroke-linecap="round" stroke-linejoin="round" vector-effect="non-scaling-stroke"/>
<path d="M14.2267 4.12888C14.2267 4.22318 14.1893 4.31361 14.1226 4.38029C14.0559 4.44697 13.9655 4.48443 13.8712 4.48443C13.7769 4.48443 13.6864 4.44697 13.6198 4.38029C13.5531 4.31361 13.5156 4.22318 13.5156 4.12888" stroke="currentColor" stroke-linecap="round" stroke-linejoin="round" vector-effect="non-scaling-stroke"/>
<path d="M13.5156 4.12888C13.5156 4.03458 13.5531 3.94414 13.6198 3.87746C13.6864 3.81078 13.7769 3.77332 13.8712 3.77332C13.9655 3.77332 14.0559 3.81078 14.1226 3.87746C14.1893 3.94414 14.2267 4.03458 14.2267 4.12888" stroke="currentColor" stroke-linecap="round" stroke-linejoin="round" vector-effect="non-scaling-stroke"/>
</svg>
