<svg width="18" height="17" viewBox="0 0 18 17" fill="currentColor" xmlns="http://www.w3.org/2000/svg">
<g clip-path="url(#clip0)">
<path d="M5.34296 1.8404H12.6561H5.34296ZM9.10827 3.18141V5.99835V3.18141ZM7.6998 4.58988H10.5167H7.6998ZM12.6561 3.36364C12.6561 5.50503 11.1107 7.33332 8.99954 7.69072C6.88835 7.33433 5.34296 5.50503 5.34296 3.36364V0.864839C5.34296 0.596032 5.56142 0.377563 5.83023 0.377563H12.1688C12.4376 0.377563 12.6561 0.596032 12.6561 0.864839V3.36364Z" fill="currentColor" stroke="currentColor" stroke-miterlimit="10" stroke-linecap="round" stroke-linejoin="round" vector-effect="non-scaling-stroke"/>
<path d="M10.9164 12.1799C11.2919 12.1799 11.592 12.0118 11.7057 11.6795C11.8859 11.151 11.5044 10.6214 10.9255 10.6154C10.1009 10.6073 9.27639 10.6083 8.45285 10.6154C8.1619 10.6184 7.90014 10.5479 7.64844 10.405C7.00311 10.0375 6.35273 9.67908 5.7074 9.3096C5.34395 9.10119 4.95735 9.00052 4.53854 9.00253C3.714 9.00757 2.88945 9.00455 2.06491 9.00455C2.00048 9.00455 1.93504 9.01059 1.86456 9.01361C1.86456 10.6355 1.86456 12.2413 1.86456 13.8743C2.674 13.9458 3.37673 14.2558 4.03918 14.6837C4.52847 14.9998 5.03387 15.2898 5.53524 15.5858C6.84806 16.361 8.21123 16.4687 9.61265 15.8586C11.5386 15.02 13.4595 14.1683 15.3814 13.3216C15.9815 13.0578 16.5835 12.798 17.1805 12.5272C17.5097 12.3782 17.6769 12.0349 17.6044 11.6997C17.5279 11.3413 17.2832 11.1238 16.9137 11.1157C16.7768 11.1127 16.6338 11.1459 16.503 11.1902C14.9707 11.7138 11.9665 12.2383 8.72971 12.351L10.9164 12.1799Z" fill="currentColor" stroke="currentColor" stroke-miterlimit="10" stroke-linecap="round" stroke-linejoin="round" vector-effect="non-scaling-stroke"/>
<path d="M2.36291 7.99578C1.7075 7.98773 1.05109 7.99276 0.377563 7.99276C0.377563 10.4785 0.377563 12.939 0.377563 15.4116C1.06015 15.4116 1.72965 15.4177 2.39815 15.4086C2.62266 15.4056 2.77367 15.2073 2.77468 14.9304C2.7777 12.782 2.7777 10.6335 2.77468 8.48507C2.77468 8.1911 2.61561 7.99881 2.36291 7.99578Z" fill="currentColor" stroke="currentColor" stroke-miterlimit="10" stroke-linecap="round" stroke-linejoin="round" vector-effect="non-scaling-stroke"/>
</g>
<defs>
<clipPath id="clip0">
<rect width="18" height="16.6288" fill="currentColor"/>
</clipPath>
</defs>
</svg>
