<svg width="18" height="20" viewBox="0 0 18 20" fill="currentColor" xmlns="http://www.w3.org/2000/svg">
<path d="M2.14286 1.5C1.83975 1.5 1.54906 1.6194 1.33474 1.83195C1.12041 2.04449 1 2.33276 1 2.63334V9.43335C1 13.0698 6.51162 17.1166 8.38514 18.3187C8.56802 18.437 8.78165 18.5 9 18.5C9.21835 18.5 9.43198 18.437 9.61486 18.3187C11.4884 17.1166 17 13.0698 17 9.43335V2.63334C17 2.4845 16.9704 2.33713 16.913 2.19963C16.8556 2.06212 16.7714 1.93719 16.6653 1.83195C16.5591 1.72671 16.4332 1.64323 16.2945 1.58627C16.1558 1.52931 16.0072 1.5 15.8571 1.5H2.14286Z" fill="currentColor"/>
<path d="M5 9.28522L6.86667 11.9153C6.93758 12.0201 7.03266 12.1065 7.14402 12.1675C7.25538 12.2285 7.3798 12.2623 7.50697 12.2661C7.63413 12.2698 7.76036 12.2435 7.8752 12.1892C7.99003 12.1349 8.09014 12.0542 8.16724 11.9538L14.1429 4.45343M2.14286 1.5C1.83975 1.5 1.54906 1.6194 1.33474 1.83195C1.12041 2.04449 1 2.33276 1 2.63334V9.43335C1 13.0698 6.51162 17.1166 8.38514 18.3187C8.56802 18.437 8.78165 18.5 9 18.5C9.21835 18.5 9.43198 18.437 9.61486 18.3187C11.4884 17.1166 17 13.0698 17 9.43335V2.63334C17 2.4845 16.9704 2.33713 16.913 2.19963C16.8556 2.06212 16.7714 1.93719 16.6653 1.83195C16.5591 1.72671 16.4332 1.64323 16.2945 1.58627C16.1558 1.52931 16.0072 1.5 15.8571 1.5H2.14286Z" stroke="currentColor" stroke-linecap="round" stroke-linejoin="round" vector-effect="non-scaling-stroke"/>
</svg>
