<svg width="20" height="19" viewBox="0 0 20 19" fill="currentColor" xmlns="http://www.w3.org/2000/svg">
<path d="M10 17.8608V3.79797" stroke="currentColor" stroke-miterlimit="10" stroke-linecap="round" stroke-linejoin="round" vector-effect="non-scaling-stroke"/>
<path d="M6.33621 17.8608H13.6593" stroke="currentColor" stroke-miterlimit="10" stroke-linecap="round" stroke-linejoin="round" vector-effect="non-scaling-stroke"/>
<path d="M11.2212 2.62688H15.4957" stroke="currentColor" stroke-miterlimit="10" stroke-linecap="round" stroke-linejoin="round" vector-effect="non-scaling-stroke"/>
<path d="M4.50888 2.62688H8.78331" stroke="currentColor" stroke-miterlimit="10" stroke-linecap="round" stroke-linejoin="round" vector-effect="non-scaling-stroke"/>
<path d="M10 3.79798C10.6744 3.79798 11.2213 3.27393 11.2213 2.62684C11.2213 1.97975 10.6744 1.4557 10 1.4557C9.32558 1.4557 8.77875 1.97975 8.77875 2.62684C8.77875 3.27393 9.32558 3.79798 10 3.79798Z" fill="currentColor" stroke="currentColor" stroke-miterlimit="10" stroke-linecap="round" stroke-linejoin="round" vector-effect="non-scaling-stroke"/>
<path d="M7.55746 10.8294C7.55746 12.4471 6.19037 13.7595 4.5043 13.7595C2.81822 13.7595 1.45569 12.4471 1.45569 10.8294H7.55746Z" fill="currentColor" stroke="currentColor" stroke-miterlimit="10" stroke-linecap="round" stroke-linejoin="round" vector-effect="non-scaling-stroke"/>
<path d="M4.50885 2.62688L1.45569 8.48713" stroke="currentColor" stroke-miterlimit="10" stroke-linecap="round" stroke-linejoin="round" vector-effect="non-scaling-stroke"/>
<path d="M4.50888 2.62688L7.56205 8.48713" stroke="currentColor" stroke-miterlimit="10" stroke-linecap="round" stroke-linejoin="round" vector-effect="non-scaling-stroke"/>
<path d="M18.5443 10.8294C18.5443 12.4471 17.1772 13.7595 15.4912 13.7595C13.8051 13.7595 12.438 12.4471 12.438 10.8294H18.5443Z" fill="currentColor" stroke="currentColor" stroke-miterlimit="10" stroke-linecap="round" stroke-linejoin="round" vector-effect="non-scaling-stroke"/>
<path d="M15.4912 2.62688L12.438 8.48713" stroke="currentColor" stroke-miterlimit="10" stroke-linecap="round" stroke-linejoin="round" vector-effect="non-scaling-stroke"/>
<path d="M15.4911 2.62688L18.5443 8.48713" stroke="currentColor" stroke-miterlimit="10" stroke-linecap="round" stroke-linejoin="round" vector-effect="non-scaling-stroke"/>
</svg>
