<svg width="18" height="18" viewBox="0 0 18 18" fill="currentColor" xmlns="http://www.w3.org/2000/svg">
<path d="M4.29172 6.5C4.63719 6.50068 4.97862 6.57527 5.29364 6.71888C5.5265 6.82503 5.81122 7.32751 6 7.5V8.5H12V7.5C12.1888 7.32748 12.4735 6.82499 12.7063 6.71883C13.0214 6.57521 13.3628 6.50064 13.7083 6.5H14.5312C15.186 6.5 15.8139 6.76339 16.2769 7.23223C16.7399 7.70107 17 8.33696 17 9C17 9.66304 16.7399 10.2989 16.2769 10.7678C15.8139 11.2366 15.186 11.5 14.5312 11.5H13.7083C13.3628 11.4993 13.0214 11.4246 12.7064 11.281C12.4735 11.1749 12.1888 10.6725 12 10.5V9.5H6V10.5C5.81117 10.6725 5.52642 11.1748 5.29356 11.2809C4.97855 11.4245 4.63717 11.4992 4.29172 11.5H3.46879C2.81402 11.5 2.18608 11.2366 1.72309 10.7678C1.2601 10.2989 1 9.66304 1 9C1 8.33696 1.2601 7.70107 1.72309 7.23223C2.18608 6.76339 2.81402 6.5 3.46879 6.5H4.29172Z" fill="currentColor"/>
<path d="M6.11971 7.33333C5.89017 7.07188 5.60867 6.86249 5.29364 6.71888C4.97862 6.57527 4.63719 6.50068 4.29172 6.5H3.46879C2.81402 6.5 2.18608 6.76339 1.72309 7.23223C1.2601 7.70107 1 8.33696 1 9C1 9.66304 1.2601 10.2989 1.72309 10.7678C2.18608 11.2366 2.81402 11.5 3.46879 11.5H4.29172C4.63717 11.4992 4.97855 11.4245 5.29356 11.2809C5.60856 11.1373 5.89008 10.928 6.11971 10.6667M11.8803 7.33333C12.1098 7.07185 12.3913 6.86244 12.7063 6.71883C13.0214 6.57521 13.3628 6.50064 13.7083 6.5H14.5312C15.186 6.5 15.8139 6.76339 16.2769 7.23223C16.7399 7.70107 17 8.33696 17 9C17 9.66304 16.7399 10.2989 16.2769 10.7678C15.8139 11.2366 15.186 11.5 14.5312 11.5H13.7083C13.3628 11.4993 13.0214 11.4246 12.7064 11.281C12.3914 11.1374 12.1099 10.9281 11.8803 10.6667M6.11963 9H11.8801" stroke="currentColor" stroke-linecap="round" stroke-linejoin="round" vector-effect="non-scaling-stroke"/>
</svg>
