<svg width="18" height="18" viewBox="0 0 18 18" fill="currentColor" xmlns="http://www.w3.org/2000/svg">
<path d="M6.33334 3.13333H17H6.33334ZM6.33334 9.53334H17H6.33334ZM6.33334 15.9333H17H6.33334ZM4.2 2.6C4.2 3.48366 3.48366 4.2 2.6 4.2C1.71634 4.2 1 3.48366 1 2.6C1 1.71634 1.71634 1 2.6 1C3.48366 1 4.2 1.71634 4.2 2.6ZM4.2 9.00001C4.2 9.88367 3.48366 10.6 2.6 10.6C1.71634 10.6 1 9.88367 1 9.00001C1 8.11636 1.71634 7.40001 2.6 7.40001C3.48366 7.40001 4.2 8.11636 4.2 9.00001ZM4.2 15.4C4.2 16.2837 3.48366 17 2.6 17C1.71634 17 1 16.2837 1 15.4C1 14.5163 1.71634 13.8 2.6 13.8C3.48366 13.8 4.2 14.5163 4.2 15.4Z" fill="currentColor"/>
<path d="M6.33334 3.13333H17H6.33334ZM6.33334 9.53334H17H6.33334ZM6.33334 15.9333H17H6.33334ZM4.2 2.6C4.2 3.48366 3.48366 4.2 2.6 4.2C1.71634 4.2 1 3.48366 1 2.6C1 1.71634 1.71634 1 2.6 1C3.48366 1 4.2 1.71634 4.2 2.6ZM4.2 9.00001C4.2 9.88367 3.48366 10.6 2.6 10.6C1.71634 10.6 1 9.88367 1 9.00001C1 8.11636 1.71634 7.40001 2.6 7.40001C3.48366 7.40001 4.2 8.11636 4.2 9.00001ZM4.2 15.4C4.2 16.2837 3.48366 17 2.6 17C1.71634 17 1 16.2837 1 15.4C1 14.5163 1.71634 13.8 2.6 13.8C3.48366 13.8 4.2 14.5163 4.2 15.4Z" stroke="currentColor" stroke-linecap="round" stroke-linejoin="round" vector-effect="non-scaling-stroke"/>
</svg>
