<svg width="18" height="18" viewBox="0 0 18 18" fill="currentColor" xmlns="http://www.w3.org/2000/svg">
<path d="M14.3075 7.40002H3.69242C3.36522 7.40002 3.09998 7.66377 3.09998 7.98912V16.4109C3.09998 16.7363 3.36522 17 3.69242 17H14.3075C14.6347 17 14.9 16.7363 14.9 16.4109V7.98912C14.9 7.66377 14.6347 7.40002 14.3075 7.40002Z" fill="currentColor"/>
<path d="M5.24506 7.4V4.73333C5.24506 2.67147 6.92603 1 8.99961 1C11.0732 1 12.7542 2.67147 12.7542 4.73333V7.4M8.99995 11.1333V13.2666M3.69242 7.39999H14.3075C14.6347 7.39999 14.9 7.66374 14.9 7.98909V16.4109C14.9 16.7362 14.6347 17 14.3075 17H3.69242C3.36522 17 3.09998 16.7362 3.09998 16.4109V7.98909C3.09998 7.66374 3.36522 7.39999 3.69242 7.39999Z" stroke="currentColor" stroke-linecap="round" stroke-linejoin="round" vector-effect="non-scaling-stroke"/>
</svg>
