<svg width="18" height="18" viewBox="0 0 18 18" fill="currentColor" xmlns="http://www.w3.org/2000/svg">
<path d="M5.1499 11.465H5.1499C8.37741 11.4653 11.5327 12.4168 14.2183 14.1997L15.0499 14.7519V2.69995L14.2183 3.25215L14.2183 3.25215C11.5327 5.03507 8.37741 5.98659 5.1499 5.98686V11.465Z" fill="currentColor"/>
<path d="M5.15 11.4651H3.5C1.98122 11.4651 0.75 10.2388 0.75 8.726C0.75 7.21324 1.98122 5.98691 3.5 5.98691H5.15M5.15 11.4651V5.98691M5.15 11.4651C8.37751 11.4654 11.5326 12.4168 14.2183 14.1997L15.0499 14.7519V2.69995L14.2183 3.25215C11.5326 5.03507 8.37751 5.98664 5.15 5.98691M5.15 11.4651C5.14913 12.9146 5.7456 14.301 6.80011 15.2999M17.25 7.6303V9.82157" stroke="currentColor" stroke-linecap="round" stroke-linejoin="round" vector-effect="non-scaling-stroke"/>
</svg>
