<svg width="18" height="18" viewBox="0 0 18 18" fill="currentColor" xmlns="http://www.w3.org/2000/svg">
<path d="M16.246 1.75401V1.75401C15.2333 0.745618 13.5948 0.749117 12.5864 1.76183C12.5808 1.76749 12.5752 1.77319 12.5696 1.7789L2.25865 12.0899L1 17L5.91015 15.7406L16.2211 5.42969V5.42969C17.2429 4.43164 17.2622 2.79422 16.2641 1.7724C16.2581 1.76624 16.2521 1.76011 16.246 1.75401L16.246 1.75401Z" fill="currentColor"/>
<path d="M12.2781 2.074L15.926 5.72194M2.25878 12.0863L5.91383 15.7342M16.246 1.75401C15.2333 0.745618 13.5948 0.749117 12.5864 1.76183C12.5808 1.76749 12.5752 1.77319 12.5696 1.7789L2.25865 12.0899L1 17L5.91015 15.7406L16.2211 5.42969C17.2429 4.43164 17.2622 2.79422 16.2641 1.7724C16.2581 1.76624 16.2521 1.76011 16.246 1.75401Z" stroke="currentColor" stroke-linecap="round" stroke-linejoin="round" vector-effect="non-scaling-stroke"/>
</svg>
