<svg width="18" height="18" viewBox="0 0 18 18" fill="currentColor" xmlns="http://www.w3.org/2000/svg">
<g clip-path="url(#clip0)">
<path d="M11.1605 16.3794L11.169 16.3844V16.3844C12.7247 17.3749 14.7597 17.1517 16.0637 15.8476L16.6141 15.2973V15.2973C17.1259 14.7848 17.1259 13.9546 16.6141 13.4422L14.2954 11.1249V11.1249C13.7829 10.6131 12.9528 10.6131 12.4403 11.1249V11.1249C11.9289 11.637 11.0992 11.6375 10.5871 11.1261C10.5867 11.1257 10.5863 11.1253 10.586 11.1249L6.87581 7.41409V7.41409C6.364 6.90164 6.364 6.07147 6.87581 5.55902V5.55902C7.38787 5.04758 7.38839 4.21786 6.87695 3.7058C6.87657 3.70541 6.87619 3.70503 6.87581 3.70465L4.55785 1.38386V1.38386C4.0454 0.872048 3.21523 0.872048 2.70278 1.38386L2.15244 1.93419L2.15244 1.93419C0.848618 3.23832 0.625184 5.2729 1.61491 6.82891L1.6206 6.83744L1.62059 6.83744C4.16139 10.5987 7.39981 13.8378 11.1605 16.3794L11.1605 16.3794Z" fill="currentColor"/>
<path d="M11.1605 16.3794L11.169 16.3844C12.7247 17.3749 14.7597 17.1517 16.0637 15.8476L16.6141 15.2973C17.1259 14.7848 17.1259 13.9546 16.6141 13.4422L14.2954 11.1249C13.7829 10.6131 12.9528 10.6131 12.4403 11.1249C11.9289 11.637 11.0992 11.6375 10.5871 11.1261C10.5867 11.1257 10.5863 11.1253 10.586 11.1249L6.87581 7.41409C6.364 6.90164 6.364 6.07147 6.87581 5.55902C7.38787 5.04758 7.38838 4.21786 6.87695 3.7058C6.87657 3.70541 6.87619 3.70503 6.87581 3.70465L4.55785 1.38386C4.0454 0.872048 3.21523 0.872048 2.70278 1.38386L2.15244 1.93419C0.848618 3.23832 0.625184 5.2729 1.61491 6.82891L1.6206 6.83744C4.16139 10.5987 7.39982 13.8378 11.1605 16.3794Z" stroke="currentColor" stroke-linecap="round" stroke-linejoin="round" vector-effect="non-scaling-stroke"/>
</g>
<defs>
<clipPath id="clip0">
<path d="M0 0H17.9979V18H0V0Z" fill="currentColor"/>
</clipPath>
</defs>
</svg>
