<svg width="18" height="18" viewBox="0 0 18 18" fill="currentColor" xmlns="http://www.w3.org/2000/svg">
<path d="M10.8167 8.97772L10.2775 7.90834C10.2156 7.7856 10.1204 7.68239 10.0026 7.61026C9.88487 7.53814 9.74916 7.49996 9.61072 7.5H6.80528C6.66684 7.49996 6.53113 7.53814 6.41335 7.61026C6.29557 7.68239 6.20039 7.7856 6.13846 7.90834L5.59933 8.97772H2.24533C2.04766 8.97772 1.85808 9.05556 1.7183 9.19412C1.57853 9.33268 1.5 9.52062 1.5 9.71657V15.6274C1.5 15.8234 1.57853 16.0113 1.7183 16.1499C1.85808 16.2885 2.04766 16.3663 2.24533 16.3663H11.9347C12.1323 16.3663 12.3219 16.2885 12.4617 16.1499C12.6015 16.0113 12.68 15.8234 12.68 15.6274V9.71657C12.68 9.52062 12.6015 9.33268 12.4617 9.19412C12.3219 9.05556 12.1323 8.97772 11.9347 8.97772H10.8167Z" fill="currentColor"/>
<path d="M3.73597 8.97776V8.23891M14.5 12.53L16.2569 12.54C16.4834 12.54 16.667 12.358 16.667 12.1335V1.90648C16.667 1.68199 16.4834 1.5 16.2569 1.5H8.91004C8.68358 1.5 8.5 1.68199 8.5 1.90648V6.05705M11.0793 6.39498C11.5021 6.09346 12.0209 5.91603 12.5838 5.91603C14.019 5.91603 15.1824 7.06935 15.1824 8.49203C15.1824 9.37096 14.7383 10.1471 14.0605 10.6119M10.8167 8.97772L10.2775 7.90834C10.2156 7.7856 10.1204 7.68239 10.0026 7.61026C9.88487 7.53814 9.74916 7.49996 9.61072 7.5H6.80528C6.66684 7.49996 6.53113 7.53814 6.41335 7.61026C6.29557 7.68239 6.20039 7.7856 6.13846 7.90834L5.59933 8.97772H2.24533C2.04766 8.97772 1.85808 9.05556 1.7183 9.19412C1.57853 9.33269 1.5 9.52062 1.5 9.71657V15.6274C1.5 15.8234 1.57853 16.0113 1.7183 16.1499C1.85808 16.2885 2.04766 16.3663 2.24533 16.3663H11.9347C12.1323 16.3663 12.3219 16.2885 12.4617 16.1499C12.6015 16.0113 12.68 15.8234 12.68 15.6274V9.71657C12.68 9.52062 12.6015 9.33269 12.4617 9.19412C12.3219 9.05556 12.1323 8.97772 11.9347 8.97772H10.8167ZM10.8164 12.3026C10.8164 13.7309 9.64849 14.8886 8.20776 14.8886C6.76704 14.8886 5.5991 13.7309 5.5991 12.3026C5.5991 10.8744 6.76704 9.71664 8.20776 9.71664C9.64849 9.71664 10.8164 10.8744 10.8164 12.3026ZM13.3257 3.70801C13.3257 4.11449 12.9933 4.44401 12.5833 4.44401C12.1733 4.44401 11.8408 4.11449 11.8408 3.70801C11.8408 3.30153 12.1733 2.97201 12.5833 2.97201C12.9933 2.97201 13.3257 3.30153 13.3257 3.70801Z" stroke="currentColor" stroke-linecap="round" stroke-linejoin="round" vector-effect="non-scaling-stroke"/>
</svg>
