<svg width="18" height="18" viewBox="0 0 18 18" fill="currentColor" xmlns="http://www.w3.org/2000/svg">
<path d="M9 17C13.4183 17 17 13.4183 17 9C17 4.58172 13.4183 1 9 1C4.58172 1 1 4.58172 1 9C1 13.4183 4.58172 17 9 17Z" fill="currentColor"/>
<path d="M9 17C13.4183 17 17 13.4183 17 9C17 4.58172 13.4183 1 9 1C4.58172 1 1 4.58172 1 9C1 13.4183 4.58172 17 9 17Z" stroke="currentColor" stroke-linecap="round" stroke-linejoin="round" vector-effect="non-scaling-stroke"/>
<path d="M6.86667 11.5707C6.86722 12.2132 7.38852 12.7336 8.03103 12.7331C8.31207 12.7328 8.58352 12.6309 8.79521 12.446L12.7333 9.00143L8.7952 5.55467C8.31207 5.13169 7.57753 5.18046 7.15455 5.66358C6.96883 5.87572 6.86652 6.14811 6.86667 6.43005L6.86667 11.5707Z" stroke="currentColor" stroke-linecap="round" stroke-linejoin="round" vector-effect="non-scaling-stroke"/>
</svg>
