<svg width="18" height="18" viewBox="0 0 18 18" fill="currentColor" xmlns="http://www.w3.org/2000/svg">
<path d="M15.9333 13.6H13.16L12.7926 11.6444H5.20741L4.73333 13.6H2.06667C1.47756 13.6 1 13.1224 1 12.5333V8.26666L2.83822 4.58951C3.01899 4.22811 3.38845 3.99988 3.79253 4H5.26667V6H12.7333V4H14.2075C14.6116 3.99988 14.981 4.22811 15.1618 4.58951L17 8.26666V12.5333C17 13.1224 16.5224 13.6 15.9333 13.6Z" fill="currentColor"/>
<path d="M17 8.46667V12.7333C17 13.3224 16.5224 13.8 15.9333 13.8H13.16L12.7926 11.8444H5.20741L4.73333 13.8H2.06667C1.47756 13.8 1 13.3224 1 12.7333V8.46667M17 8.46667H1M17 8.46667L15.1618 4.78951C14.981 4.42811 14.6116 4.19988 14.2075 4.2H12.7333M1 8.46667L2.83822 4.78951C3.01899 4.42811 3.38845 4.19988 3.79253 4.2H5.26667M7.4 14.8667H10.6M12.7333 11.6667H5.26667L4.2 17H13.8L12.7333 11.6667ZM5.26667 1H12.7333V6.33333H5.26667V1ZM15.1333 10.6C14.9861 10.6 14.8667 10.7194 14.8667 10.8667C14.8667 11.0139 14.9861 11.1333 15.1333 11.1333C15.2806 11.1333 15.4 11.0139 15.4 10.8667C15.4 10.7194 15.2806 10.6 15.1333 10.6Z" stroke="currentColor" stroke-linecap="round" stroke-linejoin="round" vector-effect="non-scaling-stroke"/>
</svg>
