<svg width="18" height="18" viewBox="0 0 18 18" fill="currentColor" xmlns="http://www.w3.org/2000/svg">
<path d="M9.00016 5.26667C10.1836 5.26667 11.143 4.31154 11.143 3.13333C11.143 1.95513 10.1836 1 9.00016 1C7.81669 1 6.8573 1.95513 6.8573 3.13333C6.8573 4.31154 7.81669 5.26667 9.00016 5.26667Z" fill="currentColor"/>
<path d="M3.10724 13.8V10.9392C3.10724 10.7519 3.25978 10.6 3.44796 10.6H14.5522C14.7404 10.6 14.893 10.7519 14.893 10.9392V13.8M3.10724 13.8C3.99484 13.8 4.71429 14.5163 4.71429 15.4C4.71429 16.2837 3.99474 17 3.10714 17C2.21954 17 1.5 16.2837 1.5 15.4C1.5 14.5163 2.21964 13.8 3.10724 13.8ZM14.893 13.8C15.7806 13.8 16.5001 14.5163 16.5001 15.4C16.5001 16.2836 15.7805 17 14.8929 17C14.0053 17 13.2858 16.2836 13.2858 15.4C13.2858 14.5163 14.0054 13.8 14.893 13.8ZM9.00111 8.46667V13.8M12.2148 8.46665C11.834 6.9579 10.5064 5.87495 8.94556 5.79999C7.38477 5.87494 6.05709 6.9579 5.67628 8.46665M9.00003 17C9.88763 17 10.6072 16.2836 10.6072 15.4C10.6072 14.5163 9.88763 13.8 9.00003 13.8C8.11243 13.8 7.39289 14.5163 7.39289 15.4C7.39289 16.2836 8.11243 17 9.00003 17ZM11.143 3.13333C11.143 4.31154 10.1836 5.26667 9.00016 5.26667C7.81669 5.26667 6.8573 4.31154 6.8573 3.13333C6.8573 1.95513 7.81669 1 9.00016 1C10.1836 1 11.143 1.95513 11.143 3.13333Z" stroke="currentColor" stroke-linecap="round" stroke-linejoin="round" vector-effect="non-scaling-stroke"/>
</svg>
