<svg width="18" height="18" viewBox="0 0 18 18" fill="currentColor" xmlns="http://www.w3.org/2000/svg">
<path d="M4.2 14.2998C5.96731 14.2998 7.4 12.8759 7.4 11.1194C7.4 9.36289 5.96731 7.93896 4.2 7.93896C2.43269 7.93896 1 9.36289 1 11.1194C1 12.8759 2.43269 14.2998 4.2 14.2998Z" fill="currentColor" stroke="currentColor" stroke-linecap="round" stroke-linejoin="round" vector-effect="non-scaling-stroke"/>
<path d="M1 11.1209V11.1209C0.999999 7.02244 4.34294 3.69995 8.46667 3.69995" stroke="currentColor" stroke-linecap="round" stroke-linejoin="round" vector-effect="non-scaling-stroke"/>
<path d="M12.7332 14.2998C14.5005 14.2998 15.9332 12.8759 15.9332 11.1194C15.9332 9.36289 14.5005 7.93896 12.7332 7.93896C10.9659 7.93896 9.5332 9.36289 9.5332 11.1194C9.5332 12.8759 10.9659 14.2998 12.7332 14.2998Z" fill="currentColor" stroke="currentColor" stroke-linecap="round" stroke-linejoin="round" vector-effect="non-scaling-stroke"/>
<path d="M9.53333 11.1209V11.1209C9.53332 7.02244 12.8763 3.69995 17 3.69995" stroke="currentColor" stroke-linecap="round" stroke-linejoin="round" vector-effect="non-scaling-stroke"/>
</svg>
