<svg width="18" height="18" viewBox="0 0 18 18" fill="currentColor" xmlns="http://www.w3.org/2000/svg">
<path d="M13.8 10.06C15.5673 10.06 17 8.63622 17 6.87995C17 5.12369 15.5673 3.69995 13.8 3.69995C12.0327 3.69995 10.6 5.12369 10.6 6.87995C10.6 8.63622 12.0327 10.06 13.8 10.06Z" fill="currentColor" stroke="currentColor" stroke-linecap="round" stroke-linejoin="round" vector-effect="non-scaling-stroke"/>
<path d="M16.9999 6.87988C16.9999 10.9778 13.6569 14.2999 9.5332 14.2999" stroke="currentColor" stroke-linecap="round" stroke-linejoin="round" vector-effect="non-scaling-stroke"/>
<path d="M5.26665 10.06C7.03396 10.06 8.46665 8.63622 8.46665 6.87995C8.46665 5.12369 7.03396 3.69995 5.26665 3.69995C3.49934 3.69995 2.06665 5.12369 2.06665 6.87995C2.06665 8.63622 3.49934 10.06 5.26665 10.06Z" fill="currentColor" stroke="currentColor" stroke-linecap="round" stroke-linejoin="round" vector-effect="non-scaling-stroke"/>
<path d="M8.46667 6.87988C8.46667 10.9778 5.12373 14.2999 1 14.2999" stroke="currentColor" stroke-linecap="round" stroke-linejoin="round" vector-effect="non-scaling-stroke"/>
</svg>
