<svg width="18" height="18" viewBox="0 0 18 18" fill="currentColor" xmlns="http://www.w3.org/2000/svg">
<path d="M9.00002 13.7422C11.6183 13.7422 13.7408 11.6197 13.7408 9.00148C13.7408 6.38324 11.6183 4.26074 9.00002 4.26074C6.38178 4.26074 4.25928 6.38324 4.25928 9.00148C4.25928 11.6197 6.38178 13.7422 9.00002 13.7422Z" fill="currentColor"/>
<path d="M9 17C13.4183 17 17 13.4183 17 9C17 4.58172 13.4183 1 9 1C4.58172 1 1 4.58172 1 9C1 13.4183 4.58172 17 9 17Z" stroke="currentColor" stroke-linecap="round" stroke-linejoin="round" vector-effect="non-scaling-stroke"/>
<path d="M8.99996 13.7422C11.6182 13.7422 13.7407 11.6197 13.7407 9.00146C13.7407 6.38323 11.6182 4.26072 8.99996 4.26072C6.38172 4.26072 4.25922 6.38323 4.25922 9.00146C4.25922 11.6197 6.38172 13.7422 8.99996 13.7422Z" stroke="currentColor" stroke-linecap="round" stroke-linejoin="round" vector-effect="non-scaling-stroke"/>
</svg>
