<svg width="18" height="18" viewBox="0 0 18 18" fill="currentColor" xmlns="http://www.w3.org/2000/svg">
<path d="M13.8009 10.6C16.4668 3.13333 11.9065 1.00071 9.00016 1C6.09314 1 1.5335 3.13333 4.19945 10.6" fill="currentColor"/>
<path d="M13.8008 10.6C16.4668 3.13333 11.9064 1.00071 9.0001 1C6.09308 1 1.53344 3.13333 4.19939 10.6M15.9342 17L16.5159 13.0441C16.6875 11.8784 15.8817 10.7944 14.7161 10.6228C14.6129 10.6076 14.5088 10.6 14.4046 10.6H3.5957C2.41513 10.6012 1.45903 11.5591 1.46019 12.7397C1.46029 12.8416 1.46767 12.9433 1.48227 13.0441L2.06467 17M11.6667 13.8H13.8M11.6667 15.9333H13.8M14.6037 6.86667H17.0001M3.39644 6.86667H1M12.2009 6.33333C12.2009 6.92244 11.7234 7.4 11.1343 7.4C10.5452 7.4 10.0676 6.92244 10.0676 6.33333C10.0676 5.74423 10.5452 5.26667 11.1343 5.26667C11.7234 5.26667 12.2009 5.74423 12.2009 6.33333ZM7.93426 6.33333C7.93426 6.92244 7.4567 7.4 6.86759 7.4C6.27849 7.4 5.80093 6.92244 5.80093 6.33333C5.80093 5.74423 6.27849 5.26667 6.86759 5.26667C7.4567 5.26667 7.93426 5.74423 7.93426 6.33333ZM9.23971 13.8H4.49548C4.3328 13.8 4.20093 13.9319 4.20093 14.0945V16.7055C4.20093 16.8681 4.3328 17 4.49548 17H9.23971C9.40239 17 9.53426 16.8681 9.53426 16.7055V14.0945C9.53426 13.9319 9.40239 13.8 9.23971 13.8Z" stroke="currentColor" stroke-linecap="round" stroke-linejoin="round" vector-effect="non-scaling-stroke"/>
</svg>
