<svg width="18" height="20" viewBox="0 0 18 20" fill="currentColor" xmlns="http://www.w3.org/2000/svg">
<path d="M11.2185 4.28311L8.99877 2.22629L6.77902 4.28311L6.77902 4.28311C6.15082 4.93868 5.89015 5.86393 6.08374 6.75101L7.60634 12.9229L10.3856 12.9247L11.9101 6.75476V6.75476C12.1066 5.86709 11.8471 4.93992 11.2185 4.28311V4.28311Z" fill="currentColor"/>
<path d="M6.97179 10.343L6.27417 10.6754C5.82754 10.8729 5.53551 11.3109 5.52505 11.7991L5.5227 13.5984C5.52566 13.7186 5.59717 13.8265 5.70671 13.8761C5.82124 13.9313 5.95587 13.9251 6.06488 13.8597L7.60996 12.9233M11.0182 10.3706L11.7214 10.6768C12.1683 10.8728 12.4615 11.3095 12.4738 11.7973L12.4771 13.6003C12.4744 13.7208 12.4026 13.8291 12.2926 13.8784C12.1781 13.9332 12.0438 13.9269 11.9349 13.8616L10.3899 12.9252M8.99941 2.22669L8.99941 1M8.99941 2.22669L11.2185 4.28305C11.8471 4.93985 12.1066 5.86702 11.9101 6.75469L10.3856 12.9247L7.60634 12.9228L6.08374 6.75094C5.89015 5.86386 6.15082 4.93861 6.77902 4.28305L8.99941 2.22669ZM10.4909 16.7101C10.4909 17.9274 9.00112 18.8826 9.00112 18.8826C9.00112 18.8826 7.5113 17.9302 7.5113 16.7101C7.48408 16.0078 8.03135 15.4164 8.73368 15.3891C8.82337 15.3857 8.91317 15.3917 9.00159 15.4071C9.69409 15.2869 10.3529 15.7508 10.4731 16.4433C10.4884 16.5314 10.4944 16.6208 10.4909 16.7101ZM9.70102 5.76304C10.0889 6.15091 10.0889 6.77978 9.70102 7.16765C9.31315 7.55552 8.68428 7.55552 8.29641 7.16765C7.90854 6.77978 7.90854 6.15091 8.29641 5.76304C8.68428 5.37517 9.31315 5.37517 9.70102 5.76304Z" stroke="currentColor" stroke-linecap="round" stroke-linejoin="round" vector-effect="non-scaling-stroke"/>
</svg>
