<svg width="20" height="18" viewBox="0 0 20 18" fill="currentColor" xmlns="http://www.w3.org/2000/svg">
<path d="M9.99938 2.5L18.9989 6.49978L14.9991 7.9997V12.6101C14.4371 13.1271 14.1802 13.9991 13.4999 14.5C12.53 15.2142 11.0884 15.4798 9.99988 15.5C8.80722 15.4761 7.53877 15.0113 6.49988 14.2041C5.92124 13.7545 5.49046 13.0579 4.99966 12.6101V7.9997L0.999878 6.49978L9.99938 2.5Z" fill="currentColor"/>
<path d="M19 6.49866V9.49866M15 8.27866V13.5C13.6368 14.7542 11.8614 15.4656 10.0093 15.5C8.15229 15.4627 6.37207 14.7519 5 13.5V8.27866M1 6.5L10 10.5L19 6.5L10 2.5L1 6.5Z" stroke="currentColor" stroke-linecap="round" stroke-linejoin="round" vector-effect="non-scaling-stroke"/>
</svg>
