<svg width="18" height="18" viewBox="0 0 18 18" fill="currentColor" xmlns="http://www.w3.org/2000/svg">
<path d="M16.4791 4.31309V3.20653C16.4791 2.5954 15.9841 2.09998 15.3735 2.09998H2.10565C1.49502 2.09998 1 2.5954 1 3.20653V7.63276C1 8.2439 1.49502 8.73932 2.10565 8.73932H5.97543" fill="currentColor"/>
<path d="M16.4791 4.31309V3.20653C16.4791 2.5954 15.9841 2.09998 15.3735 2.09998H2.10565C1.49502 2.09998 1 2.5954 1 3.20653V7.63276C1 8.2439 1.49502 8.73932 2.10565 8.73932H5.97543M17.0002 15.9L14.2065 13.1041M3.48784 5.69627C3.33518 5.69628 3.21143 5.82003 3.21143 5.97269C3.21143 6.12535 3.33518 6.2491 3.48784 6.2491C3.6405 6.2491 3.76425 6.12535 3.76425 5.97269C3.76466 5.82044 3.64156 5.69668 3.48931 5.69627C3.48882 5.69627 3.48833 5.69627 3.48784 5.69627ZM6.252 5.69627C6.09934 5.69628 5.97559 5.82003 5.97559 5.97269C5.97559 6.12535 6.09934 6.2491 6.252 6.2491C6.40466 6.2491 6.52841 6.12535 6.52841 5.97269C6.52882 5.82044 6.40572 5.69668 6.25347 5.69627C6.25298 5.69627 6.25249 5.69627 6.252 5.69627ZM15.0662 10.0918C15.0662 12.2307 13.3337 13.9647 11.1964 13.9647C9.05922 13.9647 7.32666 12.2307 7.32666 10.0918C7.32666 7.95281 9.05922 6.21883 11.1964 6.21883C13.3337 6.21883 15.0662 7.95281 15.0662 10.0918Z" stroke="currentColor" stroke-linecap="round" stroke-linejoin="round" vector-effect="non-scaling-stroke"/>
</svg>
