<svg width="18" height="18" viewBox="0 0 18 18" fill="currentColor" xmlns="http://www.w3.org/2000/svg">
<path d="M12.7333 17C15.0898 17 17 15.0898 17 12.7333C17 10.3769 15.0898 8.46667 12.7333 8.46667C10.3769 8.46667 8.46667 10.3769 8.46667 12.7333C8.46667 15.0898 10.3769 17 12.7333 17Z" fill="currentColor"/>
<path d="M6.33333 11.6667H2.06667C1.47756 11.6667 1 11.1891 1 10.6V2.06667C1 1.47756 1.47756 1 2.06667 1H14.8667C15.4558 1 15.9333 1.47756 15.9333 2.06667V6.86524M10.6009 12.7319H14.8676M14.8676 12.7319L13.2676 14.3319M14.8676 12.7319L13.2676 11.1319M15.6917 1.3897L9.9004 5.84552C9.05505 6.49589 7.87785 6.49589 7.03249 5.84552L1.2412 1.3897M17 12.7333C17 15.0897 15.0897 17 12.7333 17C10.3769 17 8.46667 15.0897 8.46667 12.7333C8.46667 10.3769 10.3769 8.46667 12.7333 8.46667C15.0897 8.46667 17 10.3769 17 12.7333Z" stroke="currentColor" stroke-linecap="round" stroke-linejoin="round" vector-effect="non-scaling-stroke"/>
</svg>
