<svg width="18" height="18" viewBox="0 0 18 18" fill="currentColor" xmlns="http://www.w3.org/2000/svg">
<path fill-rule="evenodd" clip-rule="evenodd" d="M8.52622 2.55713C8.3458 2.47683 8.18426 2.35951 8.05207 2.21278L7.37496 1.46507C7.17954 1.25024 6.92259 1.10093 6.63917 1.03752C6.35576 0.974119 6.05968 0.999704 5.79134 1.11079C5.52301 1.22187 5.29548 1.41305 5.13981 1.65822C4.98414 1.9034 4.90791 2.19064 4.92152 2.48074L4.96978 3.48992C4.98036 3.68745 4.94927 3.88499 4.87853 4.06971C4.80779 4.25444 4.69899 4.42222 4.55918 4.56216C4.41938 4.7021 4.2517 4.81107 4.06705 4.88199C3.88239 4.9529 3.68488 4.98419 3.48734 4.9738L2.47888 4.92266C2.18867 4.90878 1.90125 4.98488 1.65592 5.14054C1.41059 5.2962 1.21932 5.52383 1.10825 5.79231C0.997187 6.06079 0.971748 6.35702 1.03541 6.6405C1.09908 6.92399 1.24874 7.18089 1.46394 7.3761L2.2138 8.05681C2.36035 8.18918 2.4775 8.35082 2.55768 8.5313C2.63786 8.71177 2.67929 8.90705 2.67929 9.10453C2.67929 9.30201 2.63786 9.4973 2.55768 9.67777C2.4775 9.85824 2.36035 10.0199 2.2138 10.1523L1.46394 10.8294C1.24804 11.0248 1.09792 11.2822 1.03419 11.5664C0.970461 11.8505 0.996247 12.1474 1.10801 12.4163C1.21977 12.6852 1.41202 12.913 1.65838 13.0682C1.90474 13.2235 2.19311 13.2987 2.48392 13.2835L3.49238 13.2324C3.68955 13.2222 3.88664 13.2536 4.07092 13.3244C4.25519 13.3953 4.42255 13.504 4.56215 13.6436C4.70175 13.7832 4.81048 13.9506 4.88132 14.1348C4.95216 14.3191 4.98352 14.5162 4.97338 14.7134L4.92152 15.7218C4.90823 16.0118 4.98469 16.2988 5.14048 16.5438C5.29627 16.7887 5.5238 16.9796 5.79207 17.0905C6.06033 17.2014 6.35627 17.2269 6.63954 17.1635C6.9228 17.1 7.17962 16.9508 7.37496 16.7361L8.05567 15.9862C8.18798 15.8397 8.34956 15.7225 8.52997 15.6424C8.71038 15.5622 8.90561 15.5208 9.10303 15.5208C9.30046 15.5208 9.49568 15.5622 9.6761 15.6424C9.85651 15.7225 10.0181 15.8397 10.1504 15.9862L10.8282 16.7361C11.0239 16.9498 11.2806 17.0981 11.5635 17.1608C11.8463 17.2236 12.1417 17.1977 12.4093 17.0868C12.677 16.9759 12.9041 16.7852 13.0596 16.5407C13.2152 16.2963 13.2917 16.0099 13.2788 15.7204L13.2276 14.7119C13.2175 14.5148 13.2489 14.3177 13.3197 14.1334C13.3905 13.9491 13.4993 13.7818 13.6389 13.6422C13.7785 13.5026 13.9458 13.3938 14.1301 13.323C14.3144 13.2522 14.5115 13.2208 14.7086 13.2309L15.7171 13.2821C16.008 13.2969 16.2964 13.2213 16.5427 13.0657C16.7889 12.9101 16.981 12.6821 17.0925 12.413C17.204 12.1439 17.2295 11.8468 17.1655 11.5626C17.1015 11.2785 16.9511 11.0211 16.7349 10.8258L15.9843 10.1486C15.8378 10.0163 15.7206 9.85464 15.6405 9.67416C15.5603 9.49369 15.5189 9.29841 15.5189 9.10093C15.5189 8.90345 15.5603 8.70816 15.6405 8.52769C15.7206 8.34722 15.8378 8.18558 15.9843 8.05321L16.7349 7.3761C16.9509 7.18092 17.1012 6.92372 17.1653 6.63976C17.2293 6.35581 17.204 6.05899 17.0928 5.78998C16.9816 5.52098 16.7899 5.29295 16.544 5.13716C16.2981 4.98137 16.01 4.90544 15.7193 4.91978L14.7108 4.97092C14.5141 4.98052 14.3175 4.94881 14.1337 4.87782C13.95 4.80684 13.7832 4.69815 13.644 4.55877C13.5048 4.41938 13.3964 4.25239 13.3257 4.06855C13.2549 3.88471 13.2235 3.68809 13.2334 3.49136L13.2845 2.4829C13.2994 2.19197 13.2238 1.90359 13.0682 1.65733C12.9126 1.41107 12.6846 1.219 12.4154 1.10749C12.1463 0.995975 11.8493 0.970481 11.5651 1.0345C11.2809 1.09853 11.0235 1.24893 10.8282 1.46507L10.1468 2.21278C10.0146 2.35951 9.85306 2.47683 9.67264 2.55713C9.49221 2.63743 9.29692 2.67893 9.09943 2.67893C8.90194 2.67893 8.70665 2.63743 8.52622 2.55713ZM9 12.7C10.933 12.7 12.5 11.133 12.5 9.20001C12.5 7.26702 10.933 5.70001 9 5.70001C7.067 5.70001 5.5 7.26702 5.5 9.20001C5.5 11.133 7.067 12.7 9 12.7Z" fill="currentColor"/>
<path d="M8.05207 2.21278C8.18426 2.35951 8.3458 2.47683 8.52622 2.55713C8.70665 2.63743 8.90194 2.67893 9.09943 2.67893C9.29692 2.67893 9.49221 2.63743 9.67264 2.55713C9.85306 2.47683 10.0146 2.35951 10.1468 2.21278L10.8282 1.46507C11.0235 1.24893 11.2809 1.09853 11.5651 1.0345C11.8493 0.970481 12.1463 0.995975 12.4154 1.10749C12.6846 1.219 12.9126 1.41107 13.0682 1.65733C13.2238 1.90359 13.2994 2.19197 13.2845 2.4829L13.2334 3.49136C13.2235 3.68809 13.2549 3.88471 13.3257 4.06855C13.3964 4.25239 13.5048 4.41938 13.644 4.55877C13.7832 4.69815 13.95 4.80684 14.1337 4.87783C14.3175 4.94881 14.5141 4.98052 14.7108 4.97092L15.7193 4.91978C16.01 4.90544 16.2981 4.98137 16.544 5.13716C16.7899 5.29295 16.9816 5.52098 17.0928 5.78998C17.204 6.05899 17.2293 6.35581 17.1653 6.63976C17.1012 6.92372 16.9509 7.18092 16.7349 7.3761L15.9843 8.05321C15.8378 8.18558 15.7206 8.34722 15.6405 8.52769C15.5603 8.70816 15.5189 8.90345 15.5189 9.10093C15.5189 9.29841 15.5603 9.49369 15.6405 9.67416C15.7206 9.85464 15.8378 10.0163 15.9843 10.1486L16.7349 10.8258C16.9511 11.0211 17.1015 11.2785 17.1655 11.5626C17.2295 11.8468 17.204 12.1439 17.0925 12.413C16.981 12.6821 16.7889 12.9101 16.5427 13.0657C16.2964 13.2213 16.008 13.2969 15.7171 13.2821L14.7086 13.2309C14.5115 13.2208 14.3144 13.2522 14.1301 13.323C13.9458 13.3938 13.7785 13.5026 13.6389 13.6422C13.4993 13.7818 13.3905 13.9491 13.3197 14.1334C13.2489 14.3177 13.2175 14.5148 13.2276 14.7119L13.2788 15.7204C13.2917 16.0099 13.2152 16.2963 13.0596 16.5407C12.9041 16.7852 12.677 16.9759 12.4093 17.0868C12.1417 17.1977 11.8463 17.2236 11.5635 17.1608C11.2806 17.0981 11.0239 16.9498 10.8282 16.7361L10.1504 15.9862C10.0181 15.8397 9.85651 15.7225 9.67609 15.6424C9.49568 15.5622 9.30046 15.5208 9.10303 15.5208C8.90561 15.5208 8.71038 15.5622 8.52997 15.6424C8.34956 15.7225 8.18798 15.8397 8.05567 15.9862L7.37496 16.7361C7.17962 16.9508 6.9228 17.1 6.63954 17.1635C6.35627 17.2269 6.06033 17.2014 5.79207 17.0905C5.5238 16.9796 5.29627 16.7887 5.14048 16.5438C4.98469 16.2988 4.90823 16.0118 4.92152 15.7218L4.97338 14.7134C4.98352 14.5162 4.95216 14.3191 4.88132 14.1348C4.81048 13.9506 4.70174 13.7832 4.56215 13.6436C4.42255 13.504 4.25519 13.3953 4.07092 13.3244C3.88664 13.2536 3.68955 13.2222 3.49238 13.2324L2.48392 13.2835C2.19311 13.2987 1.90474 13.2235 1.65838 13.0682C1.41202 12.913 1.21977 12.6852 1.10801 12.4163C0.996247 12.1474 0.970461 11.8505 1.03419 11.5664C1.09792 11.2822 1.24804 11.0248 1.46394 10.8294L2.2138 10.1523C2.36035 10.0199 2.4775 9.85824 2.55768 9.67777C2.63786 9.4973 2.67929 9.30201 2.67929 9.10453C2.67929 8.90705 2.63786 8.71177 2.55768 8.5313C2.4775 8.35083 2.36035 8.18918 2.2138 8.05681L1.46394 7.3761C1.24874 7.18089 1.09908 6.92398 1.03541 6.6405C0.971748 6.35702 0.997187 6.06079 1.10825 5.79231C1.21932 5.52383 1.41059 5.2962 1.65592 5.14054C1.90125 4.98488 2.18867 4.90878 2.47888 4.92266L3.48734 4.9738C3.68488 4.98419 3.88239 4.9529 4.06705 4.88199C4.2517 4.81107 4.41938 4.7021 4.55918 4.56216C4.69899 4.42222 4.80779 4.25444 4.87853 4.06971C4.94927 3.88499 4.98036 3.68745 4.96978 3.48992L4.92152 2.48074C4.90791 2.19064 4.98414 1.9034 5.13981 1.65822C5.29548 1.41305 5.52301 1.22187 5.79134 1.11079C6.05968 0.999704 6.35576 0.974119 6.63917 1.03752C6.92259 1.10093 7.17954 1.25024 7.37496 1.46507L8.05207 2.21278Z" stroke="currentColor" stroke-linecap="round" stroke-linejoin="round" vector-effect="non-scaling-stroke"/>
<path d="M9.09952 12.3428C10.8897 12.3428 12.341 10.8915 12.341 9.10132C12.341 7.31109 10.8897 5.85983 9.09952 5.85983C7.3093 5.85983 5.85804 7.31109 5.85804 9.10132C5.85804 10.8915 7.3093 12.3428 9.09952 12.3428Z" stroke="currentColor" stroke-linecap="round" stroke-linejoin="round" vector-effect="non-scaling-stroke"/>
</svg>
