<svg width="18" height="18" viewBox="0 0 18 18" fill="currentColor" xmlns="http://www.w3.org/2000/svg">
<path d="M1 8.43075C1 10.0026 2.27919 11.2769 3.85714 11.2769C5.01676 11.2769 5.93558 10.9887 6.38338 9.99997L11.3958 12.7684C11.3648 12.8764 11.3399 12.9871 11.3218 13.1C11.298 13.2478 11.2856 13.3994 11.2856 13.5539C11.2856 15.1257 12.5648 16.4 14.1428 16.4C15.7207 16.4 16.9999 15.1257 16.9999 13.5539C16.9999 11.982 15.7207 10.7077 14.1428 10.7077C13.3643 10.7077 12.0153 11.497 11.5 12L6.5 9.49997V7.49997L11.3958 5.58459C11.8967 6.01597 13.4287 7.29228 14.1428 7.29228C15.7207 7.29228 16.9999 6.01802 16.9999 4.44613C16.9999 2.87424 15.7207 1.59998 14.1428 1.59998C12.5648 1.59998 11.2856 2.87424 11.2856 4.44613C11.2856 4.85688 11.1646 4.64729 11.3218 4.99997L6.38338 7.09998C5.90389 6.19861 4.9525 5.58459 3.85714 5.58459C2.27919 5.58459 1 6.85886 1 8.43075Z" fill="currentColor"/>
<path d="M6.52393 7.39858L11.4763 5.47837M6.40967 9.70582L11.5906 12.2787M6.71429 8.43074C6.71429 10.0026 5.4351 11.2769 3.85714 11.2769C2.27919 11.2769 1 10.0026 1 8.43074C1 6.85886 2.27919 5.58459 3.85714 5.58459C5.4351 5.58459 6.71429 6.85886 6.71429 8.43074ZM17 4.44613C17 6.01802 15.7208 7.29228 14.1429 7.29228C12.5649 7.29228 11.2857 6.01802 11.2857 4.44613C11.2857 2.87424 12.5649 1.59998 14.1429 1.59998C15.7208 1.59998 17 2.87424 17 4.44613ZM16.9999 13.5538C16.9999 15.1257 15.7207 16.4 14.1428 16.4C12.5648 16.4 11.2856 15.1257 11.2856 13.5538C11.2856 11.982 12.5648 10.7077 14.1428 10.7077C15.7207 10.7077 16.9999 11.982 16.9999 13.5538Z" stroke="currentColor" stroke-linecap="round" stroke-linejoin="round" vector-effect="non-scaling-stroke"/>
</svg>
