<svg width="18" height="18" viewBox="0 0 18 18" fill="currentColor" xmlns="http://www.w3.org/2000/svg">
<path fill-rule="evenodd" clip-rule="evenodd" d="M8.75737 5.54389L5.03835 12.168V12.168C4.95943 12.3057 5.00622 12.4819 5.14286 12.5615C5.18491 12.5859 5.23245 12.5992 5.281 12.6H12.719V12.6C12.8768 12.5974 13.0026 12.4663 13 12.3073C12.9992 12.2583 12.986 12.2104 12.9617 12.168L9.24268 5.54389V5.54389C9.1681 5.40879 8.999 5.36022 8.86498 5.43541C8.81979 5.46076 8.78252 5.49833 8.75737 5.54389V5.54389Z" fill="currentColor"/>
<path fill-rule="evenodd" clip-rule="evenodd" d="M8.75737 5.54389L5.03835 12.168V12.168C4.95943 12.3057 5.00622 12.4819 5.14286 12.5615C5.18491 12.5859 5.23245 12.5992 5.281 12.6H12.719V12.6C12.8768 12.5974 13.0026 12.4663 13 12.3073C12.9992 12.2583 12.986 12.2104 12.9617 12.168L9.24268 5.54389V5.54389C9.1681 5.40879 8.999 5.36022 8.86498 5.43541C8.81979 5.46076 8.78252 5.49833 8.75737 5.54389V5.54389Z" stroke="currentColor" stroke-linecap="round" stroke-linejoin="round" vector-effect="non-scaling-stroke"/>
</svg>
