<svg width="18" height="18" viewBox="0 0 18 18" fill="currentColor" xmlns="http://www.w3.org/2000/svg">
<path fill-rule="evenodd" clip-rule="evenodd" d="M9.24263 12.4562L12.9617 5.83205V5.83205C13.0406 5.69431 12.9938 5.51815 12.8571 5.4386C12.8151 5.41411 12.7676 5.40084 12.719 5.40002H5.28095V5.40002C5.12319 5.40267 4.99742 5.53374 5.00004 5.69279C5.00085 5.74174 5.01401 5.78967 5.0383 5.83206L8.75732 12.4562V12.4562C8.8319 12.5913 9.001 12.6398 9.13502 12.5646C9.18021 12.5393 9.21748 12.5017 9.24263 12.4562L9.24263 12.4562Z" fill="currentColor"/>
<path fill-rule="evenodd" clip-rule="evenodd" d="M9.24263 12.4562L12.9617 5.83205V5.83205C13.0406 5.69431 12.9938 5.51815 12.8571 5.4386C12.8151 5.41411 12.7676 5.40084 12.719 5.40002H5.28095V5.40002C5.12319 5.40267 4.99742 5.53374 5.00004 5.69279C5.00085 5.74174 5.01401 5.78967 5.0383 5.83206L8.75732 12.4562V12.4562C8.8319 12.5913 9.001 12.6398 9.13502 12.5646C9.18021 12.5393 9.21748 12.5017 9.24263 12.4562L9.24263 12.4562Z" stroke="currentColor" stroke-linecap="round" stroke-linejoin="round" vector-effect="non-scaling-stroke"/>
</svg>
