<svg width="18" height="18" viewBox="0 0 18 18" fill="currentColor" xmlns="http://www.w3.org/2000/svg">
<g clip-path="url(#clip0)">
<path d="M8.46617 4.19986C9.35007 4.19986 10.0666 3.48355 10.0666 2.59993C10.0666 1.71631 9.35007 1 8.46617 1C7.58227 1 6.86572 1.71631 6.86572 2.59993C6.86572 3.48355 7.58227 4.19986 8.46617 4.19986Z" fill="currentColor"/>
<path d="M14.8702 9.16819C15.3709 8.9301 15.8126 8.58404 16.1636 8.15491M16.985 6.1397C17.0346 5.5876 16.9617 5.03135 16.7717 4.51062M15.4532 2.77695C15.006 2.44915 14.4896 2.22827 13.9436 2.13129M3.05602 9.93328C2.53504 10.1926 2.08335 10.5724 1.73839 11.0411M1.00092 13.1978C0.98788 13.7794 1.11366 14.3556 1.36784 14.8788M2.93232 16.5371C3.44299 16.8153 4.0115 16.9707 4.59269 16.9908M8.46822 6.3338V17M6.42997 8.3696L8.46645 6.33307L10.5036 8.3696M8.4661 4.19986C9.35 4.19986 10.0665 3.48355 10.0665 2.59993C10.0665 1.71631 9.35 1 8.4661 1C7.5822 1 6.86566 1.71631 6.86566 2.59993C6.86566 3.48355 7.5822 4.19986 8.4661 4.19986Z" stroke="currentColor" stroke-linecap="round" stroke-linejoin="round" vector-effect="non-scaling-stroke"/>
</g>
<defs>
<clipPath id="clip0">
<path d="M0 0H18.0001V18H0V0Z" fill="currentColor"/>
</clipPath>
</defs>
</svg>
