<svg width="18" height="18" viewBox="0 0 18 18" fill="currentColor" xmlns="http://www.w3.org/2000/svg">
<path d="M4.13228 1.7085H1.125V10.7094H4.13228V1.7085Z" fill="currentColor"/>
<path d="M4.51539 3.0186C4.85147 3.01414 5.18557 2.96647 5.50943 2.87677L7.82777 2.23525C8.16995 2.14029 8.5235 2.0922 8.87867 2.09233H11.9942C13.9339 2.06865 15.5781 3.51073 15.8031 5.43301L15.9977 8.58277C16.0525 9.92623 15.1404 11.1181 13.827 11.4194L12.8986 11.6169C12.4776 11.7132 12.1778 12.085 12.1736 12.5159V14.6073C12.1517 15.3982 11.4913 16.0216 10.6986 15.9998C9.93672 15.9788 9.324 15.3675 9.30297 14.6073V13.6472C9.25984 11.0512 7.1176 8.9803 4.5154 9.01917L4.51539 3.0186Z" stroke="currentColor" stroke-linecap="round" stroke-linejoin="round" vector-effect="non-scaling-stroke"/>
<path d="M4.13228 1.7085H1.125V10.7094H4.13228V1.7085Z" stroke="currentColor" stroke-linecap="round" stroke-linejoin="round" vector-effect="non-scaling-stroke"/>
</svg>
