<svg style="vertical-align: middle;" width="18" height="18" viewBox="0 0 18 18" fill="currentColor" xmlns="http://www.w3.org/2000/svg">
    <path d="M3.375 6.1875V3.9375C3.375 3.63913 3.49353 3.35298 3.7045 3.142C3.91548 2.93103 4.20163 2.8125 4.5 2.8125C4.79837 2.8125 5.08452 2.93103 5.2955 3.142C5.50647 3.35298 5.625 3.63913 5.625 3.9375V6.1875" stroke="currentColor" stroke-linecap="round" stroke-linejoin="round" vector-effect="non-scaling-stroke"/>
    <path d="M3.375 5.0625H5.625" stroke="currentColor" stroke-linecap="round" stroke-linejoin="round" vector-effect="non-scaling-stroke"/>
    <path d="M12.375 7.875V9" stroke="currentColor" stroke-linecap="round" stroke-linejoin="round" vector-effect="non-scaling-stroke"/>
    <path d="M10.125 9H14.625" stroke="currentColor" stroke-linecap="round" stroke-linejoin="round" vector-effect="non-scaling-stroke"/>
    <path d="M13.5 9C13.5 9 12.375 12.375 10.125 12.375" stroke="currentColor" stroke-linecap="round" stroke-linejoin="round" vector-effect="non-scaling-stroke"/>
    <path d="M12.375 11.0752C12.6259 11.4493 12.9591 11.7609 13.3491 11.9862C13.7392 12.2115 14.1756 12.3445 14.625 12.3749" stroke="currentColor" stroke-linecap="round" stroke-linejoin="round" vector-effect="non-scaling-stroke"/>
    <path d="M8.4375 14.0625C8.13913 14.0625 7.85298 13.944 7.642 13.733C7.43103 13.522 7.3125 13.2359 7.3125 12.9375V7.3125C7.3125 7.01413 7.43103 6.72798 7.642 6.517C7.85298 6.30603 8.13913 6.1875 8.4375 6.1875H16.3125C16.6109 6.1875 16.897 6.30603 17.108 6.517C17.319 6.72798 17.4375 7.01413 17.4375 7.3125V12.9375C17.4375 13.2359 17.319 13.522 17.108 13.733C16.897 13.944 16.6109 14.0625 16.3125 14.0625H15.1875V17.4375L11.8125 14.0625H8.4375Z" stroke="currentColor" stroke-linecap="round" stroke-linejoin="round" vector-effect="non-scaling-stroke"/>
    <path d="M5.0625 9.5625L2.8125 11.8125V8.4375H1.6875C1.38913 8.4375 1.10298 8.31897 0.892005 8.108C0.681026 7.89702 0.5625 7.61087 0.5625 7.3125V1.6875C0.5625 1.38913 0.681026 1.10298 0.892005 0.892005C1.10298 0.681026 1.38913 0.5625 1.6875 0.5625H9.5625C9.86087 0.5625 10.147 0.681026 10.358 0.892005C10.569 1.10298 10.6875 1.38913 10.6875 1.6875V3.9375" stroke="currentColor" stroke-linecap="round" stroke-linejoin="round" vector-effect="non-scaling-stroke"/>
</svg>