<svg width="18" height="18" viewBox="0 0 18 18" fill="currentColor" xmlns="http://www.w3.org/2000/svg">
<path d="M17 5.21399L15.4966 4.56944L16.2841 2.85063L14.4515 3.45938L14.4515 3.45938C13.8677 2.91504 13.1018 2.60853 12.3038 2.59998V2.59998C10.5263 2.60391 9.08626 4.04448 9.08233 5.82273V6.53889C6.5481 7.0617 4.33602 5.67949 2.28143 3.31614C1.92349 5.22592 2.28143 6.65826 3.35526 7.61315L1 7.25506L1 7.25506C1.18779 8.82058 2.4691 10.027 4.04251 10.1197L2.07383 10.8359C2.78971 12.2682 4.09262 12.4902 5.83222 12.6263L5.83221 12.6263C4.41034 13.5965 2.72068 14.0973 1 14.0587C10.1347 18.1193 15.4966 12.1536 15.4966 6.89698V6.30256L17 5.21399Z" fill="currentColor"/>
<path d="M17 5.21399L15.4966 4.56944L16.2841 2.85063L14.4515 3.45938C13.8677 2.91504 13.1018 2.60853 12.3038 2.59998C10.5263 2.60391 9.08627 4.04448 9.08233 5.82273V6.53889C6.5481 7.0617 4.33602 5.67949 2.28143 3.31614C1.92349 5.22592 2.28143 6.65826 3.35526 7.61315L1 7.25506C1.18779 8.82058 2.4691 10.027 4.04251 10.1197L2.07383 10.8359C2.78971 12.2682 4.09262 12.4902 5.83222 12.6263C4.41034 13.5965 2.72068 14.0973 1 14.0587C10.1347 18.1193 15.4966 12.1536 15.4966 6.89698V6.30256L17 5.21399Z" stroke="currentColor" stroke-linecap="round" stroke-linejoin="round" vector-effect="non-scaling-stroke"/>
</svg>
