<svg width="18" height="18" viewBox="0 0 18 18" fill="currentColor" xmlns="http://www.w3.org/2000/svg">
<path d="M9.00021 1C7.80091 1 6.82871 1.9551 6.82871 3.1333C6.82871 4.2115 7.64281 5.1029 8.70011 5.2465L8.75871 6.3407C6.77251 6.463 5.20001 8.0844 5.20001 10.0666V11.6666H6.82851L7.37151 17H10.6286L11.1715 11.6666H12.8001V10.0666C12.8001 8.0844 11.2277 6.463 9.24151 6.3407L9.20001 5.2577C10.3055 5.1587 11.1715 4.2453 11.1715 3.1333C11.1716 1.9551 10.1994 1 9.00021 1Z" fill="currentColor"/>
<path d="M8.8001 5.2667C9.9993 5.2667 10.9715 4.3115 10.9715 3.1333C10.9715 1.9551 9.9993 1 8.8001 1C7.6008 1 6.6287 1.9551 6.6287 3.1333C6.6287 4.3115 7.6009 5.2667 8.8001 5.2667ZM12.6 10.0667C12.6 8.0048 10.8987 6.3333 8.8 6.3333C6.7013 6.3333 5 8.0048 5 10.0667V11.6667H6.6286L7.1714 17H10.4286L10.9714 11.6667H12.6V10.0667V10.0667Z" stroke="currentColor" stroke-linecap="round" stroke-linejoin="round" vector-effect="non-scaling-stroke"/>
</svg>
