<svg width="18" height="18" viewBox="0 0 18 18" fill="currentColor" xmlns="http://www.w3.org/2000/svg">
<path d="M0.990112 15.7106C0.990112 12.2845 3.77042 9.50706 7.20011 9.50706C8.74751 9.50706 10.1627 10.0724 11.25 11.0077M7.20029 8.07548C9.04704 8.07548 10.5441 6.57995 10.5441 4.73513C10.5441 2.8903 9.04704 1.39478 7.20029 1.39478C5.35353 1.39478 3.85644 2.8903 3.85644 4.73513C3.85644 6.57995 5.35353 8.07548 7.20029 8.07548ZM16.7607 9.78472C16.305 9.33361 15.5677 9.33517 15.1139 9.78822C15.1114 9.79076 15.1089 9.7933 15.1064 9.79586L10.4665 14.4086L9.90012 16.6052L12.1097 16.0418L16.7495 11.4291C17.2093 10.9826 17.218 10.2501 16.7689 9.79295C16.7662 9.7902 16.7634 9.78745 16.7607 9.78472Z" stroke="currentColor" stroke-linecap="round" stroke-linejoin="round" vector-effect="non-scaling-stroke"/>
</svg>
