<svg width="19" height="18" viewBox="0 0 19 18" fill="currentColor" xmlns="http://www.w3.org/2000/svg">
<path d="M17 11.1329V8.46633C17 6.6991 15.5674 5.26648 13.8001 5.26648H4.20057C2.43334 5.26648 1.00071 6.6991 1.00071 8.46633V14.5973C0.974629 15.6648 1.66593 16.6179 2.68881 16.9246C3.7603 17.2069 4.87937 16.6764 5.339 15.6681L6.91547 12.7328H11.0852L12.6176 15.5707C12.9251 16.2894 13.5669 16.8105 14.3334 16.9637C15.5713 17.1805 16.7505 16.3528 16.9673 15.1149C16.9898 14.9865 17.0012 14.8563 17.0014 14.726L17 11.1329Z" fill="currentColor"/>
<path d="M4.73415 1H5.80077C7.5678 1 9.00062 2.96613 9.00062 4.73316V5.26647M4.20084 8.46633V10.5996M3.13422 9.53294H5.26746M12.7338 9.53294C12.8811 9.53294 13.0004 9.65233 13.0004 9.7996M12.7338 9.53294L13.0004 9.7996M12.7338 9.53294C12.5865 9.53294 12.4671 9.65233 12.4671 9.7996M12.7338 9.53294L12.4671 9.7996M13.0004 9.7996C13.0004 9.94687 12.8811 10.0663 12.7338 10.0663M13.0004 9.7996L12.7338 10.0663M12.4671 9.7996C12.4671 9.94687 12.5865 10.0663 12.7338 10.0663M12.4671 9.7996L12.7338 10.0663M14.3337 7.93302C14.481 7.93302 14.6004 8.0524 14.6004 8.19967M14.3337 7.93302L14.6004 8.19967M14.3337 7.93302C14.1864 7.93302 14.0671 8.0524 14.0671 8.19967M14.3337 7.93302L14.0671 8.19967M14.6004 8.19967C14.6004 8.34694 14.481 8.46633 14.3337 8.46633M14.6004 8.19967L14.3337 8.46633M14.0671 8.19967C14.0671 8.34694 14.1864 8.46633 14.3337 8.46633M14.0671 8.19967L14.3337 8.46633M17 8.46633C17 6.6991 15.5674 5.26648 13.8002 5.26648H4.20063C2.4334 5.26648 1.00077 6.6991 1.00077 8.46633V14.5973C0.97469 15.6648 1.66599 16.6179 2.68888 16.9246C3.76036 17.2069 4.87943 16.6764 5.33907 15.6681L6.91553 12.7328H11.0853L12.6177 15.5707C12.9252 16.2894 13.567 16.8105 14.3335 16.9637C15.5714 17.1805 16.7506 16.3528 16.9674 15.1149C16.9898 14.9865 17.0013 14.8563 17.0015 14.726L17 8.46633Z" stroke="currentColor" stroke-linecap="round" stroke-linejoin="round" vector-effect="non-scaling-stroke"/>
</svg>
