<svg width="18" height="18" viewBox="0 0 18 18" fill="currentColor" xmlns="http://www.w3.org/2000/svg">
<g clip-path="url(#clip0)">
<path d="M11.6652 15.4C13.727 15.4 15.3985 13.7285 15.3985 11.6667C15.3985 9.60481 13.727 7.93335 11.6652 7.93335C9.60334 7.93335 7.93188 9.60481 7.93188 11.6667C7.93188 13.7285 9.60334 15.4 11.6652 15.4Z" fill="currentColor"/>
<path d="M15.9321 7.36452C16.2037 7.10781 16.459 6.84754 16.6951 6.58728C17.1006 6.13756 17.1006 5.45408 16.6951 5.00436C14.8298 2.95566 11.8652 0.95319 8.99878 1.00083C6.13231 0.95319 3.16771 2.95566 1.3039 5.0072C0.8987 5.45705 0.8987 6.14028 1.3039 6.59012C2.687 8.13886 4.411 9.34508 6.33995 10.1137M7.39516 7.93342C6.21843 7.04781 5.98245 5.37595 6.86806 4.19923C7.75367 3.02251 9.42553 2.78652 10.6022 3.67213C11.2709 4.17535 11.6645 4.96327 11.6653 5.8001M16.9987 17L14.3249 14.3262M11.6652 15.4C13.727 15.4 15.3985 13.7285 15.3985 11.6667C15.3985 9.60485 13.727 7.9334 11.6652 7.9334C9.60335 7.9334 7.93189 9.60485 7.93189 11.6667C7.93189 13.7285 9.60335 15.4 11.6652 15.4Z" stroke="currentColor" stroke-linecap="round" stroke-linejoin="round" vector-effect="non-scaling-stroke"/>
</g>
<defs>
<clipPath id="clip0">
<path d="M0 0H17.9992V18H0V0Z" fill="currentColor"/>
</clipPath>
</defs>
</svg>
