<svg width="18" height="18" viewBox="0 0 18 18" fill="currentColor" xmlns="http://www.w3.org/2000/svg">
<path d="M8.3513 4.7872C9.3933 4.7872 10.2379 3.9394 10.2379 2.8936C10.2379 1.8478 9.3932 1 8.3513 1C7.3093 1 6.4646 1.8478 6.4646 2.8936C6.4646 3.9394 7.3093 4.7872 8.3513 4.7872ZM13.4198 8.8421C13.1772 8.84265 12.9375 8.78822 12.719 8.6829C12.5004 8.57758 12.3085 8.42411 12.1577 8.234C11.1047 6.9051 9.504 6.1326 7.8123 6.137C5.4317 6.1394 3.5023 8.0758 3.5 10.4652C3.5 11.0628 3.9827 11.5473 4.578 11.5473C5.1735 11.5473 5.6562 11.0628 5.6562 10.4652C5.6592 9.4802 6.3234 8.621 7.2732 8.3732V8.7339C7.27551 11.0634 6.58835 13.3414 5.2983 15.281C4.9681 15.779 5.1026 16.4515 5.5987 16.7829C6.0949 17.1144 6.7649 16.9794 7.0951 16.4814C7.77722 15.4537 8.32068 14.3404 8.7114 13.1704C9.8361 13.8832 10.681 14.9615 11.1041 16.224C11.2726 16.7971 11.8722 17.1247 12.4432 16.9555C13.0143 16.7863 13.3406 16.1845 13.172 15.6114C13.1649 15.5871 13.1569 15.5631 13.1481 15.5394C12.4893 13.5705 11.0902 11.9378 9.2491 10.9897C9.3703 10.2439 9.4311 9.4895 9.4309 8.7339V8.7123C9.83449 8.93079 10.1897 9.22866 10.4752 9.588C10.827 10.0322 11.2749 10.3909 11.7853 10.6371C12.2957 10.8832 12.8553 11.0104 13.4219 11.0091C14.0173 11.0091 14.5 10.5247 14.5 9.9271C14.5 9.3295 14.0173 8.8451 13.4219 8.8451L13.4198 8.8421V8.8421Z" fill="currentColor"/>
<path d="M8.3513 4.7872C9.3933 4.7872 10.2379 3.9394 10.2379 2.8936C10.2379 1.8478 9.3932 1 8.3513 1C7.3093 1 6.4646 1.8478 6.4646 2.8936C6.4646 3.9394 7.3093 4.7872 8.3513 4.7872ZM13.4198 8.8421C13.1772 8.84265 12.9375 8.78822 12.719 8.6829C12.5004 8.57758 12.3085 8.42411 12.1577 8.234C11.1047 6.9051 9.504 6.1326 7.8123 6.137C5.4317 6.1394 3.5023 8.0758 3.5 10.4652C3.5 11.0628 3.9827 11.5473 4.578 11.5473C5.1735 11.5473 5.6562 11.0628 5.6562 10.4652C5.6592 9.4802 6.3234 8.621 7.2732 8.3732V8.7339C7.27551 11.0634 6.58835 13.3414 5.2983 15.281C4.9681 15.779 5.1026 16.4515 5.5987 16.7829C6.0949 17.1144 6.7649 16.9794 7.0951 16.4814C7.77722 15.4537 8.32068 14.3404 8.7114 13.1704C9.8361 13.8832 10.681 14.9615 11.1041 16.224C11.2726 16.7971 11.8722 17.1247 12.4432 16.9555C13.0143 16.7863 13.3406 16.1845 13.172 15.6114C13.1649 15.5871 13.1569 15.5631 13.1481 15.5394C12.4893 13.5705 11.0902 11.9378 9.2491 10.9897C9.3703 10.2439 9.4311 9.4895 9.4309 8.7339V8.7123C9.83449 8.93079 10.1897 9.22866 10.4752 9.588C10.827 10.0322 11.2749 10.3909 11.7853 10.6371C12.2957 10.8832 12.8553 11.0104 13.4219 11.0091C14.0173 11.0091 14.5 10.5247 14.5 9.9271C14.5 9.3295 14.0173 8.8451 13.4219 8.8451L13.4198 8.8421V8.8421Z" stroke="currentColor" stroke-linecap="round" stroke-linejoin="round" vector-effect="non-scaling-stroke"/>
</svg>
