<svg width="18" height="18" viewBox="0 0 18 18" fill="currentColor" xmlns="http://www.w3.org/2000/svg">
<path d="M10.153 1.71834C9.84025 1.08171 9.07067 0.819135 8.43404 1.13184C8.17906 1.25709 7.9728 1.46335 7.84755 1.71834L1.11124 15.4413C0.847719 15.9773 1.06867 16.6255 1.60474 16.8891C1.75343 16.9622 1.91693 17.0001 2.08261 17H15.9179C16.5152 17.0004 16.9998 16.5165 17.0002 15.9191C17.0003 15.7534 16.9624 15.59 16.8893 15.4413L10.153 1.71834Z" fill="currentColor"/>
<path d="M8.97592 6.39999V11.9172M9.00006 14V14.0313M10.153 1.71834C9.84025 1.08171 9.07067 0.819135 8.43404 1.13184C8.17906 1.25709 7.9728 1.46335 7.84755 1.71834L1.11124 15.4413C0.847719 15.9773 1.06867 16.6255 1.60474 16.8891C1.75343 16.9622 1.91693 17.0001 2.08261 17H15.9179C16.5152 17.0004 16.9998 16.5165 17.0002 15.9191C17.0003 15.7534 16.9624 15.5899 16.8893 15.4413L10.153 1.71834Z" stroke="currentColor" stroke-linecap="round" stroke-linejoin="round" vector-effect="non-scaling-stroke"/>
</svg>
