<svg width="18" height="18" viewBox="0 0 18 18" fill="currentColor" xmlns="http://www.w3.org/2000/svg">
<path d="M15.5529 9.42971C17.0586 7.92471 17.431 5.62454 16.4773 3.72127L13.953 6.24271C13.5365 6.65909 12.8613 6.65909 12.4448 6.24271L11.876 5.67386C11.4593 5.25746 11.4591 4.58212 11.8755 4.16546C11.8753 4.16562 11.8757 4.1653 11.8755 4.16546L14.4358 1.60513C12.0413 0.2977 9.04035 1.17893 7.73292 3.57341C6.9733 4.9646 6.92742 6.63583 7.60957 8.0666L1.3216 14.3503C0.893155 14.7782 0.892747 15.4725 1.32069 15.9009C1.321 15.9012 1.3213 15.9015 1.3216 15.9019L2.09738 16.6783C2.52568 17.107 3.22037 17.1073 3.64902 16.679C3.64922 16.6787 3.64943 16.6785 3.64964 16.6783L9.93263 10.3953C11.8214 11.2967 14.0733 10.9098 15.5529 9.42971Z" fill="currentColor"/>
<path d="M11.8756 4.16546C11.4592 4.58212 11.4594 5.25746 11.8761 5.67386L12.4449 6.24271C12.8615 6.65909 13.5366 6.65909 13.9531 6.24271L16.4774 3.72127C17.4312 5.62454 17.0587 7.92471 15.553 9.42972C14.0734 10.9098 11.8215 11.2967 9.93275 10.3953L3.64914 16.679M11.8756 4.16546C11.8758 4.1653 11.8755 4.16562 11.8756 4.16546ZM11.8756 4.16546L14.4359 1.60513C12.0415 0.2977 9.04047 1.17893 7.73304 3.57341C6.97342 4.9646 6.92754 6.63583 7.60969 8.0666L1.32173 14.3503C0.893277 14.7782 0.892869 15.4725 1.32081 15.9009C1.32112 15.9012 1.32142 15.9015 1.32173 15.9019L2.0975 16.6783C2.5258 17.107 3.2205 17.1073 3.64914 16.679M3.64914 16.679C3.64935 16.6787 3.64894 16.6792 3.64914 16.679Z" stroke="currentColor" stroke-linecap="round" stroke-linejoin="round" vector-effect="non-scaling-stroke"/>
</svg>
