<?xml version="1.0" encoding="utf-8"?><svg xmlns="http://www.w3.org/2000/svg" xmlns:xlink="http://www.w3.org/1999/xlink"><symbol fill="currentColor" viewBox="0 0 20 20" id="add" xmlns="http://www.w3.org/2000/svg"><path d="M1 10h18m-9-9v18" stroke="currentColor" stroke-linecap="round" stroke-linejoin="round" vector-effect="non-scaling-stroke"/></symbol><symbol fill="currentColor" viewBox="0 0 18 18" id="add-circle" xmlns="http://www.w3.org/2000/svg"><path d="M9 17A8 8 0 109 1a8 8 0 000 16z"/><path d="M8.843 5.937v6.01M5.75 8.942h6.182M17 9A8 8 0 111 9a8 8 0 0116 0z" stroke="currentColor" stroke-linecap="round" stroke-linejoin="round" vector-effect="non-scaling-stroke"/></symbol><symbol fill="currentColor" viewBox="0 0 18 18" id="android" xmlns="http://www.w3.org/2000/svg"><g clip-path="url(#cclip0)"><path d="M4.09 16.964h9.82a1.09 1.09 0 001.09-1.09V8.1a6 6 0 00-12 0v7.774c0 .602.488 1.09 1.09 1.09z"/><path d="M3.133 8.468v7.466c0 .589.478 1.066 1.067 1.066h9.598c.59 0 1.067-.477 1.067-1.066V8.468m-11.732 0h11.732m-11.732 0A2.133 2.133 0 001 10.6v4.266m13.865-6.4c1.178 0 2.133.956 2.133 2.134v4.266M5.7 3.083L4.2 1m8.098 2.083L13.798 1m1.067 6.932a5.866 5.866 0 10-11.732 0v.534h11.732v-.534zM6.599 5.268a.267.267 0 110 .534.267.267 0 010-.534zm4.8 0a.267.267 0 110 .533.267.267 0 010-.533z" stroke="currentColor" stroke-linecap="round" stroke-linejoin="round" vector-effect="non-scaling-stroke"/></g><defs><clipPath id="cclip0"><path d="M0 0h17.998v18H0V0z"/></clipPath></defs></symbol><symbol fill="currentColor" viewBox="0 0 18 18" id="cross" xmlns="http://www.w3.org/2000/svg"><path d="M1.841 16.16L9.001 9m0 0l7.159-7.16M9 9L1.842 1.84M9.001 9l7.159 7.16" stroke="currentColor" stroke-linecap="round" stroke-linejoin="round" vector-effect="non-scaling-stroke"/></symbol><symbol fill="currentColor" viewBox="0 0 18 18" id="archive" xmlns="http://www.w3.org/2000/svg"><path fill-rule="evenodd" clip-rule="evenodd" d="M16.99 9.312a.711.711 0 00-.696-.85H7.881a.711.711 0 01-.696-.568l-.197-.99a.711.711 0 00-.696-.569H1.709a.711.711 0 00-.696.849l1.845 9.247c.067.33.358.568.695.569h11.323a.711.711 0 00.696-.57c.292-1.459 1.072-5.387 1.419-7.118z"/><path d="M3.667 4.2l.015-2.489c0-.393.318-.711.71-.711h9.221c.393 0 .712.318.712.711l.014 4.624m-8.53-3.207l5.86.006M9.002 5.268h2.667m5.322 4.044a.711.711 0 00-.697-.849H7.881a.711.711 0 01-.696-.57l-.197-.988a.711.711 0 00-.696-.57H1.709a.711.711 0 00-.696.85l1.845 9.246c.067.33.358.568.695.569h11.323a.711.711 0 00.696-.569c.292-1.46 1.072-5.388 1.419-7.12z" stroke="currentColor" stroke-linecap="round" stroke-linejoin="round" vector-effect="non-scaling-stroke"/></symbol></svg>